MontserratZ-Thin.ufo
<glyph name="ampersand" format="2">
  <advance width="634"/>
  <unicode hex="0026"/>
  <outline>
    <contour>
      <point x="273" y="-3" type="qcurve" smooth="yes"/>
      <point x="210" y="-3"/>
      <point x="112" y="40"/>
      <point x="56" y="116"/>
      <point x="56" y="168" type="qcurve" smooth="yes"/>
      <point x="56" y="207"/>
      <point x="92" y="277"/>
      <point x="175" y="350"/>
      <point x="247" y="393" type="qcurve" smooth="yes"/>
      <point x="314" y="433"/>
      <point x="390" y="491"/>
      <point x="422" y="545"/>
      <point x="422" y="578" type="qcurve" smooth="yes"/>
      <point x="422" y="626"/>
      <point x="359" y="684"/>
      <point x="300" y="684" type="qcurve" smooth="yes"/>
      <point x="238" y="684"/>
      <point x="169" y="620"/>
      <point x="169" y="568" type="qcurve" smooth="yes"/>
      <point x="169" y="544"/>
      <point x="183" y="500"/>
      <point x="221" y="447"/>
      <point x="255" y="409" type="qcurve" smooth="yes"/>
      <point x="627" y="3" type="line"/>
      <point x="612" y="-10" type="line"/>
      <point x="237" y="400" type="line" smooth="yes"/>
      <point x="202" y="439"/>
      <point x="163" y="494"/>
      <point x="149" y="542"/>
      <point x="149" y="568" type="qcurve" smooth="yes"/>
      <point x="149" y="609"/>
      <point x="186" y="669"/>
      <point x="254" y="703"/>
      <point x="300" y="703" type="qcurve" smooth="yes"/>
      <point x="343" y="703"/>
      <point x="406" y="673"/>
      <point x="441" y="617"/>
      <point x="441" y="578" type="qcurve" smooth="yes"/>
      <point x="441" y="543"/>
      <point x="408" y="484"/>
      <point x="329" y="421"/>
      <point x="260" y="379" type="qcurve" smooth="yes"/>
      <point x="189" y="336"/>
      <point x="108" y="268"/>
      <point x="76" y="205"/>
      <point x="76" y="168" type="qcurve" smooth="yes"/>
      <point x="76" y="122"/>
      <point x="126" y="52"/>
      <point x="215" y="14"/>
      <point x="273" y="14" type="qcurve" smooth="yes"/>
      <point x="348" y="14"/>
      <point x="463" y="74"/>
      <point x="540" y="196"/>
      <point x="558" y="290" type="qcurve"/>
      <point x="575" y="286" type="line"/>
      <point x="556" y="187"/>
      <point x="474" y="59"/>
      <point x="352" y="-3"/>
    </contour>
  </outline>
</glyph>
<glyph name="parenright" format="2">
  <advance width="311"/>
  <unicode hex="0029"/>
  <outline>
    <contour>
      <point x="77" y="-194" type="qcurve"/>
      <point x="58" y="-194" type="line"/>
      <point x="115" y="-98"/>
      <point x="168" y="135"/>
      <point x="168" y="274" type="qcurve" smooth="yes"/>
      <point x="168" y="413"/>
      <point x="115" y="646"/>
      <point x="58" y="742" type="qcurve"/>
      <point x="77" y="742" type="line"/>
      <point x="130" y="654"/>
      <point x="188" y="413"/>
      <point x="188" y="274" type="qcurve" smooth="yes"/>
      <point x="188" y="135"/>
      <point x="130" y="-103"/>
    </contour>
  </outline>
</glyph>
<glyph name="zero" format="2">
  <advance width="652"/>
  <unicode hex="0030"/>
  <outline>
    <contour>
      <point x="326" y="-3" type="qcurve" smooth="yes"/>
      <point x="247" y="-3"/>
      <point x="126" y="84"/>
      <point x="59" y="243"/>
      <point x="59" y="350" type="qcurve" smooth="yes"/>
      <point x="59" y="457"/>
      <point x="126" y="616"/>
      <point x="247" y="703"/>
      <point x="326" y="703" type="qcurve" smooth="yes"/>
      <point x="406" y="703"/>
      <point x="526" y="616"/>
      <point x="593" y="457"/>
      <point x="593" y="350" type="qcurve" smooth="yes"/>
      <point x="593" y="243"/>
      <point x="526" y="84"/>
      <point x="406" y="-3"/>
    </contour>
    <contour>
      <point x="326" y="16" type="qcurve" smooth="yes"/>
      <point x="400" y="16"/>
      <point x="511" y="98"/>
      <point x="573" y="248"/>
      <point x="573" y="350" type="qcurve" smooth="yes"/>
      <point x="573" y="453"/>
      <point x="511" y="602"/>
      <point x="400" y="684"/>
      <point x="326" y="684" type="qcurve" smooth="yes"/>
      <point x="253" y="684"/>
      <point x="141" y="602"/>
      <point x="79" y="453"/>
      <point x="79" y="350" type="qcurve" smooth="yes"/>
      <point x="79" y="248"/>
      <point x="141" y="98"/>
      <point x="253" y="16"/>
    </contour>
  </outline>
</glyph>
<glyph name="two" format="2">
  <advance width="555"/>
  <unicode hex="0032"/>
  <outline>
    <contour>
      <point x="43" y="0" type="line"/>
      <point x="43" y="15" type="line"/>
      <point x="346" y="322" type="line" smooth="yes"/>
      <point x="391" y="367"/>
      <point x="437" y="435"/>
      <point x="453" y="494"/>
      <point x="453" y="523" type="qcurve" smooth="yes"/>
      <point x="453" y="597"/>
      <point x="353" y="684"/>
      <point x="258" y="684" type="qcurve" smooth="yes"/>
      <point x="186" y="684"/>
      <point x="80" y="642"/>
      <point x="42" y="599" type="qcurve"/>
      <point x="28" y="613" type="line"/>
      <point x="67" y="657"/>
      <point x="182" y="703"/>
      <point x="258" y="703" type="qcurve" smooth="yes"/>
      <point x="324" y="703"/>
      <point x="421" y="660"/>
      <point x="473" y="580"/>
      <point x="473" y="524" type="qcurve" smooth="yes"/>
      <point x="473" y="491"/>
      <point x="454" y="427"/>
      <point x="406" y="355"/>
      <point x="360" y="309" type="qcurve" smooth="yes"/>
      <point x="66" y="11" type="line"/>
      <point x="54" y="19" type="line"/>
      <point x="511" y="19" type="line"/>
      <point x="511" y="0" type="line"/>
    </contour>
  </outline>
</glyph>
<glyph name="three" format="2">
  <advance width="548"/>
  <unicode hex="0033"/>
  <outline>
    <contour>
      <point x="259" y="-3" type="qcurve" smooth="yes"/>
      <point x="180" y="-3"/>
      <point x="51" y="53"/>
      <point x="19" y="96" type="qcurve"/>
      <point x="32" y="109" type="line"/>
      <point x="61" y="70"/>
      <point x="182" y="16"/>
      <point x="259" y="16" type="qcurve" smooth="yes"/>
      <point x="363" y="16"/>
      <point x="470" y="112"/>
      <point x="470" y="192" type="qcurve" smooth="yes"/>
      <point x="470" y="272"/>
      <point x="361" y="368"/>
      <point x="246" y="368" type="qcurve" smooth="yes"/>
      <point x="210" y="368" type="line"/>
      <point x="210" y="383" type="line"/>
      <point x="442" y="688" type="line"/>
      <point x="444" y="681" type="line"/>
      <point x="41" y="681" type="line"/>
      <point x="41" y="700" type="line"/>
      <point x="464" y="700" type="line"/>
      <point x="464" y="685" type="line"/>
      <point x="232" y="380" type="line"/>
      <point x="230" y="387" type="line"/>
      <point x="245" y="387" type="line" smooth="yes"/>
      <point x="369" y="387"/>
      <point x="490" y="279"/>
      <point x="490" y="192" type="qcurve" smooth="yes"/>
      <point x="490" y="134"/>
      <point x="437" y="46"/>
      <point x="334" y="-3"/>
    </contour>
  </outline>
</glyph>
<glyph name="nine" format="2">
  <advance width="592"/>
  <unicode hex="0039"/>
  <outline>
    <contour>
      <point x="260" y="703" type="qcurve" smooth="yes"/>
      <point x="351" y="703"/>
      <point x="472" y="617"/>
      <point x="533" y="459"/>
      <point x="533" y="350" type="qcurve" smooth="yes"/>
      <point x="533" y="233"/>
      <point x="458" y="76"/>
      <point x="324" y="-3"/>
      <point x="235" y="-3" type="qcurve" smooth="yes"/>
      <point x="193" y="-3"/>
      <point x="117" y="11"/>
      <point x="86" y="30" type="qcurve"/>
      <point x="96" y="47" type="line"/>
      <point x="122" y="31"/>
      <point x="195" y="16"/>
      <point x="235" y="16" type="qcurve" smooth="yes"/>
      <point x="361" y="16"/>
      <point x="513" y="182"/>
      <point x="513" y="348" type="qcurve" smooth="yes"/>
      <point x="513" y="374"/>
      <point x="506" y="452"/>
      <point x="494" y="490" type="qcurve"/>
      <point x="502" y="505" type="line"/>
      <point x="500" y="439"/>
      <point x="437" y="345"/>
      <point x="332" y="294"/>
      <point x="267" y="294" type="qcurve" smooth="yes"/>
      <point x="197" y="294"/>
      <point x="94" y="344"/>
      <point x="37" y="436"/>
      <point x="37" y="498" type="qcurve" smooth="yes"/>
      <point x="37" y="560"/>
      <point x="94" y="652"/>
      <point x="195" y="703"/>
    </contour>
    <contour>
      <point x="260" y="684" type="qcurve" smooth="yes"/>
      <point x="200" y="684"/>
      <point x="109" y="638"/>
      <point x="57" y="554"/>
      <point x="57" y="498" type="qcurve" smooth="yes"/>
      <point x="57" y="414"/>
      <point x="170" y="313"/>
      <point x="267" y="313" type="qcurve" smooth="yes"/>
      <point x="331" y="313"/>
      <point x="428" y="363"/>
      <point x="482" y="448"/>
      <point x="482" y="500" type="qcurve" smooth="yes"/>
      <point x="482" y="544"/>
      <point x="432" y="629"/>
      <point x="334" y="684"/>
    </contour>
  </outline>
</glyph>
<glyph name="question" format="2">
  <advance width="554"/>
  <unicode hex="003F"/>
  <outline>
    <contour>
      <point x="250" y="188" type="line"/>
      <point x="250" y="234"/>
      <point x="278" y="298"/>
      <point x="323" y="346"/>
      <point x="372" y="388"/>
      <point x="417" y="434"/>
      <point x="445" y="493"/>
      <point x="445" y="535" type="qcurve" smooth="yes"/>
      <point x="445" y="600"/>
      <point x="345" y="684"/>
      <point x="250" y="684" type="qcurve" smooth="yes"/>
      <point x="178" y="684"/>
      <point x="72" y="642"/>
      <point x="34" y="599" type="qcurve"/>
      <point x="20" y="613" type="line"/>
      <point x="59" y="657"/>
      <point x="174" y="703"/>
      <point x="250" y="703" type="qcurve" smooth="yes"/>
      <point x="316" y="703"/>
      <point x="413" y="661"/>
      <point x="465" y="586"/>
      <point x="465" y="536" type="qcurve" smooth="yes"/>
      <point x="465" y="491"/>
      <point x="437" y="428"/>
      <point x="392" y="379"/>
      <point x="343" y="337"/>
      <point x="298" y="290"/>
      <point x="270" y="230"/>
      <point x="270" y="188" type="qcurve"/>
    </contour>
    <contour>
      <point x="260" y="-3" type="qcurve" smooth="yes"/>
      <point x="250" y="-3"/>
      <point x="234" y="13"/>
      <point x="234" y="23" type="qcurve" smooth="yes"/>
      <point x="234" y="34"/>
      <point x="250" y="49"/>
      <point x="260" y="49" type="qcurve" smooth="yes"/>
      <point x="271" y="49"/>
      <point x="286" y="34"/>
      <point x="286" y="23" type="qcurve" smooth="yes"/>
      <point x="286" y="13"/>
      <point x="271" y="-3"/>
    </contour>
  </outline>
</glyph>
<glyph name="at" format="2">
  <advance width="1032"/>
  <unicode hex="0040"/>
  <outline>
    <contour>
      <point x="513" y="-197" type="qcurve" smooth="yes"/>
      <point x="413" y="-197"/>
      <point x="247" y="-131"/>
      <point x="125" y="-11"/>
      <point x="59" y="154"/>
      <point x="59" y="254" type="qcurve" smooth="yes"/>
      <point x="59" y="355"/>
      <point x="126" y="520"/>
      <point x="249" y="639"/>
      <point x="417" y="703"/>
      <point x="517" y="703" type="qcurve" smooth="yes"/>
      <point x="616" y="703"/>
      <point x="783" y="640"/>
      <point x="906" y="522"/>
      <point x="973" y="359"/>
      <point x="973" y="259" type="qcurve" smooth="yes"/>
      <point x="973" y="175"/>
      <point x="937" y="58"/>
      <point x="874" y="-3"/>
      <point x="834" y="-3" type="qcurve" smooth="yes"/>
      <point x="793" y="-3"/>
      <point x="742" y="46"/>
      <point x="742" y="89" type="qcurve" smooth="yes"/>
      <point x="742" y="190" type="line"/>
      <point x="752" y="260" type="line"/>
      <point x="742" y="330" type="line"/>
      <point x="742" y="517" type="line"/>
      <point x="762" y="517" type="line"/>
      <point x="762" y="99" type="line" smooth="yes"/>
      <point x="762" y="54"/>
      <point x="803" y="16"/>
      <point x="834" y="16" type="qcurve" smooth="yes"/>
      <point x="868" y="16"/>
      <point x="922" y="73"/>
      <point x="953" y="181"/>
      <point x="953" y="259" type="qcurve" smooth="yes"/>
      <point x="953" y="355"/>
      <point x="889" y="511"/>
      <point x="772" y="624"/>
      <point x="613" y="684"/>
      <point x="517" y="684" type="qcurve" smooth="yes"/>
      <point x="421" y="684"/>
      <point x="260" y="622"/>
      <point x="143" y="508"/>
      <point x="79" y="350"/>
      <point x="79" y="254" type="qcurve" smooth="yes"/>
      <point x="79" y="159"/>
      <point x="142" y="1"/>
      <point x="258" y="-114"/>
      <point x="417" y="-177"/>
      <point x="513" y="-177" type="qcurve" smooth="yes"/>
      <point x="557" y="-177"/>
      <point x="661" y="-155"/>
      <point x="702" y="-133" type="qcurve"/>
      <point x="710" y="-151" type="line"/>
      <point x="666" y="-175"/>
      <point x="558" y="-197"/>
    </contour>
    <contour>
      <point x="511" y="-3" type="qcurve" smooth="yes"/>
      <point x="440" y="-3"/>
      <point x="326" y="64"/>
      <point x="260" y="183"/>
      <point x="260" y="259" type="qcurve" smooth="yes"/>
      <point x="260" y="336"/>
      <point x="326" y="453"/>
      <point x="440" y="520"/>
      <point x="511" y="520" type="qcurve" smooth="yes"/>
      <point x="582" y="520"/>
      <point x="694" y="453"/>
      <point x="759" y="336"/>
      <point x="759" y="259" type="qcurve" smooth="yes"/>
      <point x="759" y="183"/>
      <point x="694" y="64"/>
      <point x="582" y="-3"/>
    </contour>
    <contour>
      <point x="511" y="16" type="qcurve" smooth="yes"/>
      <point x="577" y="16"/>
      <point x="682" y="78"/>
      <point x="742" y="188"/>
      <point x="742" y="259" type="qcurve" smooth="yes"/>
      <point x="742" y="331"/>
      <point x="682" y="440"/>
      <point x="577" y="501"/>
      <point x="511" y="501" type="qcurve" smooth="yes"/>
      <point x="445" y="501"/>
      <point x="341" y="440"/>
      <point x="280" y="331"/>
      <point x="280" y="259" type="qcurve" smooth="yes"/>
      <point x="280" y="188"/>
      <point x="341" y="78"/>
      <point x="445" y="16"/>
    </contour>
  </outline>
</glyph>
<glyph name="D" format="2">
  <advance width="826"/>
  <unicode hex="0044"/>
  <anchor x="345" y="700" name="t.uni0308"/>
  <anchor x="209" y="355" name="t.uni0307_1"/>
  <anchor x="346" y="0" name="b.uni0324_3"/>
  <outline>
    <contour>
      <point x="133" y="0" type="line"/>
      <point x="133" y="700" type="line"/>
      <point x="398" y="700" type="line" smooth="yes"/>
      <point x="509" y="700"/>
      <point x="675" y="609"/>
      <point x="767" y="451"/>
      <point x="767" y="350" type="qcurve" smooth="yes"/>
      <point x="767" y="249"/>
      <point x="675" y="91"/>
      <point x="509" y="0"/>
      <point x="398" y="0" type="qcurve" smooth="yes"/>
    </contour>
    <contour>
      <point x="153" y="19" type="line"/>
      <point x="396" y="19" type="line" smooth="yes"/>
      <point x="503" y="19"/>
      <point x="661" y="105"/>
      <point x="747" y="254"/>
      <point x="747" y="350" type="qcurve" smooth="yes"/>
      <point x="747" y="446"/>
      <point x="661" y="595"/>
      <point x="503" y="681"/>
      <point x="396" y="681" type="qcurve" smooth="yes"/>
      <point x="153" y="681" type="line"/>
    </contour>
  </outline>
</glyph>
<glyph name="G" format="2">
  <advance width="774"/>
  <unicode hex="0047"/>
  <anchor x="434" y="702" name="t.uni0308"/>
  <anchor x="413" y="0" name="b.uni0324_3"/>
  <outline>
    <contour>
      <point x="421" y="-3" type="qcurve" smooth="yes"/>
      <point x="343" y="-3"/>
      <point x="211" y="50"/>
      <point x="113" y="146"/>
      <point x="59" y="274"/>
      <point x="59" y="350" type="qcurve" smooth="yes"/>
      <point x="59" y="426"/>
      <point x="113" y="554"/>
      <point x="211" y="650"/>
      <point x="343" y="703"/>
      <point x="421" y="703" type="qcurve" smooth="yes"/>
      <point x="492" y="703"/>
      <point x="617" y="659"/>
      <point x="662" y="614" type="qcurve"/>
      <point x="650" y="600" type="line"/>
      <point x="602" y="646"/>
      <point x="487" y="684"/>
      <point x="421" y="684" type="qcurve" smooth="yes"/>
      <point x="348" y="684"/>
      <point x="223" y="633"/>
      <point x="130" y="542"/>
      <point x="79" y="421"/>
      <point x="79" y="350" type="qcurve" smooth="yes"/>
      <point x="79" y="279"/>
      <point x="130" y="158"/>
      <point x="223" y="67"/>
      <point x="348" y="16"/>
      <point x="421" y="16" type="qcurve" smooth="yes"/>
      <point x="487" y="16"/>
      <point x="604" y="56"/>
      <point x="650" y="102" type="qcurve"/>
      <point x="662" y="87" type="line"/>
      <point x="617" y="42"/>
      <point x="492" y="-3"/>
    </contour>
    <contour>
      <point x="643" y="87" type="line"/>
      <point x="643" y="343" type="line"/>
      <point x="662" y="343" type="line"/>
      <point x="662" y="87" type="line"/>
    </contour>
  </outline>
</glyph>
<glyph name="J" format="2">
  <advance width="477"/>
  <unicode hex="004A"/>
  <anchor x="323" y="700" name="t.uni0308"/>
  <outline>
    <contour>
      <point x="178" y="-3" type="qcurve" smooth="yes"/>
      <point x="125" y="-3"/>
      <point x="32" y="50"/>
      <point x="4" y="96" type="qcurve"/>
      <point x="18" y="108" type="line"/>
      <point x="47" y="64"/>
      <point x="130" y="16"/>
      <point x="179" y="16" type="qcurve" smooth="yes"/>
      <point x="330" y="16"/>
      <point x="330" y="196" type="qcurve" smooth="yes"/>
      <point x="330" y="681" type="line"/>
      <point x="68" y="681" type="line"/>
      <point x="68" y="700" type="line"/>
      <point x="350" y="700" type="line"/>
      <point x="350" y="194" type="line" smooth="yes"/>
      <point x="350" y="96"/>
      <point x="264" y="-3"/>
    </contour>
  </outline>
</glyph>
<glyph name="bracketleft" format="2">
  <advance width="288"/>
  <unicode hex="005B"/>
  <outline>
    <contour>
      <point x="133" y="-194" type="line"/>
      <point x="133" y="742" type="line"/>
      <point x="263" y="742" type="line"/>
      <point x="263" y="723" type="line"/>
      <point x="153" y="723" type="line"/>
      <point x="153" y="-175" type="line"/>
      <point x="263" y="-175" type="line"/>
      <point x="263" y="-194" type="line"/>
    </contour>
  </outline>
</glyph>
<glyph name="bracketright" format="2">
  <advance width="288"/>
  <unicode hex="005D"/>
  <outline>
    <contour>
      <point x="155" y="-194" type="line"/>
      <point x="25" y="-194" type="line"/>
      <point x="25" y="-175" type="line"/>
      <point x="135" y="-175" type="line"/>
      <point x="135" y="723" type="line"/>
      <point x="25" y="723" type="line"/>
      <point x="25" y="742" type="line"/>
      <point x="155" y="742" type="line"/>
    </contour>
  </outline>
</glyph>
<glyph name="f" format="2">
  <advance width="311"/>
  <unicode hex="0066"/>
  <outline>
    <contour>
      <point x="123" y="0" type="line"/>
      <point x="123" y="618" type="line" smooth="yes"/>
      <point x="123" y="675"/>
      <point x="188" y="745"/>
      <point x="248" y="745" type="qcurve" smooth="yes"/>
      <point x="276" y="745"/>
      <point x="331" y="727"/>
      <point x="349" y="708" type="qcurve"/>
      <point x="335" y="694" type="line"/>
      <point x="319" y="710"/>
      <point x="274" y="726"/>
      <point x="249" y="726" type="qcurve" smooth="yes"/>
      <point x="197" y="726"/>
      <point x="143" y="668"/>
      <point x="143" y="613" type="qcurve" smooth="yes"/>
      <point x="143" y="514" type="line"/>
      <point x="143" y="503" type="line"/>
      <point x="143" y="0" type="line"/>
    </contour>
    <contour>
      <point x="23" y="498" type="line"/>
      <point x="23" y="517" type="line"/>
      <point x="318" y="517" type="line"/>
      <point x="318" y="498" type="line"/>
    </contour>
  </outline>
</glyph>
<glyph name="m" format="2">
  <advance width="1068"/>
  <unicode hex="006D"/>
  <anchor x="511" y="0" name="b.uni0324_3"/>
  <outline>
    <contour>
      <point x="758" y="520" type="qcurve" smooth="yes"/>
      <point x="820" y="520"/>
      <point x="910" y="471"/>
      <point x="959" y="375"/>
      <point x="959" y="305" type="qcurve" smooth="yes"/>
      <point x="959" y="0" type="line"/>
      <point x="939" y="0" type="line"/>
      <point x="939" y="305" type="line" smooth="yes"/>
      <point x="939" y="401"/>
      <point x="844" y="501"/>
      <point x="759" y="501" type="qcurve" smooth="yes"/>
      <point x="693" y="501"/>
      <point x="598" y="446"/>
      <point x="547" y="347"/>
      <point x="547" y="281" type="qcurve" smooth="yes"/>
      <point x="547" y="0" type="line"/>
      <point x="527" y="0" type="line"/>
      <point x="527" y="305" type="line" smooth="yes"/>
      <point x="527" y="401"/>
      <point x="432" y="501"/>
      <point x="347" y="501" type="qcurve" smooth="yes"/>
      <point x="281" y="501"/>
      <point x="186" y="446"/>
      <point x="135" y="347"/>
      <point x="135" y="281" type="qcurve" smooth="yes"/>
      <point x="135" y="0" type="line"/>
      <point x="115" y="0" type="line"/>
      <point x="115" y="517" type="line"/>
      <point x="135" y="517" type="line"/>
      <point x="135" y="371" type="line"/>
      <point x="133" y="374" type="line"/>
      <point x="155" y="441"/>
      <point x="265" y="520"/>
      <point x="346" y="520" type="qcurve" smooth="yes"/>
      <point x="426" y="520"/>
      <point x="530" y="439"/>
      <point x="543" y="359" type="qcurve"/>
      <point x="540" y="360" type="line"/>
      <point x="559" y="431"/>
      <point x="672" y="520"/>
    </contour>
  </outline>
</glyph>
<glyph name="r" format="2">
  <advance width="383"/>
  <unicode hex="0072"/>
  <anchor x="253" y="562" name="t.uni0308"/>
  <anchor x="180" y="0" name="b.uni0324_3"/>
  <outline>
    <contour>
      <point x="115" y="0" type="line"/>
      <point x="115" y="517" type="line"/>
      <point x="135" y="517" type="line"/>
      <point x="135" y="374" type="line"/>
      <point x="133" y="377" type="line"/>
      <point x="154" y="445"/>
      <point x="259" y="520"/>
      <point x="338" y="520" type="qcurve"/>
      <point x="338" y="500" type="line"/>
      <point x="337" y="500"/>
      <point x="334" y="500"/>
      <point x="332" y="500" type="qcurve" smooth="yes"/>
      <point x="239" y="500"/>
      <point x="135" y="381"/>
      <point x="135" y="278" type="qcurve" smooth="yes"/>
      <point x="135" y="0" type="line"/>
    </contour>
  </outline>
</glyph>
<glyph name="bar" format="2">
  <advance width="286"/>
  <unicode hex="007C"/>
  <outline>
    <contour>
      <point x="133" y="-194" type="line"/>
      <point x="133" y="742" type="line"/>
      <point x="153" y="742" type="line"/>
      <point x="153" y="-194" type="line"/>
    </contour>
  </outline>
</glyph>
<glyph name="braceright" format="2">
  <advance width="300"/>
  <unicode hex="007D"/>
  <outline>
    <contour>
      <point x="50" y="-194" type="qcurve" smooth="yes"/>
      <point x="25" y="-194" type="line"/>
      <point x="25" y="-175" type="line"/>
      <point x="57" y="-175" type="line" smooth="yes"/>
      <point x="98" y="-175"/>
      <point x="135" y="-132"/>
      <point x="135" y="-92" type="qcurve" smooth="yes"/>
      <point x="135" y="212" type="line" smooth="yes"/>
      <point x="135" y="232"/>
      <point x="143" y="257"/>
      <point x="160" y="272"/>
      <point x="172" y="276" type="qcurve"/>
      <point x="172" y="272" type="line"/>
      <point x="160" y="277"/>
      <point x="143" y="291"/>
      <point x="135" y="316"/>
      <point x="135" y="336" type="qcurve" smooth="yes"/>
      <point x="135" y="640" type="line" smooth="yes"/>
      <point x="135" y="680"/>
      <point x="98" y="723"/>
      <point x="57" y="723" type="qcurve" smooth="yes"/>
      <point x="25" y="723" type="line"/>
      <point x="25" y="742" type="line"/>
      <point x="50" y="742" type="line" smooth="yes"/>
      <point x="102" y="742"/>
      <point x="155" y="693"/>
      <point x="155" y="640" type="qcurve" smooth="yes"/>
      <point x="155" y="336" type="line" smooth="yes"/>
      <point x="155" y="308"/>
      <point x="178" y="284"/>
      <point x="200" y="284" type="qcurve" smooth="yes"/>
      <point x="235" y="284" type="line"/>
      <point x="235" y="265" type="line"/>
      <point x="200" y="265" type="line" smooth="yes"/>
      <point x="178" y="265"/>
      <point x="155" y="240"/>
      <point x="155" y="212" type="qcurve" smooth="yes"/>
      <point x="155" y="-92" type="line" smooth="yes"/>
      <point x="155" y="-144"/>
      <point x="102" y="-194"/>
    </contour>
  </outline>
</glyph>
<glyph name="logicalnot" format="2">
  <advance width="560"/>
  <unicode hex="00AC"/>
  <outline>
    <contour>
      <point x="485" y="359" type="line"/>
      <point x="485" y="159" type="line"/>
      <point x="465" y="159" type="line"/>
      <point x="465" y="340" type="line"/>
      <point x="75" y="340" type="line"/>
      <point x="75" y="359" type="line"/>
    </contour>
  </outline>
</glyph>
<glyph name="registered" format="2">
  <advance width="824"/>
  <unicode hex="00AE"/>
  <outline>
    <contour>
      <point x="411" y="-3" type="qcurve" smooth="yes"/>
      <point x="336" y="-3"/>
      <point x="208" y="51"/>
      <point x="112" y="148"/>
      <point x="59" y="276"/>
      <point x="59" y="350" type="qcurve" smooth="yes"/>
      <point x="59" y="424"/>
      <point x="113" y="552"/>
      <point x="209" y="649"/>
      <point x="338" y="703"/>
      <point x="413" y="703" type="qcurve" smooth="yes"/>
      <point x="488" y="703"/>
      <point x="617" y="650"/>
      <point x="712" y="554"/>
      <point x="765" y="427"/>
      <point x="765" y="352" type="qcurve" smooth="yes"/>
      <point x="765" y="277"/>
      <point x="711" y="148"/>
      <point x="614" y="51"/>
      <point x="486" y="-3"/>
    </contour>
    <contour>
      <point x="562" y="142" type="line"/>
      <point x="457" y="304" type="line"/>
      <point x="481" y="304" type="line"/>
      <point x="586" y="142" type="line"/>
    </contour>
    <contour>
      <point x="411" y="16" type="qcurve" smooth="yes"/>
      <point x="482" y="16"/>
      <point x="603" y="68"/>
      <point x="695" y="159"/>
      <point x="746" y="282"/>
      <point x="746" y="352" type="qcurve" smooth="yes"/>
      <point x="746" y="423"/>
      <point x="696" y="543"/>
      <point x="606" y="634"/>
      <point x="484" y="684"/>
      <point x="413" y="684" type="qcurve" smooth="yes"/>
      <point x="342" y="684"/>
      <point x="220" y="633"/>
      <point x="129" y="541"/>
      <point x="78" y="420"/>
      <point x="78" y="350" type="qcurve" smooth="yes"/>
      <point x="78" y="280"/>
      <point x="129" y="159"/>
      <point x="219" y="67"/>
      <point x="341" y="16"/>
    </contour>
    <contour>
      <point x="283" y="142" type="line"/>
      <point x="283" y="558" type="line"/>
      <point x="433" y="558" type="line" smooth="yes"/>
      <point x="504" y="558"/>
      <point x="586" y="486"/>
      <point x="586" y="425" type="qcurve" smooth="yes"/>
      <point x="586" y="364"/>
      <point x="504" y="292"/>
      <point x="433" y="292" type="qcurve" smooth="yes"/>
      <point x="303" y="292" type="line"/>
      <point x="303" y="142" type="line"/>
    </contour>
    <contour>
      <point x="302" y="311" type="line"/>
      <point x="431" y="311" type="line" smooth="yes"/>
      <point x="495" y="311"/>
      <point x="566" y="371"/>
      <point x="566" y="425" type="qcurve" smooth="yes"/>
      <point x="566" y="479"/>
      <point x="495" y="539"/>
      <point x="431" y="539" type="qcurve" smooth="yes"/>
      <point x="302" y="539" type="line"/>
    </contour>
  </outline>
</glyph>
<glyph name="plusminus" format="2">
  <advance width="560"/>
  <unicode hex="00B1"/>
  <outline>
    <contour>
      <point x="75" y="0" type="line"/>
      <point x="75" y="19" type="line"/>
      <point x="485" y="19" type="line"/>
      <point x="485" y="0" type="line"/>
    </contour>
    <contour>
      <point x="270" y="150" type="line"/>
      <point x="270" y="550" type="line"/>
      <point x="290" y="550" type="line"/>
      <point x="290" y="150" type="line"/>
    </contour>
    <contour>
      <point x="75" y="340" type="line"/>
      <point x="75" y="359" type="line"/>
      <point x="485" y="359" type="line"/>
      <point x="485" y="340" type="line"/>
    </contour>
  </outline>
</glyph>
<glyph name="ordmasculine" format="2">
  <advance width="407"/>
  <unicode hex="00BA"/>
  <outline>
    <contour>
      <point x="203" y="432" type="qcurve" smooth="yes"/>
      <point x="156" y="432"/>
      <point x="82" y="472"/>
      <point x="40" y="543"/>
      <point x="40" y="588" type="qcurve" smooth="yes"/>
      <point x="40" y="634"/>
      <point x="82" y="704"/>
      <point x="156" y="744"/>
      <point x="203" y="744" type="qcurve" smooth="yes"/>
      <point x="250" y="744"/>
      <point x="324" y="704"/>
      <point x="366" y="634"/>
      <point x="366" y="588" type="qcurve" smooth="yes"/>
      <point x="366" y="543"/>
      <point x="324" y="472"/>
      <point x="250" y="432"/>
    </contour>
    <contour>
      <point x="203" y="450" type="qcurve" smooth="yes"/>
      <point x="265" y="450"/>
      <point x="347" y="527"/>
      <point x="347" y="588" type="qcurve" smooth="yes"/>
      <point x="347" y="650"/>
      <point x="265" y="726"/>
      <point x="203" y="726" type="qcurve" smooth="yes"/>
      <point x="142" y="726"/>
      <point x="59" y="650"/>
      <point x="59" y="588" type="qcurve" smooth="yes"/>
      <point x="59" y="527"/>
      <point x="142" y="450"/>
    </contour>
  </outline>
</glyph>
<glyph name="questiondown" format="2">
  <advance width="554"/>
  <unicode hex="00BF"/>
  <outline>
    <contour>
      <point x="304" y="-157" type="qcurve" smooth="yes"/>
      <point x="238" y="-157"/>
      <point x="142" y="-115"/>
      <point x="89" y="-44"/>
      <point x="89" y="1" type="qcurve" smooth="yes"/>
      <point x="89" y="43"/>
      <point x="117" y="103"/>
      <point x="162" y="149"/>
      <point x="211" y="189"/>
      <point x="256" y="233"/>
      <point x="284" y="289"/>
      <point x="284" y="329" type="qcurve"/>
      <point x="304" y="329" type="line"/>
      <point x="304" y="286"/>
      <point x="276" y="226"/>
      <point x="231" y="180"/>
      <point x="182" y="140"/>
      <point x="137" y="97"/>
      <point x="109" y="41"/>
      <point x="109" y="2" type="qcurve" smooth="yes"/>
      <point x="109" y="-56"/>
      <point x="209" y="-138"/>
      <point x="304" y="-138" type="qcurve" smooth="yes"/>
      <point x="376" y="-138"/>
      <point x="482" y="-96"/>
      <point x="520" y="-53" type="qcurve"/>
      <point x="534" y="-67" type="line"/>
      <point x="495" y="-110"/>
      <point x="381" y="-157"/>
    </contour>
    <contour>
      <point x="294" y="468" type="qcurve" smooth="yes"/>
      <point x="284" y="468"/>
      <point x="268" y="484"/>
      <point x="268" y="494" type="qcurve" smooth="yes"/>
      <point x="268" y="505"/>
      <point x="284" y="520"/>
      <point x="294" y="520" type="qcurve" smooth="yes"/>
      <point x="305" y="520"/>
      <point x="320" y="505"/>
      <point x="320" y="494" type="qcurve" smooth="yes"/>
      <point x="320" y="484"/>
      <point x="305" y="468"/>
    </contour>
  </outline>
</glyph>
<glyph name="AE" format="2">
  <advance width="1005"/>
  <unicode hex="00C6"/>
  <anchor x="680" y="700" name="t.uni0308"/>
  <anchor x="680" y="0" name="b.uni0324_3"/>
  <outline>
    <contour>
      <point x="9" y="0" type="line"/>
      <point x="454" y="700" type="line"/>
      <point x="475" y="700" type="line"/>
      <point x="475" y="681" type="line"/>
      <point x="453" y="681" type="line"/>
      <point x="467" y="685" type="line"/>
      <point x="32" y="0" type="line"/>
    </contour>
    <contour>
      <point x="153" y="211" type="line"/>
      <point x="163" y="230" type="line"/>
      <point x="475" y="230" type="line"/>
      <point x="475" y="211" type="line"/>
    </contour>
    <contour>
      <point x="485" y="365" type="line"/>
      <point x="876" y="365" type="line"/>
      <point x="876" y="346" type="line"/>
      <point x="485" y="346" type="line"/>
    </contour>
    <contour>
      <point x="490" y="19" type="line"/>
      <point x="936" y="19" type="line"/>
      <point x="936" y="0" type="line"/>
      <point x="470" y="0" type="line"/>
      <point x="470" y="700" type="line"/>
      <point x="921" y="700" type="line"/>
      <point x="921" y="681" type="line"/>
      <point x="490" y="681" type="line"/>
    </contour>
  </outline>
</glyph>
<glyph name="Thorn" format="2">
  <advance width="710"/>
  <unicode hex="00DE"/>
  <outline>
    <contour>
      <point x="144" y="139" type="line"/>
      <point x="144" y="158" type="line"/>
      <point x="372" y="158" type="line" smooth="yes"/>
      <point x="495" y="158"/>
      <point x="625" y="269"/>
      <point x="625" y="370" type="qcurve" smooth="yes"/>
      <point x="625" y="471"/>
      <point x="495" y="581"/>
      <point x="372" y="581" type="qcurve" smooth="yes"/>
      <point x="144" y="581" type="line"/>
      <point x="144" y="600" type="line"/>
      <point x="370" y="600" type="line" smooth="yes"/>
      <point x="456" y="600"/>
      <point x="579" y="545"/>
      <point x="645" y="443"/>
      <point x="645" y="370" type="qcurve" smooth="yes"/>
      <point x="645" y="297"/>
      <point x="579" y="194"/>
      <point x="456" y="139"/>
      <point x="370" y="139" type="qcurve" smooth="yes"/>
    </contour>
    <contour>
      <point x="133" y="0" type="line"/>
      <point x="133" y="700" type="line"/>
      <point x="153" y="700" type="line"/>
      <point x="153" y="0" type="line"/>
    </contour>
  </outline>
</glyph>
<glyph name="germandbls" format="2">
  <advance width="652"/>
  <unicode hex="00DF"/>
  <outline>
    <contour>
      <point x="370" y="-3" type="qcurve" smooth="yes"/>
      <point x="342" y="-3"/>
      <point x="287" y="5"/>
      <point x="264" y="12" type="qcurve"/>
      <point x="270" y="31" type="line"/>
      <point x="293" y="24"/>
      <point x="342" y="16"/>
      <point x="370" y="16" type="qcurve" smooth="yes"/>
      <point x="429" y="16"/>
      <point x="523" y="58"/>
      <point x="578" y="138"/>
      <point x="578" y="194" type="qcurve" smooth="yes"/>
      <point x="578" y="279"/>
      <point x="462" y="371"/>
      <point x="371" y="371" type="qcurve" smooth="yes"/>
      <point x="311" y="371" type="line"/>
      <point x="311" y="390" type="line"/>
      <point x="410" y="390"/>
      <point x="521" y="486"/>
      <point x="521" y="568" type="qcurve" smooth="yes"/>
      <point x="521" y="637"/>
      <point x="423" y="726"/>
      <point x="336" y="726" type="qcurve" smooth="yes"/>
      <point x="246" y="726"/>
      <point x="135" y="617"/>
      <point x="135" y="507" type="qcurve" smooth="yes"/>
      <point x="135" y="0" type="line"/>
      <point x="115" y="0" type="line"/>
      <point x="115" y="508" type="line" smooth="yes"/>
      <point x="115" y="586"/>
      <point x="171" y="691"/>
      <point x="270" y="745"/>
      <point x="335" y="745" type="qcurve" smooth="yes"/>
      <point x="399" y="745"/>
      <point x="491" y="699"/>
      <point x="541" y="619"/>
      <point x="541" y="568" type="qcurve" smooth="yes"/>
      <point x="541" y="523"/>
      <point x="508" y="453"/>
      <point x="451" y="404"/>
      <point x="380" y="378"/>
      <point x="342" y="378" type="qcurve"/>
      <point x="367" y="389" type="line"/>
      <point x="436" y="389"/>
      <point x="540" y="343"/>
      <point x="598" y="256"/>
      <point x="598" y="194" type="qcurve" smooth="yes"/>
      <point x="598" y="133"/>
      <point x="537" y="45"/>
      <point x="434" y="-3"/>
    </contour>
  </outline>
</glyph>
<glyph name="eth" format="2">
  <advance width="618"/>
  <unicode hex="00F0"/>
  <outline>
    <contour>
      <point x="286" y="-3" type="qcurve" smooth="yes"/>
      <point x="218" y="-3"/>
      <point x="113" y="51"/>
      <point x="54" y="149"/>
      <point x="54" y="214" type="qcurve" smooth="yes"/>
      <point x="54" y="279"/>
      <point x="113" y="376"/>
      <point x="221" y="430"/>
      <point x="294" y="430" type="qcurve" smooth="yes"/>
      <point x="359" y="430"/>
      <point x="466" y="378"/>
      <point x="531" y="280"/>
      <point x="533" y="209" type="qcurve"/>
      <point x="525" y="210" type="line"/>
      <point x="537" y="248"/>
      <point x="544" y="327"/>
      <point x="544" y="352" type="qcurve" smooth="yes"/>
      <point x="544" y="460"/>
      <point x="473" y="608"/>
      <point x="344" y="684"/>
      <point x="257" y="684" type="qcurve" smooth="yes"/>
      <point x="215" y="684"/>
      <point x="138" y="672"/>
      <point x="107" y="663" type="qcurve"/>
      <point x="102" y="682" type="line"/>
      <point x="130" y="690"/>
      <point x="212" y="703"/>
      <point x="257" y="703" type="qcurve" smooth="yes"/>
      <point x="349" y="703"/>
      <point x="487" y="623"/>
      <point x="564" y="466"/>
      <point x="564" y="350" type="qcurve" smooth="yes"/>
      <point x="564" y="244"/>
      <point x="502" y="85"/>
      <point x="378" y="-3"/>
    </contour>
    <contour>
      <point x="286" y="16" type="qcurve" smooth="yes"/>
      <point x="360" y="16"/>
      <point x="461" y="75"/>
      <point x="513" y="166"/>
      <point x="513" y="214" type="qcurve" smooth="yes"/>
      <point x="513" y="269"/>
      <point x="457" y="358"/>
      <point x="359" y="411"/>
      <point x="294" y="411" type="qcurve" smooth="yes"/>
      <point x="191" y="411"/>
      <point x="74" y="302"/>
      <point x="74" y="214" type="qcurve" smooth="yes"/>
      <point x="74" y="156"/>
      <point x="127" y="66"/>
      <point x="223" y="16"/>
    </contour>
    <contour>
      <point x="148" y="521" type="line"/>
      <point x="140" y="540" type="line"/>
      <point x="505" y="703" type="line"/>
      <point x="513" y="684" type="line"/>
    </contour>
  </outline>
</glyph>
<glyph name="divide" format="2">
  <advance width="560"/>
  <unicode hex="00F7"/>
  <outline>
    <contour>
      <point x="75" y="340" type="line"/>
      <point x="75" y="359" type="line"/>
      <point x="485" y="359" type="line"/>
      <point x="485" y="340" type="line"/>
    </contour>
    <contour>
      <point x="280" y="144" type="qcurve" smooth="yes"/>
      <point x="270" y="144"/>
      <point x="254" y="160"/>
      <point x="254" y="170" type="qcurve" smooth="yes"/>
      <point x="254" y="181"/>
      <point x="270" y="196"/>
      <point x="280" y="196" type="qcurve" smooth="yes"/>
      <point x="291" y="196"/>
      <point x="306" y="181"/>
      <point x="306" y="170" type="qcurve" smooth="yes"/>
      <point x="306" y="160"/>
      <point x="291" y="144"/>
    </contour>
    <contour>
      <point x="280" y="504" type="qcurve" smooth="yes"/>
      <point x="270" y="504"/>
      <point x="254" y="520"/>
      <point x="254" y="530" type="qcurve" smooth="yes"/>
      <point x="254" y="541"/>
      <point x="270" y="556"/>
      <point x="280" y="556" type="qcurve" smooth="yes"/>
      <point x="291" y="556"/>
      <point x="306" y="541"/>
      <point x="306" y="530" type="qcurve" smooth="yes"/>
      <point x="306" y="520"/>
      <point x="291" y="504"/>
    </contour>
  </outline>
</glyph>
<glyph name="eogonek" format="2">
  <advance width="587"/>
  <unicode hex="0119"/>
  <anchor x="355" y="562" name="t.uni0308"/>
  <anchor x="355" y="0" name="b.uni0324_3"/>
  <outline>
    <contour>
      <point x="419" y="-213" type="qcurve" smooth="yes"/>
      <point x="380" y="-213"/>
      <point x="328" y="-169"/>
      <point x="328" y="-129" type="qcurve" smooth="yes"/>
      <point x="328" y="-100"/>
      <point x="363" y="-24"/>
      <point x="421" y="25" type="qcurve"/>
      <point x="421" y="20" type="line"/>
      <point x="396" y="9"/>
      <point x="341" y="-3"/>
      <point x="312" y="-3" type="qcurve" smooth="yes"/>
      <point x="237" y="-3"/>
      <point x="121" y="64"/>
      <point x="54" y="183"/>
      <point x="54" y="259" type="qcurve" smooth="yes"/>
      <point x="54" y="336"/>
      <point x="116" y="453"/>
      <point x="225" y="520"/>
      <point x="293" y="520" type="qcurve" smooth="yes"/>
      <point x="361" y="520"/>
      <point x="470" y="455"/>
      <point x="533" y="339"/>
      <point x="533" y="264" type="qcurve"/>
      <point x="533" y="263"/>
      <point x="533" y="261"/>
      <point x="533" y="259" type="qcurve"/>
      <point x="65" y="259" type="line"/>
      <point x="65" y="278" type="line"/>
      <point x="522" y="278" type="line"/>
      <point x="514" y="263" type="line"/>
      <point x="514" y="331"/>
      <point x="456" y="439"/>
      <point x="357" y="501"/>
      <point x="293" y="501" type="qcurve" smooth="yes"/>
      <point x="230" y="501"/>
      <point x="130" y="439"/>
      <point x="73" y="331"/>
      <point x="73" y="263" type="qcurve" smooth="yes"/>
      <point x="73" y="259" type="line" smooth="yes"/>
      <point x="73" y="188"/>
      <point x="135" y="78"/>
      <point x="243" y="16"/>
      <point x="312" y="16" type="qcurve" smooth="yes"/>
      <point x="364" y="16"/>
      <point x="457" y="56"/>
      <point x="488" y="96" type="qcurve"/>
      <point x="502" y="82" type="line"/>
      <point x="495" y="73"/>
      <point x="477" y="57"/>
      <point x="466" y="47" type="qcurve" smooth="yes"/>
      <point x="414" y="-1"/>
      <point x="364" y="-64"/>
      <point x="348" y="-108"/>
      <point x="348" y="-129" type="qcurve" smooth="yes"/>
      <point x="348" y="-162"/>
      <point x="389" y="-194"/>
      <point x="420" y="-194" type="qcurve" smooth="yes"/>
      <point x="437" y="-194"/>
      <point x="470" y="-182"/>
      <point x="482" y="-171" type="qcurve"/>
      <point x="493" y="-186" type="line"/>
      <point x="477" y="-200"/>
      <point x="440" y="-213"/>
    </contour>
  </outline>
</glyph>
<glyph name="Eng" format="2">
  <advance width="816"/>
  <unicode hex="014A"/>
  <outline>
    <contour>
      <point x="133" y="0" type="line"/>
      <point x="133" y="700" type="line"/>
      <point x="150" y="700" type="line"/>
      <point x="674" y="23" type="line"/>
      <point x="666" y="0" type="line"/>
      <point x="142" y="677" type="line"/>
      <point x="153" y="677" type="line"/>
      <point x="153" y="0" type="line"/>
    </contour>
    <contour>
      <point x="511" y="-197" type="qcurve" smooth="yes"/>
      <point x="458" y="-197"/>
      <point x="365" y="-144"/>
      <point x="337" y="-98" type="qcurve"/>
      <point x="351" y="-86" type="line"/>
      <point x="380" y="-130"/>
      <point x="463" y="-178"/>
      <point x="512" y="-178" type="qcurve" smooth="yes"/>
      <point x="663" y="-178"/>
      <point x="663" y="2" type="qcurve" smooth="yes"/>
      <point x="663" y="700" type="line"/>
      <point x="683" y="700" type="line"/>
      <point x="683" y="0" type="line" smooth="yes"/>
      <point x="683" y="-98"/>
      <point x="597" y="-197"/>
    </contour>
  </outline>
</glyph>
<glyph name="Uogonek" format="2">
  <advance width="794"/>
  <unicode hex="0172"/>
  <outline>
    <contour>
      <point x="647" y="700" type="line"/>
      <point x="667" y="700" type="line"/>
      <point x="667" y="293" type="line" smooth="yes"/>
      <point x="667" y="172"/>
      <point x="574" y="35"/>
      <point x="490" y="8" type="qcurve" smooth="yes"/>
      <point x="423" y="-14"/>
      <point x="356" y="-64"/>
      <point x="334" y="-111"/>
      <point x="334" y="-130" type="qcurve" smooth="yes"/>
      <point x="334" y="-162"/>
      <point x="375" y="-194"/>
      <point x="406" y="-194" type="qcurve" smooth="yes"/>
      <point x="423" y="-194"/>
      <point x="456" y="-182"/>
      <point x="468" y="-171" type="qcurve"/>
      <point x="479" y="-186" type="line"/>
      <point x="463" y="-200"/>
      <point x="426" y="-213"/>
      <point x="405" y="-213" type="qcurve" smooth="yes"/>
      <point x="366" y="-213"/>
      <point x="314" y="-169"/>
      <point x="314" y="-130" type="qcurve" smooth="yes"/>
      <point x="314" y="-109"/>
      <point x="335" y="-60"/>
      <point x="394" y="-8"/>
      <point x="451" y="14" type="qcurve"/>
      <point x="435" y="-1" type="line"/>
      <point x="426" y="-2"/>
      <point x="406" y="-3"/>
      <point x="397" y="-3" type="qcurve" smooth="yes"/>
      <point x="272" y="-3"/>
      <point x="127" y="145"/>
      <point x="127" y="293" type="qcurve" smooth="yes"/>
      <point x="127" y="700" type="line"/>
      <point x="147" y="700" type="line"/>
      <point x="147" y="294" type="line" smooth="yes"/>
      <point x="147" y="154"/>
      <point x="278" y="16"/>
      <point x="397" y="16" type="qcurve" smooth="yes"/>
      <point x="516" y="16"/>
      <point x="647" y="154"/>
      <point x="647" y="294" type="qcurve" smooth="yes"/>
    </contour>
  </outline>
</glyph>
<glyph name="Ohorn" format="2">
  <advance width="836"/>
  <unicode hex="01A0"/>
  <anchor x="427" y="700" name="t.uni0308"/>
  <anchor x="427" y="0" name="b.uni0324_3"/>
  <outline>
    <contour>
      <point x="418" y="-3" type="qcurve" smooth="yes"/>
      <point x="341" y="-3"/>
      <point x="210" y="50"/>
      <point x="113" y="146"/>
      <point x="59" y="274"/>
      <point x="59" y="350" type="qcurve" smooth="yes"/>
      <point x="59" y="426"/>
      <point x="113" y="554"/>
      <point x="210" y="650"/>
      <point x="341" y="703"/>
      <point x="418" y="703" type="qcurve" smooth="yes"/>
      <point x="483" y="703"/>
      <point x="578" y="688"/>
      <point x="627" y="688" type="qcurve" smooth="yes"/>
      <point x="683" y="688"/>
      <point x="737" y="729"/>
      <point x="737" y="770" type="qcurve" smooth="yes"/>
      <point x="737" y="790"/>
      <point x="725" y="823"/>
      <point x="717" y="837" type="qcurve"/>
      <point x="735" y="845" type="line"/>
      <point x="745" y="830"/>
      <point x="757" y="791"/>
      <point x="757" y="771" type="qcurve" smooth="yes"/>
      <point x="757" y="720"/>
      <point x="692" y="669"/>
      <point x="627" y="669" type="qcurve" smooth="yes"/>
      <point x="611" y="669"/>
      <point x="557" y="673"/>
      <point x="535" y="677" type="qcurve"/>
      <point x="548" y="680" type="line"/>
      <point x="618" y="656"/>
      <point x="721" y="558"/>
      <point x="777" y="426"/>
      <point x="777" y="350" type="qcurve" smooth="yes"/>
      <point x="777" y="274"/>
      <point x="723" y="146"/>
      <point x="626" y="50"/>
      <point x="495" y="-3"/>
    </contour>
    <contour>
      <point x="418" y="16" type="qcurve" smooth="yes"/>
      <point x="490" y="16"/>
      <point x="614" y="67"/>
      <point x="706" y="158"/>
      <point x="757" y="279"/>
      <point x="757" y="350" type="qcurve" smooth="yes"/>
      <point x="757" y="421"/>
      <point x="706" y="542"/>
      <point x="614" y="633"/>
      <point x="490" y="684"/>
      <point x="418" y="684" type="qcurve" smooth="yes"/>
      <point x="346" y="684"/>
      <point x="222" y="633"/>
      <point x="130" y="542"/>
      <point x="79" y="421"/>
      <point x="79" y="350" type="qcurve" smooth="yes"/>
      <point x="79" y="279"/>
      <point x="130" y="158"/>
      <point x="222" y="67"/>
      <point x="346" y="16"/>
    </contour>
  </outline>
</glyph>
<glyph name="ohorn" format="2">
  <advance width="610"/>
  <unicode hex="01A1"/>
  <anchor x="354" y="562" name="t.uni0308"/>
  <anchor x="354" y="0" name="b.uni0324_3"/>
  <outline>
    <contour>
      <point x="305" y="-3" type="qcurve" smooth="yes"/>
      <point x="233" y="-3"/>
      <point x="120" y="64"/>
      <point x="54" y="183"/>
      <point x="54" y="259" type="qcurve" smooth="yes"/>
      <point x="54" y="336"/>
      <point x="120" y="453"/>
      <point x="233" y="520"/>
      <point x="305" y="520" type="qcurve" smooth="yes"/>
      <point x="333" y="520"/>
      <point x="370" y="518"/>
      <point x="408" y="515"/>
      <point x="435" y="515" type="qcurve" smooth="yes"/>
      <point x="482" y="515"/>
      <point x="526" y="560"/>
      <point x="526" y="588" type="qcurve" smooth="yes"/>
      <point x="526" y="608"/>
      <point x="514" y="641"/>
      <point x="506" y="655" type="qcurve"/>
      <point x="524" y="663" type="line"/>
      <point x="534" y="648"/>
      <point x="546" y="609"/>
      <point x="546" y="589" type="qcurve" smooth="yes"/>
      <point x="546" y="565"/>
      <point x="522" y="522"/>
      <point x="474" y="496"/>
      <point x="436" y="496" type="qcurve" smooth="yes"/>
      <point x="429" y="496"/>
      <point x="413" y="497"/>
      <point x="399" y="498" type="qcurve"/>
      <point x="390" y="506" type="line"/>
      <point x="464" y="481"/>
      <point x="556" y="350"/>
      <point x="556" y="259" type="qcurve" smooth="yes"/>
      <point x="556" y="183"/>
      <point x="491" y="64"/>
      <point x="377" y="-3"/>
    </contour>
    <contour>
      <point x="305" y="16" type="qcurve" smooth="yes"/>
      <point x="371" y="16"/>
      <point x="476" y="78"/>
      <point x="536" y="188"/>
      <point x="536" y="259" type="qcurve" smooth="yes"/>
      <point x="536" y="331"/>
      <point x="476" y="440"/>
      <point x="371" y="501"/>
      <point x="305" y="501" type="qcurve" smooth="yes"/>
      <point x="239" y="501"/>
      <point x="135" y="440"/>
      <point x="74" y="331"/>
      <point x="74" y="259" type="qcurve" smooth="yes"/>
      <point x="74" y="188"/>
      <point x="135" y="78"/>
      <point x="239" y="16"/>
    </contour>
  </outline>
</glyph>
<glyph name="uni01EA" format="2">
  <advance width="836"/>
  <unicode hex="01EA"/>
  <anchor x="427" y="700" name="t.uni0308"/>
  <outline>
    <contour>
      <point x="413" y="-213" type="qcurve" smooth="yes"/>
      <point x="374" y="-213"/>
      <point x="322" y="-169"/>
      <point x="322" y="-130" type="qcurve" smooth="yes"/>
      <point x="322" y="-109"/>
      <point x="344" y="-60"/>
      <point x="404" y="-8"/>
      <point x="459" y="16" type="qcurve"/>
      <point x="441" y="-1" type="line"/>
      <point x="435" y="-2"/>
      <point x="424" y="-3"/>
      <point x="418" y="-3" type="qcurve" smooth="yes"/>
      <point x="341" y="-3"/>
      <point x="210" y="50"/>
      <point x="113" y="146"/>
      <point x="59" y="274"/>
      <point x="59" y="350" type="qcurve" smooth="yes"/>
      <point x="59" y="426"/>
      <point x="113" y="554"/>
      <point x="210" y="650"/>
      <point x="341" y="703"/>
      <point x="418" y="703" type="qcurve" smooth="yes"/>
      <point x="495" y="703"/>
      <point x="626" y="650"/>
      <point x="723" y="554"/>
      <point x="777" y="426"/>
      <point x="777" y="350" type="qcurve" smooth="yes"/>
      <point x="777" y="258"/>
      <point x="701" y="113"/>
      <point x="576" y="21"/>
      <point x="500" y="6" type="qcurve" smooth="yes"/>
      <point x="459" y="-2"/>
      <point x="387" y="-42"/>
      <point x="342" y="-97"/>
      <point x="342" y="-130" type="qcurve" smooth="yes"/>
      <point x="342" y="-162"/>
      <point x="383" y="-194"/>
      <point x="414" y="-194" type="qcurve" smooth="yes"/>
      <point x="431" y="-194"/>
      <point x="464" y="-182"/>
      <point x="476" y="-171" type="qcurve"/>
      <point x="487" y="-186" type="line"/>
      <point x="471" y="-200"/>
      <point x="434" y="-213"/>
    </contour>
    <contour>
      <point x="418" y="16" type="qcurve" smooth="yes"/>
      <point x="490" y="16"/>
      <point x="614" y="66"/>
      <point x="706" y="157"/>
      <point x="757" y="278"/>
      <point x="757" y="350" type="qcurve" smooth="yes"/>
      <point x="757" y="422"/>
      <point x="706" y="543"/>
      <point x="614" y="634"/>
      <point x="490" y="684"/>
      <point x="418" y="684" type="qcurve" smooth="yes"/>
      <point x="346" y="684"/>
      <point x="222" y="634"/>
      <point x="130" y="543"/>
      <point x="79" y="422"/>
      <point x="79" y="350" type="qcurve" smooth="yes"/>
      <point x="79" y="278"/>
      <point x="130" y="157"/>
      <point x="222" y="66"/>
      <point x="346" y="16"/>
    </contour>
  </outline>
</glyph>
<glyph name="uni0237" format="2">
  <advance width="255"/>
  <unicode hex="0237"/>
  <anchor x="188" y="562" name="t.uni0308"/>
  <outline>
    <contour>
      <point x="18" y="-197" type="qcurve" smooth="yes"/>
      <point x="-12" y="-197"/>
      <point x="-68" y="-179"/>
      <point x="-86" y="-160" type="qcurve"/>
      <point x="-72" y="-146" type="line"/>
      <point x="-38" y="-178"/>
      <point x="17" y="-178" type="qcurve" smooth="yes"/>
      <point x="67" y="-178"/>
      <point x="120" y="-120"/>
      <point x="120" y="-65" type="qcurve" smooth="yes"/>
      <point x="120" y="517" type="line"/>
      <point x="140" y="517" type="line"/>
      <point x="140" y="-70" type="line" smooth="yes"/>
      <point x="140" y="-127"/>
      <point x="77" y="-197"/>
    </contour>
  </outline>
</glyph>
<glyph name="uni0259" format="2">
  <advance width="587"/>
  <unicode hex="0259"/>
  <anchor x="341" y="562" name="t.uni0308"/>
  <anchor x="341" y="0" name="b.uni0324_3"/>
  <anchor x="99" y="562" name="m.uni0328_4"/>
  <outline>
    <contour>
      <point x="275" y="520" type="qcurve" smooth="yes"/>
      <point x="350" y="520"/>
      <point x="466" y="453"/>
      <point x="533" y="335"/>
      <point x="533" y="258" type="qcurve" smooth="yes"/>
      <point x="533" y="182"/>
      <point x="471" y="64"/>
      <point x="363" y="-3"/>
      <point x="294" y="-3" type="qcurve" smooth="yes"/>
      <point x="226" y="-3"/>
      <point x="117" y="63"/>
      <point x="54" y="178"/>
      <point x="54" y="253" type="qcurve" smooth="yes"/>
      <point x="54" y="255"/>
      <point x="54" y="257"/>
      <point x="54" y="258" type="qcurve"/>
      <point x="522" y="258" type="line"/>
      <point x="522" y="239" type="line"/>
      <point x="65" y="239" type="line"/>
      <point x="73" y="254" type="line"/>
      <point x="73" y="186"/>
      <point x="131" y="78"/>
      <point x="231" y="16"/>
      <point x="294" y="16" type="qcurve" smooth="yes"/>
      <point x="358" y="16"/>
      <point x="457" y="78"/>
      <point x="514" y="186"/>
      <point x="514" y="254" type="qcurve" smooth="yes"/>
      <point x="514" y="258" type="line" smooth="yes"/>
      <point x="514" y="330"/>
      <point x="452" y="439"/>
      <point x="344" y="501"/>
      <point x="275" y="501" type="qcurve" smooth="yes"/>
      <point x="223" y="501"/>
      <point x="130" y="462"/>
      <point x="99" y="421" type="qcurve"/>
      <point x="85" y="435" type="line"/>
      <point x="120" y="477"/>
      <point x="220" y="520"/>
    </contour>
  </outline>
</glyph>
<glyph name="uni02BF" format="2">
  <advance width="600"/>
  <unicode hex="02BF"/>
  <outline>
    <contour>
      <point x="299" y="597" type="line"/>
      <point x="272" y="597"/>
      <point x="231" y="622"/>
      <point x="207" y="663"/>
      <point x="207" y="687" type="qcurve" smooth="yes"/>
      <point x="207" y="712"/>
      <point x="231" y="754"/>
      <point x="273" y="780"/>
      <point x="299" y="780" type="qcurve"/>
      <point x="299" y="761" type="line"/>
      <point x="268" y="761"/>
      <point x="227" y="718"/>
      <point x="227" y="687" type="qcurve" smooth="yes"/>
      <point x="227" y="657"/>
      <point x="267" y="616"/>
      <point x="299" y="616" type="qcurve"/>
    </contour>
  </outline>
</glyph>
<glyph name="uni02C8" format="2">
  <advance width="154"/>
  <unicode hex="02C8"/>
  <outline>
    <contour>
      <point x="67" y="519" type="line"/>
      <point x="67" y="699" type="line"/>
      <point x="87" y="699" type="line"/>
      <point x="87" y="519" type="line"/>
    </contour>
  </outline>
</glyph>
<glyph name="uni02CB" format="2">
  <advance width="600"/>
  <unicode hex="02CB"/>
  <outline>
    <contour>
      <point x="315" y="607" type="line"/>
      <point x="165" y="717" type="line"/>
      <point x="205" y="717" type="line"/>
      <point x="345" y="607" type="line"/>
    </contour>
  </outline>
</glyph>
<glyph name="uni02CC" format="2">
  <advance width="154"/>
  <unicode hex="02CC"/>
  <outline>
    <contour>
      <point x="67" y="-210" type="line"/>
      <point x="67" y="-30" type="line"/>
      <point x="87" y="-30" type="line"/>
      <point x="87" y="-210" type="line"/>
    </contour>
  </outline>
</glyph>
<glyph name="uni0302" format="2">
  <unicode hex="0302"/>
  <anchor x="300" y="562" name="_t.uni0308"/>
  <anchor x="300" y="562" name="_t.uni0308_2"/>
  <anchor x="300" y="562" name="_m.uni0308"/>
  <anchor x="300" y="799" name="m.uni0308"/>
  <outline>
    <contour>
      <point x="162" y="607" type="line"/>
      <point x="284" y="717" type="line"/>
      <point x="316" y="717" type="line"/>
      <point x="438" y="607" type="line"/>
      <point x="411" y="607" type="line"/>
      <point x="297" y="703" type="line"/>
      <point x="303" y="703" type="line"/>
      <point x="189" y="607" type="line"/>
    </contour>
  </outline>
</glyph>
<glyph name="uni0304" format="2">
  <unicode hex="0304"/>
  <anchor x="300" y="562" name="_t.uni0308"/>
  <anchor x="300" y="562" name="_t.uni0308_2"/>
  <anchor x="300" y="562" name="_m.uni0308"/>
  <anchor x="300" y="779" name="m.uni0308"/>
  <outline>
    <contour>
      <point x="164" y="652" type="line"/>
      <point x="164" y="669" type="line"/>
      <point x="436" y="669" type="line"/>
      <point x="436" y="652" type="line"/>
    </contour>
  </outline>
</glyph>
<glyph name="uni0306" format="2">
  <unicode hex="0306"/>
  <anchor x="300" y="562" name="_t.uni0308"/>
  <anchor x="300" y="562" name="_t.uni0308_2"/>
  <anchor x="300" y="562" name="_m.uni0308"/>
  <anchor x="300" y="799" name="m.uni0308"/>
  <outline>
    <contour>
      <point x="300" y="604" type="qcurve" smooth="yes"/>
      <point x="246" y="604"/>
      <point x="170" y="665"/>
      <point x="168" y="717" type="qcurve"/>
      <point x="187" y="717" type="line"/>
      <point x="189" y="674"/>
      <point x="254" y="623"/>
      <point x="300" y="623" type="qcurve" smooth="yes"/>
      <point x="347" y="623"/>
      <point x="412" y="674"/>
      <point x="413" y="717" type="qcurve"/>
      <point x="432" y="717" type="line"/>
      <point x="431" y="665"/>
      <point x="354" y="604"/>
    </contour>
  </outline>
</glyph>
<glyph name="uni0307" format="2">
  <unicode hex="0307"/>
  <anchor x="300" y="562" name="_t.uni0308"/>
  <anchor x="300" y="729" name="_t.uni0307_1"/>
  <anchor x="300" y="562" name="_t.uni0308_2"/>
  <anchor x="300" y="562" name="_m.uni0308"/>
  <anchor x="300" y="883" name="m.uni0308"/>
  <outline>
    <contour>
      <point x="300" y="641" type="qcurve" smooth="yes"/>
      <point x="290" y="641"/>
      <point x="274" y="657"/>
      <point x="274" y="667" type="qcurve" smooth="yes"/>
      <point x="274" y="678"/>
      <point x="290" y="693"/>
      <point x="300" y="693" type="qcurve" smooth="yes"/>
      <point x="311" y="693"/>
      <point x="326" y="678"/>
      <point x="326" y="667" type="qcurve" smooth="yes"/>
      <point x="326" y="657"/>
      <point x="311" y="641"/>
    </contour>
  </outline>
</glyph>
<glyph name="hookabovecomb" format="2">
  <unicode hex="0309"/>
  <anchor x="300" y="562" name="_t.uni0308"/>
  <anchor x="300" y="562" name="_t.uni0308_2"/>
  <anchor x="300" y="562" name="_m.uni0308"/>
  <anchor x="300" y="879" name="m.uni0308"/>
  <outline>
    <contour>
      <point x="302" y="603" type="qcurve"/>
      <point x="292" y="619" type="line"/>
      <point x="323" y="633"/>
      <point x="355" y="671"/>
      <point x="355" y="696" type="qcurve" smooth="yes"/>
      <point x="355" y="719"/>
      <point x="323" y="750"/>
      <point x="297" y="750" type="qcurve" smooth="yes"/>
      <point x="264" y="750"/>
      <point x="235" y="731" type="qcurve"/>
      <point x="227" y="748" type="line"/>
      <point x="241" y="758"/>
      <point x="279" y="769"/>
      <point x="296" y="769" type="qcurve" smooth="yes"/>
      <point x="332" y="769"/>
      <point x="375" y="730"/>
      <point x="375" y="697" type="qcurve" smooth="yes"/>
      <point x="375" y="667"/>
      <point x="340" y="621"/>
    </contour>
  </outline>
</glyph>
<glyph name="uni030B" format="2">
  <unicode hex="030B"/>
  <anchor x="300" y="562" name="_t.uni0308"/>
  <anchor x="300" y="562" name="_t.uni0308_2"/>
  <anchor x="300" y="562" name="_m.uni0308"/>
  <anchor x="300" y="809" name="m.uni0308"/>
  <outline>
    <contour>
      <point x="356" y="607" type="line"/>
      <point x="467" y="717" type="line"/>
      <point x="501" y="717" type="line"/>
      <point x="383" y="607" type="line"/>
    </contour>
    <contour>
      <point x="217" y="607" type="line"/>
      <point x="328" y="717" type="line"/>
      <point x="362" y="717" type="line"/>
      <point x="244" y="607" type="line"/>
    </contour>
  </outline>
</glyph>
<glyph name="uni030C" format="2">
  <unicode hex="030C"/>
  <anchor x="300" y="562" name="_t.uni0308"/>
  <anchor x="300" y="562" name="_t.uni0308_2"/>
  <anchor x="300" y="562" name="_m.uni0308"/>
  <anchor x="300" y="799" name="m.uni0308"/>
  <outline>
    <contour>
      <point x="284" y="607" type="line"/>
      <point x="162" y="717" type="line"/>
      <point x="189" y="717" type="line"/>
      <point x="303" y="621" type="line"/>
      <point x="297" y="621" type="line"/>
      <point x="411" y="717" type="line"/>
      <point x="438" y="717" type="line"/>
      <point x="316" y="607" type="line"/>
    </contour>
  </outline>
</glyph>
<glyph name="uni030F" format="2">
  <unicode hex="030F"/>
  <anchor x="300" y="562" name="_t.uni0308"/>
  <anchor x="300" y="562" name="_t.uni0308_2"/>
  <anchor x="300" y="562" name="_m.uni0308"/>
  <anchor x="300" y="809" name="m.uni0308"/>
  <outline>
    <contour>
      <point x="356" y="607" type="line"/>
      <point x="238" y="717" type="line"/>
      <point x="272" y="717" type="line"/>
      <point x="383" y="607" type="line"/>
    </contour>
    <contour>
      <point x="217" y="607" type="line"/>
      <point x="99" y="717" type="line"/>
      <point x="133" y="717" type="line"/>
      <point x="244" y="607" type="line"/>
    </contour>
  </outline>
</glyph>
<glyph name="uni0311" format="2">
  <unicode hex="0311"/>
  <anchor x="300" y="562" name="_t.uni0308"/>
  <anchor x="300" y="562" name="_t.uni0308_2"/>
  <anchor x="300" y="562" name="_m.uni0308"/>
  <anchor x="300" y="799" name="m.uni0308"/>
  <outline>
    <contour>
      <point x="168" y="607" type="line"/>
      <point x="170" y="660"/>
      <point x="246" y="720"/>
      <point x="300" y="720" type="qcurve" smooth="yes"/>
      <point x="354" y="720"/>
      <point x="431" y="660"/>
      <point x="432" y="607" type="qcurve"/>
      <point x="413" y="607" type="line"/>
      <point x="412" y="651"/>
      <point x="347" y="701"/>
      <point x="300" y="701" type="qcurve" smooth="yes"/>
      <point x="254" y="701"/>
      <point x="189" y="651"/>
      <point x="187" y="607" type="qcurve"/>
    </contour>
  </outline>
</glyph>
<glyph name="uni031B" format="2">
  <unicode hex="031B"/>
  <anchor x="300" y="562" name="_t.uni031B_2"/>
  <outline>
    <contour>
      <point x="290" y="498" type="line"/>
      <point x="290" y="517" type="line"/>
      <point x="300" y="517" type="line" smooth="yes"/>
      <point x="339" y="517"/>
      <point x="370" y="559"/>
      <point x="370" y="587" type="qcurve" smooth="yes"/>
      <point x="370" y="607"/>
      <point x="358" y="640"/>
      <point x="350" y="654" type="qcurve"/>
      <point x="368" y="662" type="line"/>
      <point x="378" y="647"/>
      <point x="390" y="608"/>
      <point x="390" y="588" type="qcurve" smooth="yes"/>
      <point x="390" y="551"/>
      <point x="349" y="498"/>
      <point x="300" y="498" type="qcurve" smooth="yes"/>
    </contour>
  </outline>
</glyph>
<glyph name="dotbelowcomb" format="2">
  <unicode hex="0323"/>
  <anchor x="300" y="-229" name="t.uni0324"/>
  <outline>
    <contour>
      <point x="300" y="-176" type="qcurve" smooth="yes"/>
      <point x="290" y="-176"/>
      <point x="274" y="-160"/>
      <point x="274" y="-150" type="qcurve" smooth="yes"/>
      <point x="274" y="-139"/>
      <point x="290" y="-124"/>
      <point x="300" y="-124" type="qcurve" smooth="yes"/>
      <point x="311" y="-124"/>
      <point x="326" y="-139"/>
      <point x="326" y="-150" type="qcurve" smooth="yes"/>
      <point x="326" y="-160"/>
      <point x="311" y="-176"/>
    </contour>
  </outline>
</glyph>
<glyph name="uni0327" format="2">
  <unicode hex="0327"/>
  <outline>
    <contour>
      <point x="284" y="-213" type="qcurve" smooth="yes"/>
      <point x="263" y="-213"/>
      <point x="227" y="-200"/>
      <point x="210" y="-186" type="qcurve"/>
      <point x="221" y="-171" type="line"/>
      <point x="233" y="-182"/>
      <point x="266" y="-194"/>
      <point x="283" y="-194" type="qcurve" smooth="yes"/>
      <point x="314" y="-194"/>
      <point x="355" y="-163"/>
      <point x="355" y="-134" type="qcurve" smooth="yes"/>
      <point x="355" y="-108"/>
      <point x="318" y="-74"/>
      <point x="284" y="-74" type="qcurve" smooth="yes"/>
      <point x="268" y="-74" type="line"/>
      <point x="290" y="5" type="line"/>
      <point x="309" y="5" type="line"/>
      <point x="292" y="-56" type="line"/>
      <point x="330" y="-58"/>
      <point x="375" y="-100"/>
      <point x="375" y="-134" type="qcurve" smooth="yes"/>
      <point x="375" y="-170"/>
      <point x="323" y="-213"/>
    </contour>
  </outline>
</glyph>
<glyph name="uni0331" format="2">
  <unicode hex="0331"/>
  <anchor x="300" y="-204" name="t.uni0324"/>
  <outline>
    <contour>
      <point x="164" y="-160" type="line"/>
      <point x="164" y="-140" type="line"/>
      <point x="436" y="-140" type="line"/>
      <point x="436" y="-160" type="line"/>
    </contour>
  </outline>
</glyph>
<glyph name="uni0335" format="2">
  <unicode hex="0335"/>
  <anchor x="300" y="429" name="_t.uni0307_1"/>
  <outline>
    <contour>
      <point x="111" y="432" type="line"/>
      <point x="111" y="451" type="line"/>
      <point x="489" y="451" type="line"/>
      <point x="489" y="432" type="line"/>
    </contour>
  </outline>
</glyph>
<glyph name="uni0336" format="2">
  <unicode hex="0336"/>
  <anchor x="544" y="429" name="_t.uni0307_1"/>
  <outline>
    <contour>
      <point x="12" y="432" type="line"/>
      <point x="12" y="451" type="line"/>
      <point x="788" y="451" type="line"/>
      <point x="788" y="432" type="line"/>
    </contour>
  </outline>
</glyph>
<glyph name="uni0337" format="2">
  <unicode hex="0337"/>
  <anchor x="364" y="412" name="_t.uni0307_1"/>
  <outline>
    <contour>
      <point x="62" y="299" type="line"/>
      <point x="51" y="313" type="line"/>
      <point x="244" y="455" type="line"/>
      <point x="255" y="441" type="line"/>
    </contour>
  </outline>
</glyph>
<glyph name="uni0338" format="2">
  <unicode hex="0338"/>
  <anchor x="337" y="282" name="_t.uni0307_1"/>
  <outline>
    <contour>
      <point x="68" y="-70" type="line"/>
      <point x="514" y="587" type="line"/>
      <point x="537" y="587" type="line"/>
      <point x="91" y="-70" type="line"/>
    </contour>
  </outline>
</glyph>
<glyph name="Sigma" format="2">
  <advance width="703"/>
  <unicode hex="03A3"/>
  <anchor x="475" y="700" name="t.uni0308"/>
  <anchor x="475" y="0" name="b.uni0324_3"/>
  <outline>
    <contour>
      <point x="640" y="-1" type="line"/>
      <point x="64" y="-1" type="line"/>
      <point x="64" y="16" type="line"/>
      <point x="413" y="355" type="line"/>
      <point x="413" y="346" type="line"/>
      <point x="64" y="684" type="line"/>
      <point x="64" y="701" type="line"/>
      <point x="640" y="701" type="line"/>
      <point x="640" y="681" type="line"/>
      <point x="93" y="681" type="line"/>
      <point x="93" y="689" type="line"/>
      <point x="432" y="356" type="line"/>
      <point x="432" y="344" type="line"/>
      <point x="93" y="10" type="line"/>
      <point x="93" y="19" type="line"/>
      <point x="640" y="19" type="line"/>
    </contour>
  </outline>
</glyph>
<glyph name="alphatonos" format="2">
  <advance width="542"/>
  <unicode hex="03AC"/>
  <anchor x="322" y="562" name="t.uni0308"/>
  <anchor x="322" y="0" name="b.uni0324_3"/>
  <anchor x="626" y="0" name="m.uni0328_4"/>
  <outline>
    <contour>
      <point x="266" y="-3" type="qcurve" smooth="yes"/>
      <point x="195" y="-3"/>
      <point x="81" y="64"/>
      <point x="15" y="183"/>
      <point x="15" y="259" type="qcurve" smooth="yes"/>
      <point x="15" y="336"/>
      <point x="81" y="453"/>
      <point x="195" y="520"/>
      <point x="266" y="520" type="qcurve" smooth="yes"/>
      <point x="337" y="520"/>
      <point x="449" y="453"/>
      <point x="514" y="336"/>
      <point x="514" y="259" type="qcurve" smooth="yes"/>
      <point x="514" y="183"/>
      <point x="449" y="64"/>
      <point x="337" y="-3"/>
    </contour>
    <contour>
      <point x="266" y="16" type="qcurve" smooth="yes"/>
      <point x="332" y="16"/>
      <point x="437" y="78"/>
      <point x="497" y="188"/>
      <point x="497" y="259" type="qcurve" smooth="yes"/>
      <point x="497" y="331"/>
      <point x="437" y="440"/>
      <point x="332" y="501"/>
      <point x="266" y="501" type="qcurve" smooth="yes"/>
      <point x="200" y="501"/>
      <point x="96" y="440"/>
      <point x="35" y="331"/>
      <point x="35" y="259" type="qcurve" smooth="yes"/>
      <point x="35" y="188"/>
      <point x="96" y="78"/>
      <point x="200" y="16"/>
    </contour>
    <contour>
      <point x="497" y="0" type="line"/>
      <point x="497" y="190" type="line"/>
      <point x="507" y="260" type="line"/>
      <point x="497" y="330" type="line"/>
      <point x="497" y="517" type="line"/>
      <point x="517" y="517" type="line"/>
      <point x="517" y="0" type="line"/>
    </contour>
    <contour>
      <point x="317" y="607" type="line"/>
      <point x="354" y="717" type="line"/>
      <point x="384" y="717" type="line"/>
      <point x="337" y="607" type="line"/>
    </contour>
  </outline>
</glyph>
<glyph name="epsilontonos" format="2">
  <advance width="467"/>
  <unicode hex="03AD"/>
  <anchor x="309" y="593" name="t.uni0308"/>
  <anchor x="309" y="0" name="b.uni0324_3"/>
  <anchor x="564" y="0" name="m.uni0328_4"/>
  <outline>
    <contour>
      <point x="447" y="72" type="line"/>
      <point x="415" y="37"/>
      <point x="302" y="-3"/>
      <point x="231" y="-3" type="qcurve" smooth="yes"/>
      <point x="126" y="-3"/>
      <point x="20" y="83"/>
      <point x="20" y="147" type="qcurve" smooth="yes"/>
      <point x="20" y="177"/>
      <point x="69" y="241"/>
      <point x="154" y="273"/>
      <point x="207" y="273" type="qcurve"/>
      <point x="210" y="261" type="line"/>
      <point x="158" y="261"/>
      <point x="83" y="295"/>
      <point x="44" y="350"/>
      <point x="44" y="392" type="qcurve" smooth="yes"/>
      <point x="44" y="416"/>
      <point x="89" y="482"/>
      <point x="178" y="522"/>
      <point x="243" y="522" type="qcurve" smooth="yes"/>
      <point x="293" y="522"/>
      <point x="387" y="497"/>
      <point x="420" y="474" type="qcurve"/>
      <point x="411" y="458" type="line"/>
      <point x="375" y="480"/>
      <point x="291" y="503"/>
      <point x="244" y="503" type="qcurve" smooth="yes"/>
      <point x="154" y="503"/>
      <point x="64" y="429"/>
      <point x="64" y="391" type="qcurve" smooth="yes"/>
      <point x="64" y="333"/>
      <point x="145" y="276"/>
      <point x="216" y="276" type="qcurve" smooth="yes"/>
      <point x="349" y="276" type="line"/>
      <point x="349" y="258" type="line"/>
      <point x="216" y="258" type="line" smooth="yes"/>
      <point x="139" y="258"/>
      <point x="40" y="197"/>
      <point x="40" y="149" type="qcurve" smooth="yes"/>
      <point x="40" y="90"/>
      <point x="135" y="16"/>
      <point x="232" y="16" type="qcurve" smooth="yes"/>
      <point x="276" y="16"/>
      <point x="352" y="33"/>
      <point x="414" y="65"/>
      <point x="434" y="87" type="qcurve"/>
    </contour>
    <contour>
      <point x="255" y="607" type="line"/>
      <point x="292" y="717" type="line"/>
      <point x="322" y="717" type="line"/>
      <point x="275" y="607" type="line"/>
    </contour>
  </outline>
</glyph>
<glyph name="beta" format="2">
  <advance width="705"/>
  <unicode hex="03B2"/>
  <outline>
    <contour>
      <point x="415" y="-3" type="qcurve" smooth="yes"/>
      <point x="377" y="-3"/>
      <point x="314" y="11"/>
      <point x="282" y="25" type="qcurve"/>
      <point x="290" y="44" type="line"/>
      <point x="319" y="30"/>
      <point x="384" y="16"/>
      <point x="421" y="16" type="qcurve" smooth="yes"/>
      <point x="511" y="16"/>
      <point x="620" y="106"/>
      <point x="620" y="193" type="qcurve" smooth="yes"/>
      <point x="620" y="281"/>
      <point x="509" y="369"/>
      <point x="417" y="369" type="qcurve" smooth="yes"/>
      <point x="393" y="369"/>
      <point x="346" y="363"/>
      <point x="326" y="357" type="qcurve"/>
      <point x="319" y="373" type="line"/>
      <point x="569" y="630" type="line"/>
      <point x="566" y="618" type="line"/>
      <point x="527" y="653"/>
      <point x="423" y="684"/>
      <point x="367" y="684" type="qcurve" smooth="yes"/>
      <point x="242" y="684"/>
      <point x="110" y="549"/>
      <point x="110" y="422" type="qcurve" smooth="yes"/>
      <point x="110" y="0" type="line"/>
      <point x="90" y="0" type="line"/>
      <point x="90" y="424" type="line" smooth="yes"/>
      <point x="90" y="511"/>
      <point x="155" y="636"/>
      <point x="278" y="703"/>
      <point x="365" y="703" type="qcurve" smooth="yes"/>
      <point x="406" y="703"/>
      <point x="483" y="687"/>
      <point x="551" y="656"/>
      <point x="579" y="631" type="qcurve"/>
      <point x="579" y="615" type="line"/>
      <point x="338" y="367" type="line"/>
      <point x="337" y="377" type="line"/>
      <point x="355" y="383"/>
      <point x="396" y="388"/>
      <point x="417" y="388" type="qcurve" smooth="yes"/>
      <point x="484" y="388"/>
      <point x="584" y="344"/>
      <point x="640" y="257"/>
      <point x="640" y="193" type="qcurve" smooth="yes"/>
      <point x="640" y="129"/>
      <point x="585" y="42"/>
      <point x="484" y="-3"/>
    </contour>
  </outline>
</glyph>
<glyph name="delta" format="2">
  <advance width="610"/>
  <unicode hex="03B4"/>
  <anchor x="350" y="562" name="t.uni0308"/>
  <anchor x="350" y="281" name="t.uni0307_1"/>
  <anchor x="418" y="561" name="t.uni031B_2"/>
  <anchor x="350" y="0" name="b.uni0324_3"/>
  <anchor x="490" y="0" name="m.uni0328_4"/>
  <outline>
    <contour>
      <point x="305" y="-3" type="qcurve" smooth="yes"/>
      <point x="233" y="-3"/>
      <point x="120" y="64"/>
      <point x="54" y="183"/>
      <point x="54" y="259" type="qcurve" smooth="yes"/>
      <point x="54" y="414"/>
      <point x="177" y="487" type="qcurve" smooth="yes"/>
      <point x="212" y="507"/>
      <point x="253" y="515" type="qcurve"/>
      <point x="223" y="522"/>
      <point x="197" y="535" type="qcurve"/>
      <point x="127" y="566"/>
      <point x="127" y="643" type="qcurve" smooth="yes"/>
      <point x="127" y="678"/>
      <point x="165" y="738"/>
      <point x="246" y="776"/>
      <point x="310" y="776" type="qcurve" smooth="yes"/>
      <point x="358" y="776"/>
      <point x="452" y="747"/>
      <point x="481" y="723" type="qcurve"/>
      <point x="469" y="707" type="line"/>
      <point x="438" y="732"/>
      <point x="354" y="757"/>
      <point x="310" y="757" type="qcurve" smooth="yes"/>
      <point x="225" y="757"/>
      <point x="148" y="691"/>
      <point x="148" y="643" type="qcurve" smooth="yes"/>
      <point x="148" y="605"/>
      <point x="186" y="560"/>
      <point x="284" y="524"/>
      <point x="344" y="517" type="qcurve" smooth="yes"/>
      <point x="393" y="511"/>
      <point x="434" y="487" type="qcurve" smooth="yes"/>
      <point x="491" y="453"/>
      <point x="556" y="336"/>
      <point x="556" y="259" type="qcurve" smooth="yes"/>
      <point x="556" y="183"/>
      <point x="491" y="64"/>
      <point x="377" y="-3"/>
    </contour>
    <contour>
      <point x="305" y="16" type="qcurve" smooth="yes"/>
      <point x="371" y="16"/>
      <point x="476" y="78"/>
      <point x="536" y="188"/>
      <point x="536" y="259" type="qcurve" smooth="yes"/>
      <point x="536" y="331"/>
      <point x="476" y="440"/>
      <point x="371" y="501"/>
      <point x="305" y="501" type="qcurve" smooth="yes"/>
      <point x="239" y="501"/>
      <point x="135" y="440"/>
      <point x="74" y="331"/>
      <point x="74" y="259" type="qcurve" smooth="yes"/>
      <point x="74" y="188"/>
      <point x="135" y="78"/>
      <point x="239" y="16"/>
    </contour>
  </outline>
</glyph>
<glyph name="uni03BC" format="2">
  <advance width="664"/>
  <unicode hex="03BC"/>
  <outline>
    <contour>
      <point x="115" y="-194" type="line"/>
      <point x="115" y="517" type="line"/>
      <point x="135" y="517" type="line"/>
      <point x="135" y="212" type="line" smooth="yes"/>
      <point x="135" y="116"/>
      <point x="235" y="16"/>
      <point x="326" y="16" type="qcurve" smooth="yes"/>
      <point x="391" y="16"/>
      <point x="485" y="71"/>
      <point x="535" y="171"/>
      <point x="535" y="236" type="qcurve" smooth="yes"/>
      <point x="535" y="517" type="line"/>
      <point x="555" y="517" type="line"/>
      <point x="555" y="0" type="line"/>
      <point x="535" y="0" type="line"/>
      <point x="535" y="152" type="line"/>
      <point x="540" y="152" type="line"/>
      <point x="526" y="103"/>
      <point x="466" y="33"/>
      <point x="381" y="-3"/>
      <point x="327" y="-3" type="qcurve" smooth="yes"/>
      <point x="256" y="-3"/>
      <point x="156" y="56"/>
      <point x="133" y="114" type="qcurve"/>
      <point x="135" y="135" type="line"/>
      <point x="135" y="-194" type="line"/>
    </contour>
  </outline>
</glyph>
<glyph name="xi" format="2">
  <advance width="511"/>
  <unicode hex="03BE"/>
  <anchor x="309" y="593" name="t.uni0308"/>
  <anchor x="309" y="0" name="b.uni0324_3"/>
  <anchor x="564" y="0" name="m.uni0328_4"/>
  <outline>
    <contour>
      <point x="291" y="391" type="qcurve"/>
      <point x="291" y="391"/>
      <point x="414" y="391" type="qcurve"/>
      <point x="414" y="371" type="line"/>
      <point x="291" y="371" type="line" smooth="yes"/>
      <point x="123" y="371"/>
      <point x="123" y="206" type="qcurve" smooth="yes"/>
      <point x="123" y="49"/>
      <point x="323" y="63" type="qcurve" smooth="yes"/>
      <point x="544" y="78"/>
      <point x="407" y="-139" type="qcurve"/>
      <point x="388" y="-139" type="line"/>
      <point x="509" y="57"/>
      <point x="338" y="46" type="qcurve" smooth="yes"/>
      <point x="104" y="31"/>
      <point x="105" y="381"/>
      <point x="252" y="382" type="qcurve"/>
      <point x="252" y="382" type="line"/>
      <point x="125" y="398"/>
      <point x="127" y="655"/>
      <point x="254" y="679" type="qcurve"/>
      <point x="20" y="679" type="line"/>
      <point x="20" y="697" type="line"/>
      <point x="458" y="697" type="line"/>
      <point x="458" y="676" type="line"/>
      <point x="146" y="700"/>
      <point x="146" y="531" type="qcurve" smooth="yes"/>
      <point x="146" y="400"/>
    </contour>
  </outline>
</glyph>
<glyph name="tau" format="2">
  <advance width="388"/>
  <unicode hex="03C4"/>
  <anchor x="212" y="574" name="t.uni0308"/>
  <anchor x="223" y="239" name="t.uni0307_1"/>
  <anchor x="393" y="627" name="t.uni031B_2"/>
  <anchor x="288" y="0" name="b.uni0324_3"/>
  <outline>
    <contour>
      <point x="248" y="-3" type="qcurve" smooth="yes"/>
      <point x="187" y="-3"/>
      <point x="123" y="67"/>
      <point x="123" y="124" type="qcurve" smooth="yes"/>
      <point x="123" y="513" type="line"/>
      <point x="143" y="513" type="line"/>
      <point x="143" y="129" type="line" smooth="yes"/>
      <point x="143" y="74"/>
      <point x="197" y="16"/>
      <point x="249" y="16" type="qcurve" smooth="yes"/>
      <point x="301" y="16"/>
      <point x="335" y="48" type="qcurve"/>
      <point x="349" y="34" type="line"/>
      <point x="331" y="15"/>
      <point x="276" y="-3"/>
    </contour>
    <contour>
      <point x="23" y="498" type="line"/>
      <point x="23" y="517" type="line"/>
      <point x="318" y="517" type="line"/>
      <point x="318" y="498" type="line"/>
    </contour>
  </outline>
</glyph>
<glyph name="phi" format="2">
  <advance width="654"/>
  <unicode hex="03C6"/>
  <outline>
    <contour>
      <point x="317" y="-200" type="line"/>
      <point x="317" y="517" type="line"/>
      <point x="337" y="517" type="line"/>
      <point x="337" y="-200" type="line"/>
    </contour>
    <contour>
      <point x="327" y="-3" type="qcurve" smooth="yes"/>
      <point x="262" y="-3"/>
      <point x="130" y="71"/>
      <point x="54" y="181"/>
      <point x="54" y="262" type="qcurve" smooth="yes"/>
      <point x="54" y="327"/>
      <point x="130" y="454"/>
      <point x="262" y="528"/>
      <point x="327" y="528" type="qcurve" smooth="yes"/>
      <point x="393" y="528"/>
      <point x="524" y="454"/>
      <point x="600" y="327"/>
      <point x="600" y="262" type="qcurve" smooth="yes"/>
      <point x="600" y="181"/>
      <point x="524" y="71"/>
      <point x="393" y="-3"/>
    </contour>
    <contour>
      <point x="327" y="17" type="qcurve" smooth="yes"/>
      <point x="387" y="17"/>
      <point x="509" y="86"/>
      <point x="580" y="187"/>
      <point x="580" y="262" type="qcurve" smooth="yes"/>
      <point x="580" y="321"/>
      <point x="509" y="440"/>
      <point x="387" y="509"/>
      <point x="327" y="509" type="qcurve" smooth="yes"/>
      <point x="268" y="509"/>
      <point x="145" y="440"/>
      <point x="74" y="321"/>
      <point x="74" y="262" type="qcurve" smooth="yes"/>
      <point x="74" y="187"/>
      <point x="145" y="86"/>
      <point x="268" y="17"/>
    </contour>
  </outline>
</glyph>
<glyph name="omega" format="2">
  <advance width="847"/>
  <unicode hex="03C9"/>
  <anchor x="446" y="593" name="t.uni0308"/>
  <anchor x="446" y="0" name="b.uni0324_3"/>
  <anchor x="701" y="0" name="m.uni0328_4"/>
  <outline>
    <contour>
      <point x="687" y="513" type="line"/>
      <point x="734" y="472"/>
      <point x="794" y="328"/>
      <point x="790" y="241" type="qcurve" smooth="yes"/>
      <point x="785" y="113"/>
      <point x="679" y="2"/>
      <point x="612" y="-4" type="qcurve" smooth="yes"/>
      <point x="548" y="-10"/>
      <point x="456" y="44"/>
      <point x="417" y="147"/>
      <point x="419" y="212" type="qcurve"/>
      <point x="435" y="214" type="line"/>
      <point x="433" y="150"/>
      <point x="395" y="57"/>
      <point x="312" y="4"/>
      <point x="254" y="1" type="qcurve" smooth="yes"/>
      <point x="210" y="-1"/>
      <point x="127" y="45"/>
      <point x="53" y="149"/>
      <point x="57" y="228" type="qcurve" smooth="yes"/>
      <point x="63" y="345"/>
      <point x="120" y="475"/>
      <point x="150" y="513" type="qcurve"/>
      <point x="174" y="504" type="line"/>
      <point x="88" y="377"/>
      <point x="80" y="134"/>
      <point x="190" y="23"/>
      <point x="243" y="23" type="qcurve"/>
      <point x="320" y="20"/>
      <point x="417" y="134"/>
      <point x="415" y="222" type="qcurve" smooth="yes"/>
      <point x="413" y="300" type="line"/>
      <point x="438" y="300" type="line"/>
      <point x="440" y="220" type="line" smooth="yes"/>
      <point x="442" y="125"/>
      <point x="518" y="14"/>
      <point x="607" y="20" type="qcurve" smooth="yes"/>
      <point x="679" y="25"/>
      <point x="762" y="134"/>
      <point x="774" y="377"/>
      <point x="667" y="498" type="qcurve"/>
    </contour>
  </outline>
</glyph>
<glyph name="iotadieresis" format="2">
  <advance width="446"/>
  <unicode hex="03CA"/>
  <anchor x="291" y="0" name="b.uni0324_3"/>
  <anchor x="449" y="0" name="m.uni0328_4"/>
  <anchor x="291" y="793" name="m.uni0308"/>
  <outline>
    <contour>
      <point x="305" y="614" type="qcurve" smooth="yes"/>
      <point x="295" y="614"/>
      <point x="279" y="630"/>
      <point x="279" y="640" type="qcurve" smooth="yes"/>
      <point x="279" y="651"/>
      <point x="295" y="666"/>
      <point x="305" y="666" type="qcurve" smooth="yes"/>
      <point x="316" y="666"/>
      <point x="331" y="651"/>
      <point x="331" y="640" type="qcurve" smooth="yes"/>
      <point x="331" y="630"/>
      <point x="316" y="614"/>
    </contour>
    <contour>
      <point x="141" y="614" type="qcurve" smooth="yes"/>
      <point x="131" y="614"/>
      <point x="115" y="630"/>
      <point x="115" y="640" type="qcurve" smooth="yes"/>
      <point x="115" y="651"/>
      <point x="131" y="666"/>
      <point x="141" y="666" type="qcurve" smooth="yes"/>
      <point x="152" y="666"/>
      <point x="167" y="651"/>
      <point x="167" y="640" type="qcurve" smooth="yes"/>
      <point x="167" y="630"/>
      <point x="152" y="614"/>
    </contour>
    <contour>
      <point x="219" y="0" type="line"/>
      <point x="219" y="517" type="line"/>
      <point x="239" y="517" type="line"/>
      <point x="239" y="0" type="line"/>
    </contour>
  </outline>
</glyph>
<glyph name="omicrontonos" format="2">
  <advance width="542"/>
  <unicode hex="03CC"/>
  <anchor x="326" y="562" name="t.uni0308"/>
  <anchor x="326" y="281" name="t.uni0307_1"/>
  <anchor x="394" y="561" name="t.uni031B_2"/>
  <anchor x="326" y="0" name="b.uni0324_3"/>
  <anchor x="466" y="0" name="m.uni0328_4"/>
  <outline>
    <contour>
      <point x="271" y="-3" type="qcurve" smooth="yes"/>
      <point x="199" y="-3"/>
      <point x="86" y="64"/>
      <point x="20" y="183"/>
      <point x="20" y="259" type="qcurve" smooth="yes"/>
      <point x="20" y="336"/>
      <point x="86" y="453"/>
      <point x="199" y="520"/>
      <point x="271" y="520" type="qcurve" smooth="yes"/>
      <point x="343" y="520"/>
      <point x="457" y="453"/>
      <point x="522" y="336"/>
      <point x="522" y="259" type="qcurve" smooth="yes"/>
      <point x="522" y="183"/>
      <point x="457" y="64"/>
      <point x="343" y="-3"/>
    </contour>
    <contour>
      <point x="271" y="16" type="qcurve" smooth="yes"/>
      <point x="337" y="16"/>
      <point x="442" y="78"/>
      <point x="502" y="188"/>
      <point x="502" y="259" type="qcurve" smooth="yes"/>
      <point x="502" y="331"/>
      <point x="442" y="440"/>
      <point x="337" y="501"/>
      <point x="271" y="501" type="qcurve" smooth="yes"/>
      <point x="205" y="501"/>
      <point x="101" y="440"/>
      <point x="40" y="331"/>
      <point x="40" y="259" type="qcurve" smooth="yes"/>
      <point x="40" y="188"/>
      <point x="101" y="78"/>
      <point x="205" y="16"/>
    </contour>
    <contour>
      <point x="265" y="607" type="line"/>
      <point x="302" y="717" type="line"/>
      <point x="332" y="717" type="line"/>
      <point x="285" y="607" type="line"/>
    </contour>
  </outline>
</glyph>
<glyph name="upsilontonos" format="2">
  <advance width="480"/>
  <unicode hex="03CD"/>
  <anchor x="259" y="593" name="t.uni0308"/>
  <anchor x="454" y="593" name="t.uni031B_2"/>
  <anchor x="259" y="0" name="b.uni0324_3"/>
  <anchor x="476" y="0" name="m.uni0328_4"/>
  <outline>
    <contour>
      <point x="240" y="-3" type="qcurve" smooth="yes"/>
      <point x="172" y="-3"/>
      <point x="73" y="50"/>
      <point x="20" y="156"/>
      <point x="20" y="235" type="qcurve" smooth="yes"/>
      <point x="20" y="517" type="line"/>
      <point x="40" y="517" type="line"/>
      <point x="40" y="236" type="line" smooth="yes"/>
      <point x="40" y="124"/>
      <point x="145" y="16"/>
      <point x="240" y="16" type="qcurve" smooth="yes"/>
      <point x="335" y="16"/>
      <point x="440" y="124"/>
      <point x="440" y="236" type="qcurve" smooth="yes"/>
      <point x="440" y="517" type="line"/>
      <point x="460" y="517" type="line"/>
      <point x="460" y="235" type="line" smooth="yes"/>
      <point x="460" y="156"/>
      <point x="407" y="50"/>
      <point x="308" y="-3"/>
    </contour>
    <contour>
      <point x="242" y="607" type="line"/>
      <point x="279" y="717" type="line"/>
      <point x="309" y="717" type="line"/>
      <point x="262" y="607" type="line"/>
    </contour>
  </outline>
</glyph>
<glyph name="uni0402" format="2">
  <advance width="810"/>
  <unicode hex="0402"/>
  <outline>
    <contour>
      <point x="269" y="0" type="line"/>
      <point x="269" y="690" type="line"/>
      <point x="278" y="681" type="line"/>
      <point x="9" y="681" type="line"/>
      <point x="9" y="700" type="line"/>
      <point x="564" y="700" type="line"/>
      <point x="564" y="681" type="line"/>
      <point x="280" y="681" type="line"/>
      <point x="289" y="690" type="line"/>
      <point x="289" y="0" type="line"/>
    </contour>
    <contour>
      <point x="455" y="8" type="qcurve"/>
      <point x="461" y="27" type="line"/>
      <point x="513" y="14"/>
      <point x="612" y="21"/>
      <point x="692" y="64"/>
      <point x="739" y="145"/>
      <point x="739" y="206" type="qcurve" smooth="yes"/>
      <point x="739" y="285"/>
      <point x="661" y="374"/>
      <point x="528" y="402"/>
      <point x="363" y="372"/>
      <point x="276" y="331" type="qcurve"/>
      <point x="278" y="352" type="line"/>
      <point x="368" y="395"/>
      <point x="540" y="422"/>
      <point x="678" y="388"/>
      <point x="759" y="290"/>
      <point x="759" y="207" type="qcurve" smooth="yes"/>
      <point x="759" y="140"/>
      <point x="706" y="51"/>
      <point x="619" y="3"/>
      <point x="511" y="-6"/>
    </contour>
  </outline>
</glyph>
<glyph name="uni0404" format="2">
  <advance width="704"/>
  <unicode hex="0404"/>
  <anchor x="376" y="0" name="b.uni0324_3"/>
  <outline>
    <contour>
      <point x="496" y="351" type="line"/>
      <point x="496" y="332" type="line"/>
      <point x="84" y="332" type="line"/>
      <point x="84" y="351" type="line"/>
    </contour>
    <contour>
      <point x="410" y="-3" type="qcurve" smooth="yes"/>
      <point x="338" y="-3"/>
      <point x="215" y="50"/>
      <point x="122" y="146"/>
      <point x="71" y="274"/>
      <point x="71" y="350" type="qcurve" smooth="yes"/>
      <point x="71" y="426"/>
      <point x="122" y="554"/>
      <point x="215" y="650"/>
      <point x="338" y="703"/>
      <point x="410" y="703" type="qcurve" smooth="yes"/>
      <point x="484" y="703"/>
      <point x="613" y="659"/>
      <point x="658" y="614" type="qcurve"/>
      <point x="646" y="600" type="line"/>
      <point x="598" y="646"/>
      <point x="478" y="684"/>
      <point x="410" y="684" type="qcurve" smooth="yes"/>
      <point x="343" y="684"/>
      <point x="226" y="633"/>
      <point x="140" y="542"/>
      <point x="91" y="421"/>
      <point x="91" y="350" type="qcurve" smooth="yes"/>
      <point x="91" y="279"/>
      <point x="140" y="158"/>
      <point x="226" y="67"/>
      <point x="343" y="16"/>
      <point x="410" y="16" type="qcurve" smooth="yes"/>
      <point x="478" y="16"/>
      <point x="598" y="55"/>
      <point x="646" y="101" type="qcurve"/>
      <point x="658" y="87" type="line"/>
      <point x="613" y="42"/>
      <point x="484" y="-3"/>
    </contour>
  </outline>
</glyph>
<glyph name="uni0407" format="2">
  <advance width="286"/>
  <unicode hex="0407"/>
  <anchor x="189" y="943" name="t.uni0308"/>
  <anchor x="189" y="0" name="b.uni0324_3"/>
  <anchor x="354" y="0" name="m.uni0328_4"/>
  <outline>
    <contour>
      <point x="133" y="0" type="line"/>
      <point x="133" y="700" type="line"/>
      <point x="153" y="700" type="line"/>
      <point x="153" y="0" type="line"/>
    </contour>
    <contour>
      <point x="225" y="791" type="qcurve" smooth="yes"/>
      <point x="215" y="791"/>
      <point x="199" y="807"/>
      <point x="199" y="817" type="qcurve" smooth="yes"/>
      <point x="199" y="828"/>
      <point x="215" y="843"/>
      <point x="225" y="843" type="qcurve" smooth="yes"/>
      <point x="236" y="843"/>
      <point x="251" y="828"/>
      <point x="251" y="817" type="qcurve" smooth="yes"/>
      <point x="251" y="807"/>
      <point x="236" y="791"/>
    </contour>
    <contour>
      <point x="61" y="791" type="qcurve" smooth="yes"/>
      <point x="51" y="791"/>
      <point x="35" y="807"/>
      <point x="35" y="817" type="qcurve" smooth="yes"/>
      <point x="35" y="828"/>
      <point x="51" y="843"/>
      <point x="61" y="843" type="qcurve" smooth="yes"/>
      <point x="72" y="843"/>
      <point x="87" y="828"/>
      <point x="87" y="817" type="qcurve" smooth="yes"/>
      <point x="87" y="807"/>
      <point x="72" y="791"/>
    </contour>
  </outline>
</glyph>
<glyph name="uni0411" format="2">
  <advance width="718"/>
  <unicode hex="0411"/>
  <outline>
    <contour>
      <point x="137" y="0" type="line"/>
      <point x="137" y="700" type="line"/>
      <point x="618" y="700" type="line"/>
      <point x="618" y="681" type="line"/>
      <point x="157" y="681" type="line"/>
      <point x="157" y="396" type="line"/>
      <point x="406" y="396" type="line" smooth="yes"/>
      <point x="528" y="396"/>
      <point x="655" y="297"/>
      <point x="655" y="201" type="qcurve" smooth="yes"/>
      <point x="655" y="102"/>
      <point x="523" y="0"/>
      <point x="395" y="0" type="qcurve" smooth="yes"/>
    </contour>
    <contour>
      <point x="157" y="19" type="line"/>
      <point x="399" y="19" type="line" smooth="yes"/>
      <point x="516" y="19"/>
      <point x="635" y="110"/>
      <point x="635" y="200" type="qcurve" smooth="yes"/>
      <point x="635" y="377"/>
      <point x="399" y="377" type="qcurve" smooth="yes"/>
      <point x="157" y="377" type="line"/>
    </contour>
  </outline>
</glyph>
<glyph name="uni041A" format="2">
  <advance width="684"/>
  <unicode hex="041A"/>
  <anchor x="419" y="700" name="t.uni0308"/>
  <outline>
    <contour>
      <point x="632" y="0" type="line"/>
      <point x="331" y="357" type="line"/>
      <point x="349" y="365" type="line"/>
      <point x="657" y="0" type="line"/>
    </contour>
    <contour>
      <point x="137" y="0" type="line"/>
      <point x="137" y="700" type="line"/>
      <point x="157" y="700" type="line"/>
      <point x="157" y="0" type="line"/>
    </contour>
    <contour>
      <point x="149" y="347" type="line"/>
      <point x="149" y="366" type="line"/>
      <point x="353" y="366" type="line"/>
      <point x="353" y="347" type="line"/>
    </contour>
    <contour>
      <point x="349" y="349" type="line"/>
      <point x="331" y="357" type="line"/>
      <point x="611" y="700" type="line"/>
      <point x="636" y="700" type="line"/>
    </contour>
  </outline>
</glyph>
<glyph name="uni0422" format="2">
  <advance width="556"/>
  <unicode hex="0422"/>
  <anchor x="371" y="700" name="t.uni0308"/>
  <anchor x="371" y="295" name="t.uni0307_1"/>
  <anchor x="371" y="0" name="b.uni0324_3"/>
  <outline>
    <contour>
      <point x="268" y="0" type="line"/>
      <point x="268" y="690" type="line"/>
      <point x="277" y="681" type="line"/>
      <point x="8" y="681" type="line"/>
      <point x="8" y="700" type="line"/>
      <point x="548" y="700" type="line"/>
      <point x="548" y="681" type="line"/>
      <point x="279" y="681" type="line"/>
      <point x="288" y="690" type="line"/>
      <point x="288" y="0" type="line"/>
    </contour>
  </outline>
</glyph>
<glyph name="uni042C" format="2">
  <advance width="704"/>
  <unicode hex="042C"/>
  <anchor x="201" y="575" name="t.uni0307_1"/>
  <outline>
    <contour>
      <point x="402" y="436" type="line" smooth="yes"/>
      <point x="524" y="436"/>
      <point x="651" y="327"/>
      <point x="651" y="221" type="qcurve" smooth="yes"/>
      <point x="651" y="112"/>
      <point x="519" y="0"/>
      <point x="391" y="0" type="qcurve" smooth="yes"/>
      <point x="137" y="0" type="line"/>
      <point x="137" y="700" type="line"/>
      <point x="157" y="700" type="line"/>
      <point x="157" y="436" type="line"/>
    </contour>
    <contour>
      <point x="395" y="19" type="line" smooth="yes"/>
      <point x="512" y="19"/>
      <point x="631" y="120"/>
      <point x="631" y="220" type="qcurve" smooth="yes"/>
      <point x="631" y="319"/>
      <point x="514" y="417"/>
      <point x="395" y="417" type="qcurve" smooth="yes"/>
      <point x="157" y="417" type="line"/>
      <point x="157" y="19" type="line"/>
    </contour>
  </outline>
</glyph>
<glyph name="uni042F" format="2">
  <advance width="733"/>
  <unicode hex="042F"/>
  <outline>
    <contour>
      <point x="576" y="0" type="line"/>
      <point x="576" y="239" type="line"/>
      <point x="585" y="230" type="line"/>
      <point x="333" y="230" type="line" smooth="yes"/>
      <point x="254" y="230"/>
      <point x="142" y="285"/>
      <point x="83" y="389"/>
      <point x="83" y="462" type="qcurve" smooth="yes"/>
      <point x="83" y="540"/>
      <point x="148" y="646"/>
      <point x="265" y="700"/>
      <point x="343" y="700" type="qcurve" smooth="yes"/>
      <point x="596" y="700" type="line"/>
      <point x="596" y="0" type="line"/>
    </contour>
    <contour>
      <point x="82" y="0" type="line"/>
      <point x="253" y="243" type="line"/>
      <point x="276" y="243" type="line"/>
      <point x="105" y="0" type="line"/>
    </contour>
    <contour>
      <point x="576" y="241" type="line"/>
      <point x="576" y="689" type="line"/>
      <point x="585" y="681" type="line"/>
      <point x="346" y="681" type="line" smooth="yes"/>
      <point x="231" y="681"/>
      <point x="103" y="569"/>
      <point x="103" y="462" type="qcurve" smooth="yes"/>
      <point x="103" y="361"/>
      <point x="221" y="249"/>
      <point x="336" y="249" type="qcurve" smooth="yes"/>
      <point x="585" y="249" type="line"/>
    </contour>
  </outline>
</glyph>
<glyph name="uni0431" format="2">
  <advance width="652"/>
  <unicode hex="0431"/>
  <outline>
    <contour>
      <point x="335" y="-3" type="qcurve" smooth="yes"/>
      <point x="274" y="-3"/>
      <point x="180" y="42"/>
      <point x="115" y="130"/>
      <point x="81" y="257"/>
      <point x="81" y="339" type="qcurve" smooth="yes"/>
      <point x="81" y="428"/>
      <point x="117" y="551"/>
      <point x="175" y="630"/>
      <point x="244" y="675"/>
      <point x="310" y="699"/>
      <point x="335" y="705" type="qcurve" smooth="yes"/>
      <point x="559" y="762" type="line"/>
      <point x="564" y="742" type="line"/>
      <point x="346" y="688" type="line" smooth="yes"/>
      <point x="321" y="682"/>
      <point x="256" y="660"/>
      <point x="190" y="617"/>
      <point x="135" y="542"/>
      <point x="101" y="423"/>
      <point x="101" y="336" type="qcurve" smooth="yes"/>
      <point x="101" y="324"/>
      <point x="102" y="306"/>
      <point x="105" y="285"/>
      <point x="108" y="265" type="qcurve"/>
      <point x="96" y="259" type="line"/>
      <point x="96" y="331"/>
      <point x="159" y="443"/>
      <point x="270" y="507"/>
      <point x="342" y="507" type="qcurve" smooth="yes"/>
      <point x="414" y="507"/>
      <point x="525" y="443"/>
      <point x="588" y="330"/>
      <point x="588" y="255" type="qcurve" smooth="yes"/>
      <point x="588" y="181"/>
      <point x="525" y="64"/>
      <point x="411" y="-3"/>
    </contour>
    <contour>
      <point x="342" y="16" type="qcurve" smooth="yes"/>
      <point x="408" y="16"/>
      <point x="510" y="78"/>
      <point x="568" y="186"/>
      <point x="568" y="255" type="qcurve" smooth="yes"/>
      <point x="568" y="324"/>
      <point x="510" y="429"/>
      <point x="408" y="488"/>
      <point x="342" y="488" type="qcurve" smooth="yes"/>
      <point x="276" y="488"/>
      <point x="174" y="429"/>
      <point x="116" y="324"/>
      <point x="116" y="255" type="qcurve" smooth="yes"/>
      <point x="116" y="186"/>
      <point x="174" y="78"/>
      <point x="276" y="16"/>
    </contour>
  </outline>
</glyph>
<glyph name="uni0433" format="2">
  <advance width="449"/>
  <unicode hex="0433"/>
  <anchor x="296" y="560" name="t.uni0308"/>
  <outline>
    <contour>
      <point x="117" y="0" type="line"/>
      <point x="117" y="517" type="line"/>
      <point x="453" y="517" type="line"/>
      <point x="453" y="498" type="line"/>
      <point x="129" y="498" type="line"/>
      <point x="137" y="506" type="line"/>
      <point x="137" y="0" type="line"/>
    </contour>
  </outline>
</glyph>
<glyph name="uni0438" format="2">
  <advance width="674"/>
  <unicode hex="0438"/>
  <anchor x="354" y="562" name="t.uni0308"/>
  <outline>
    <contour>
      <point x="117" y="0" type="line"/>
      <point x="117" y="517" type="line"/>
      <point x="137" y="517" type="line"/>
      <point x="137" y="34" type="line"/>
      <point x="541" y="517" type="line"/>
      <point x="557" y="517" type="line"/>
      <point x="557" y="0" type="line"/>
      <point x="537" y="0" type="line"/>
      <point x="537" y="483" type="line"/>
      <point x="133" y="0" type="line"/>
    </contour>
  </outline>
</glyph>
<glyph name="uni043B" format="2">
  <advance width="613"/>
  <unicode hex="043B"/>
  <outline>
    <contour>
      <point x="5" y="2" type="qcurve"/>
      <point x="9" y="20" type="line"/>
      <point x="15" y="19"/>
      <point x="29" y="16"/>
      <point x="34" y="16" type="qcurve" smooth="yes"/>
      <point x="68" y="16"/>
      <point x="110" y="71"/>
      <point x="133" y="166"/>
      <point x="144" y="285"/>
      <point x="147" y="348" type="qcurve" smooth="yes"/>
      <point x="156" y="517" type="line"/>
      <point x="496" y="517" type="line"/>
      <point x="496" y="0" type="line"/>
      <point x="476" y="0" type="line"/>
      <point x="476" y="506" type="line"/>
      <point x="484" y="498" type="line"/>
      <point x="168" y="498" type="line"/>
      <point x="176" y="506" type="line"/>
      <point x="167" y="344" type="line" smooth="yes"/>
      <point x="163" y="277"/>
      <point x="150" y="152"/>
      <point x="124" y="54"/>
      <point x="76" y="-3"/>
      <point x="38" y="-3" type="qcurve" smooth="yes"/>
      <point x="30" y="-3"/>
      <point x="14" y="0"/>
    </contour>
  </outline>
</glyph>
<glyph name="uni043C" format="2">
  <advance width="775"/>
  <unicode hex="043C"/>
  <anchor x="430" y="562" name="t.uni0308"/>
  <anchor x="430" y="0" name="b.uni0324_3"/>
  <outline>
    <contour>
      <point x="117" y="0" type="line"/>
      <point x="117" y="517" type="line"/>
      <point x="134" y="517" type="line"/>
      <point x="393" y="90" type="line"/>
      <point x="384" y="90" type="line"/>
      <point x="641" y="517" type="line"/>
      <point x="658" y="517" type="line"/>
      <point x="658" y="0" type="line"/>
      <point x="639" y="0" type="line"/>
      <point x="639" y="488" type="line"/>
      <point x="645" y="488" type="line"/>
      <point x="393" y="72" type="line"/>
      <point x="382" y="72" type="line"/>
      <point x="129" y="488" type="line"/>
      <point x="137" y="488" type="line"/>
      <point x="137" y="0" type="line"/>
    </contour>
  </outline>
</glyph>
<glyph name="uni043D" format="2">
  <advance width="663"/>
  <unicode hex="043D"/>
  <anchor x="367" y="562" name="t.uni0308"/>
  <anchor x="367" y="487" name="t.uni0307_1"/>
  <anchor x="367" y="0" name="b.uni0324_3"/>
  <outline>
    <contour>
      <point x="117" y="0" type="line"/>
      <point x="117" y="517" type="line"/>
      <point x="137" y="517" type="line"/>
      <point x="137" y="270" type="line"/>
      <point x="526" y="270" type="line"/>
      <point x="526" y="517" type="line"/>
      <point x="546" y="517" type="line"/>
      <point x="546" y="0" type="line"/>
      <point x="526" y="0" type="line"/>
      <point x="526" y="252" type="line"/>
      <point x="137" y="252" type="line"/>
      <point x="137" y="0" type="line"/>
    </contour>
  </outline>
</glyph>
<glyph name="uni0444" format="2">
  <advance width="744"/>
  <unicode hex="0444"/>
  <outline>
    <contour>
      <point x="371" y="-3" type="qcurve"/>
      <point x="371" y="-3"/>
      <point x="369" y="-3"/>
      <point x="368" y="-3"/>
      <point x="367" y="-3" type="qcurve"/>
      <point x="222" y="-2"/>
      <point x="60" y="136"/>
      <point x="60" y="259" type="qcurve" smooth="yes"/>
      <point x="60" y="382"/>
      <point x="224" y="520"/>
      <point x="371" y="520" type="qcurve"/>
      <point x="372" y="520"/>
      <point x="372" y="520"/>
      <point x="373" y="520"/>
      <point x="373" y="520" type="qcurve"/>
      <point x="520" y="519"/>
      <point x="683" y="381"/>
      <point x="683" y="259" type="qcurve" smooth="yes"/>
      <point x="683" y="135"/>
      <point x="519" y="-3"/>
    </contour>
    <contour>
      <point x="372" y="16" type="qcurve"/>
      <point x="464" y="16"/>
      <point x="594" y="74"/>
      <point x="663" y="183"/>
      <point x="663" y="259" type="qcurve" smooth="yes"/>
      <point x="663" y="335"/>
      <point x="594" y="443"/>
      <point x="464" y="501"/>
      <point x="372" y="501" type="qcurve"/>
      <point x="371" y="501"/>
      <point x="369" y="501"/>
      <point x="368" y="501" type="qcurve"/>
      <point x="277" y="501"/>
      <point x="148" y="443"/>
      <point x="80" y="335"/>
      <point x="80" y="259" type="qcurve" smooth="yes"/>
      <point x="80" y="183"/>
      <point x="149" y="75"/>
      <point x="278" y="17"/>
      <point x="369" y="16" type="qcurve"/>
      <point x="370" y="16"/>
      <point x="371" y="16"/>
    </contour>
    <contour>
      <point x="361" y="-194" type="line"/>
      <point x="361" y="742" type="line"/>
      <point x="381" y="742" type="line"/>
      <point x="381" y="-194" type="line"/>
    </contour>
  </outline>
</glyph>
<glyph name="uni0447" format="2">
  <advance width="579"/>
  <unicode hex="0447"/>
  <anchor x="336" y="562" name="t.uni0308"/>
  <outline>
    <contour>
      <point x="445" y="233" type="line"/>
      <point x="392" y="210"/>
      <point x="289" y="187"/>
      <point x="245" y="187" type="qcurve" smooth="yes"/>
      <point x="161" y="187"/>
      <point x="55" y="265"/>
      <point x="55" y="342" type="qcurve" smooth="yes"/>
      <point x="55" y="517" type="line"/>
      <point x="75" y="517" type="line"/>
      <point x="75" y="342" type="line" smooth="yes"/>
      <point x="75" y="276"/>
      <point x="168" y="205"/>
      <point x="245" y="205" type="qcurve" smooth="yes"/>
      <point x="289" y="205"/>
      <point x="391" y="229"/>
      <point x="446" y="253" type="qcurve"/>
    </contour>
    <contour>
      <point x="442" y="0" type="line"/>
      <point x="442" y="517" type="line"/>
      <point x="462" y="517" type="line"/>
      <point x="462" y="0" type="line"/>
    </contour>
  </outline>
</glyph>
<glyph name="uni0448" format="2">
  <advance width="903"/>
  <unicode hex="0448"/>
  <outline>
    <contour>
      <point x="448" y="18" type="line"/>
      <point x="442" y="10" type="line"/>
      <point x="442" y="517" type="line"/>
      <point x="462" y="517" type="line"/>
      <point x="462" y="10" type="line"/>
      <point x="454" y="18" type="line"/>
      <point x="774" y="18" type="line"/>
      <point x="766" y="10" type="line"/>
      <point x="766" y="517" type="line"/>
      <point x="786" y="517" type="line"/>
      <point x="786" y="0" type="line"/>
      <point x="117" y="0" type="line"/>
      <point x="117" y="517" type="line"/>
      <point x="137" y="517" type="line"/>
      <point x="137" y="10" type="line"/>
      <point x="129" y="18" type="line"/>
    </contour>
  </outline>
</glyph>
<glyph name="uni044A" format="2">
  <advance width="582"/>
  <unicode hex="044A"/>
  <outline>
    <contour>
      <point x="352" y="323" type="line" smooth="yes"/>
      <point x="445" y="323"/>
      <point x="541" y="242"/>
      <point x="541" y="164" type="qcurve" smooth="yes"/>
      <point x="541" y="83"/>
      <point x="440" y="0"/>
      <point x="343" y="0" type="qcurve" smooth="yes"/>
      <point x="166" y="0" type="line"/>
      <point x="166" y="498" type="line"/>
      <point x="-4" y="498" type="line"/>
      <point x="-4" y="517" type="line"/>
      <point x="186" y="517" type="line"/>
      <point x="186" y="323" type="line"/>
    </contour>
    <contour>
      <point x="346" y="18" type="line" smooth="yes"/>
      <point x="433" y="18"/>
      <point x="521" y="91"/>
      <point x="521" y="163" type="qcurve" smooth="yes"/>
      <point x="521" y="305"/>
      <point x="346" y="305" type="qcurve" smooth="yes"/>
      <point x="186" y="305" type="line"/>
      <point x="186" y="18" type="line"/>
    </contour>
  </outline>
</glyph>
<glyph name="uni044B" format="2">
  <advance width="740"/>
  <unicode hex="044B"/>
  <anchor x="489" y="562" name="t.uni0308"/>
  <anchor x="190" y="460" name="t.uni0307_1"/>
  <outline>
    <contour>
      <point x="603" y="0" type="line"/>
      <point x="603" y="517" type="line"/>
      <point x="623" y="517" type="line"/>
      <point x="623" y="0" type="line"/>
    </contour>
    <contour>
      <point x="303" y="321" type="line" smooth="yes"/>
      <point x="398" y="320"/>
      <point x="497" y="240"/>
      <point x="497" y="162" type="qcurve" smooth="yes"/>
      <point x="497" y="81"/>
      <point x="394" y="-3"/>
      <point x="294" y="-2" type="qcurve" smooth="yes"/>
      <point x="117" y="0" type="line"/>
      <point x="117" y="517" type="line"/>
      <point x="137" y="517" type="line"/>
      <point x="137" y="323" type="line"/>
    </contour>
    <contour>
      <point x="296" y="16" type="line" smooth="yes"/>
      <point x="386" y="15"/>
      <point x="477" y="89"/>
      <point x="477" y="161" type="qcurve" smooth="yes"/>
      <point x="477" y="232"/>
      <point x="387" y="302"/>
      <point x="296" y="303" type="qcurve" smooth="yes"/>
      <point x="137" y="305" type="line"/>
      <point x="137" y="18" type="line"/>
    </contour>
  </outline>
</glyph>
<glyph name="uni044F" format="2">
  <advance width="594"/>
  <unicode hex="044F"/>
  <outline>
    <contour>
      <point x="457" y="0" type="line"/>
      <point x="457" y="196" type="line"/>
      <point x="465" y="188" type="line"/>
      <point x="270" y="188" type="line" smooth="yes"/>
      <point x="177" y="188"/>
      <point x="74" y="269"/>
      <point x="74" y="350" type="qcurve" smooth="yes"/>
      <point x="74" y="436"/>
      <point x="186" y="517"/>
      <point x="278" y="517" type="qcurve" smooth="yes"/>
      <point x="477" y="517" type="line"/>
      <point x="477" y="0" type="line"/>
    </contour>
    <contour>
      <point x="73" y="0" type="line"/>
      <point x="218" y="200" type="line"/>
      <point x="241" y="200" type="line"/>
      <point x="96" y="0" type="line"/>
    </contour>
    <contour>
      <point x="457" y="199" type="line"/>
      <point x="457" y="506" type="line"/>
      <point x="465" y="498" type="line"/>
      <point x="280" y="498" type="line" smooth="yes"/>
      <point x="192" y="498"/>
      <point x="94" y="428"/>
      <point x="94" y="350" type="qcurve" smooth="yes"/>
      <point x="94" y="206"/>
      <point x="273" y="206" type="qcurve" smooth="yes"/>
      <point x="465" y="206" type="line"/>
    </contour>
  </outline>
</glyph>
<glyph name="uni0452" format="2">
  <advance width="662"/>
  <unicode hex="0452"/>
  <outline>
    <contour>
      <point x="440" y="-197" type="qcurve" smooth="yes"/>
      <point x="410" y="-197"/>
      <point x="354" y="-179"/>
      <point x="336" y="-160" type="qcurve"/>
      <point x="350" y="-146" type="line"/>
      <point x="384" y="-178"/>
      <point x="439" y="-178" type="qcurve" smooth="yes"/>
      <point x="489" y="-178"/>
      <point x="542" y="-120"/>
      <point x="542" y="-65" type="qcurve" smooth="yes"/>
      <point x="542" y="305" type="line" smooth="yes"/>
      <point x="542" y="401"/>
      <point x="444" y="501"/>
      <point x="356" y="501" type="qcurve" smooth="yes"/>
      <point x="288" y="501"/>
      <point x="190" y="446"/>
      <point x="138" y="347"/>
      <point x="138" y="281" type="qcurve" smooth="yes"/>
      <point x="138" y="0" type="line"/>
      <point x="118" y="0" type="line"/>
      <point x="118" y="742" type="line"/>
      <point x="138" y="742" type="line"/>
      <point x="138" y="370" type="line"/>
      <point x="136" y="373" type="line"/>
      <point x="159" y="441"/>
      <point x="271" y="520"/>
      <point x="355" y="520" type="qcurve" smooth="yes"/>
      <point x="419" y="520"/>
      <point x="511" y="471"/>
      <point x="562" y="375"/>
      <point x="562" y="305" type="qcurve" smooth="yes"/>
      <point x="562" y="-70" type="line" smooth="yes"/>
      <point x="562" y="-127"/>
      <point x="499" y="-197"/>
    </contour>
    <contour>
      <point x="-2" y="621" type="line"/>
      <point x="-2" y="640" type="line"/>
      <point x="406" y="640" type="line"/>
      <point x="406" y="621" type="line"/>
    </contour>
  </outline>
</glyph>
<glyph name="uni0454" format="2">
  <advance width="562"/>
  <unicode hex="0454"/>
  <anchor x="317" y="0" name="b.uni0324_3"/>
  <outline>
    <contour>
      <point x="391" y="262" type="line"/>
      <point x="391" y="244" type="line"/>
      <point x="72" y="244" type="line"/>
      <point x="72" y="262" type="line"/>
    </contour>
    <contour>
      <point x="324" y="-2" type="qcurve" smooth="yes"/>
      <point x="249" y="-2"/>
      <point x="129" y="66"/>
      <point x="59" y="184"/>
      <point x="59" y="259" type="qcurve" smooth="yes"/>
      <point x="59" y="334"/>
      <point x="129" y="452"/>
      <point x="249" y="520"/>
      <point x="324" y="520" type="qcurve" smooth="yes"/>
      <point x="382" y="520"/>
      <point x="484" y="487"/>
      <point x="519" y="453" type="qcurve"/>
      <point x="507" y="439" type="line"/>
      <point x="470" y="473"/>
      <point x="377" y="501"/>
      <point x="324" y="501" type="qcurve" smooth="yes"/>
      <point x="255" y="501"/>
      <point x="144" y="437"/>
      <point x="79" y="328"/>
      <point x="79" y="259" type="qcurve" smooth="yes"/>
      <point x="79" y="190"/>
      <point x="144" y="80"/>
      <point x="255" y="16"/>
      <point x="324" y="16" type="qcurve" smooth="yes"/>
      <point x="377" y="16"/>
      <point x="470" y="45"/>
      <point x="507" y="79" type="qcurve"/>
      <point x="519" y="66" type="line"/>
      <point x="484" y="32"/>
      <point x="382" y="-2"/>
    </contour>
  </outline>
</glyph>
<glyph name="uni045A" format="2">
  <advance width="928"/>
  <unicode hex="045A"/>
  <outline>
    <contour>
      <point x="713" y="294" type="line" smooth="yes"/>
      <point x="799" y="294"/>
      <point x="892" y="219"/>
      <point x="892" y="151" type="qcurve" smooth="yes"/>
      <point x="892" y="80"/>
      <point x="793" y="0"/>
      <point x="704" y="0" type="qcurve" smooth="yes"/>
      <point x="515" y="0" type="line"/>
      <point x="515" y="276" type="line"/>
      <point x="137" y="276" type="line"/>
      <point x="137" y="0" type="line"/>
      <point x="117" y="0" type="line"/>
      <point x="117" y="517" type="line"/>
      <point x="137" y="517" type="line"/>
      <point x="137" y="294" type="line"/>
      <point x="515" y="294" type="line"/>
      <point x="515" y="517" type="line"/>
      <point x="535" y="517" type="line"/>
      <point x="535" y="294" type="line"/>
    </contour>
    <contour>
      <point x="706" y="18" type="line" smooth="yes"/>
      <point x="786" y="18"/>
      <point x="872" y="87"/>
      <point x="872" y="150" type="qcurve" smooth="yes"/>
      <point x="872" y="212"/>
      <point x="786" y="276"/>
      <point x="706" y="276" type="qcurve" smooth="yes"/>
      <point x="535" y="276" type="line"/>
      <point x="535" y="18" type="line"/>
    </contour>
  </outline>
</glyph>
<glyph name="uni045B" format="2">
  <advance width="662"/>
  <unicode hex="045B"/>
  <anchor x="185" y="742" name="t.uni0308"/>
  <anchor x="201" y="642" name="t.uni0307_1"/>
  <anchor x="350" y="562" name="t.uni031B_2"/>
  <anchor x="369" y="0" name="b.uni0324_3"/>
  <outline>
    <contour>
      <point x="-26" y="621" type="line"/>
      <point x="-26" y="640" type="line"/>
      <point x="411" y="640" type="line"/>
      <point x="411" y="621" type="line"/>
    </contour>
    <contour>
      <point x="355" y="520" type="qcurve" smooth="yes"/>
      <point x="419" y="520"/>
      <point x="511" y="471"/>
      <point x="562" y="375"/>
      <point x="562" y="305" type="qcurve" smooth="yes"/>
      <point x="562" y="0" type="line"/>
      <point x="542" y="0" type="line"/>
      <point x="542" y="305" type="line" smooth="yes"/>
      <point x="542" y="401"/>
      <point x="444" y="501"/>
      <point x="356" y="501" type="qcurve" smooth="yes"/>
      <point x="288" y="501"/>
      <point x="190" y="446"/>
      <point x="138" y="347"/>
      <point x="138" y="281" type="qcurve" smooth="yes"/>
      <point x="138" y="0" type="line"/>
      <point x="118" y="0" type="line"/>
      <point x="118" y="742" type="line"/>
      <point x="138" y="742" type="line"/>
      <point x="138" y="370" type="line"/>
      <point x="136" y="373" type="line"/>
      <point x="159" y="441"/>
      <point x="271" y="520"/>
    </contour>
  </outline>
</glyph>
<glyph name="uni045F" format="2">
  <advance width="627"/>
  <unicode hex="045F"/>
  <outline>
    <contour>
      <point x="510" y="517" type="line"/>
      <point x="510" y="0" type="line"/>
      <point x="324" y="0" type="line"/>
      <point x="324" y="-134" type="line"/>
      <point x="304" y="-134" type="line"/>
      <point x="304" y="0" type="line"/>
      <point x="117" y="0" type="line"/>
      <point x="117" y="517" type="line"/>
      <point x="137" y="517" type="line"/>
      <point x="137" y="18" type="line"/>
      <point x="490" y="18" type="line"/>
      <point x="490" y="517" type="line"/>
    </contour>
  </outline>
</glyph>
<glyph name="uni0462" format="2">
  <advance width="783"/>
  <unicode hex="0462"/>
  <anchor x="337" y="575" name="t.uni0307_1"/>
  <outline>
    <contour>
      <point x="216" y="0" type="line"/>
      <point x="216" y="742" type="line"/>
      <point x="236" y="742" type="line"/>
      <point x="236" y="436" type="line"/>
      <point x="481" y="436" type="line" smooth="yes"/>
      <point x="603" y="436"/>
      <point x="730" y="327"/>
      <point x="730" y="221" type="qcurve" smooth="yes"/>
      <point x="730" y="112"/>
      <point x="598" y="0"/>
      <point x="470" y="0" type="qcurve" smooth="yes"/>
    </contour>
    <contour>
      <point x="236" y="19" type="line"/>
      <point x="474" y="19" type="line" smooth="yes"/>
      <point x="591" y="19"/>
      <point x="710" y="120"/>
      <point x="710" y="220" type="qcurve" smooth="yes"/>
      <point x="710" y="417"/>
      <point x="474" y="417" type="qcurve" smooth="yes"/>
      <point x="236" y="417" type="line"/>
    </contour>
    <contour>
      <point x="18" y="580" type="line"/>
      <point x="18" y="599" type="line"/>
      <point x="466" y="599" type="line"/>
      <point x="466" y="580" type="line"/>
    </contour>
  </outline>
</glyph>
<glyph name="uni0475" format="2">
  <advance width="533"/>
  <unicode hex="0475"/>
  <outline>
    <contour>
      <point x="246" y="0" type="line"/>
      <point x="19" y="517" type="line"/>
      <point x="42" y="517" type="line"/>
      <point x="261" y="14" type="line"/>
      <point x="251" y="14" type="line"/>
      <point x="398" y="401" type="line" smooth="yes"/>
      <point x="419" y="455"/>
      <point x="456" y="510"/>
      <point x="501" y="523"/>
      <point x="535" y="514" type="qcurve"/>
      <point x="532" y="494" type="line"/>
      <point x="503" y="503"/>
      <point x="466" y="493"/>
      <point x="436" y="443"/>
      <point x="416" y="392" type="qcurve" smooth="yes"/>
      <point x="266" y="0" type="line"/>
    </contour>
  </outline>
</glyph>
<glyph name="uni048C" format="2">
  <advance width="728"/>
  <unicode hex="048C"/>
  <anchor x="238" y="575" name="t.uni0307_1"/>
  <outline>
    <contour>
      <point x="161" y="0" type="line"/>
      <point x="161" y="742" type="line"/>
      <point x="181" y="742" type="line"/>
      <point x="181" y="436" type="line"/>
      <point x="426" y="436" type="line" smooth="yes"/>
      <point x="548" y="436"/>
      <point x="675" y="327"/>
      <point x="675" y="221" type="qcurve" smooth="yes"/>
      <point x="675" y="112"/>
      <point x="543" y="0"/>
      <point x="415" y="0" type="qcurve" smooth="yes"/>
    </contour>
    <contour>
      <point x="181" y="19" type="line"/>
      <point x="419" y="19" type="line" smooth="yes"/>
      <point x="536" y="19"/>
      <point x="655" y="120"/>
      <point x="655" y="220" type="qcurve" smooth="yes"/>
      <point x="655" y="417"/>
      <point x="419" y="417" type="qcurve" smooth="yes"/>
      <point x="181" y="417" type="line"/>
    </contour>
    <contour>
      <point x="36" y="580" type="line"/>
      <point x="36" y="599" type="line"/>
      <point x="421" y="599" type="line"/>
      <point x="421" y="580" type="line"/>
    </contour>
  </outline>
</glyph>
<glyph name="uni048D" format="2">
  <advance width="567"/>
  <unicode hex="048D"/>
  <outline>
    <contour>
      <point x="146" y="0" type="line"/>
      <point x="146" y="517" type="line"/>
      <point x="166" y="517" type="line"/>
      <point x="166" y="323" type="line"/>
      <point x="332" y="321" type="line" smooth="yes"/>
      <point x="427" y="320"/>
      <point x="526" y="240"/>
      <point x="526" y="162" type="qcurve" smooth="yes"/>
      <point x="526" y="81"/>
      <point x="423" y="-3"/>
      <point x="323" y="-2" type="qcurve" smooth="yes"/>
    </contour>
    <contour>
      <point x="325" y="16" type="line" smooth="yes"/>
      <point x="415" y="15"/>
      <point x="506" y="89"/>
      <point x="506" y="161" type="qcurve" smooth="yes"/>
      <point x="506" y="232"/>
      <point x="416" y="302"/>
      <point x="325" y="303" type="qcurve" smooth="yes"/>
      <point x="166" y="305" type="line"/>
      <point x="166" y="18" type="line"/>
    </contour>
    <contour>
      <point x="26" y="417" type="line"/>
      <point x="26" y="436" type="line"/>
      <point x="366" y="436" type="line"/>
      <point x="366" y="417" type="line"/>
    </contour>
  </outline>
</glyph>
<glyph name="uni048E" format="2">
  <advance width="731"/>
  <unicode hex="048E"/>
  <outline>
    <contour>
      <point x="137" y="0" type="line"/>
      <point x="137" y="700" type="line"/>
      <point x="374" y="700" type="line" smooth="yes"/>
      <point x="460" y="700"/>
      <point x="583" y="645"/>
      <point x="649" y="543"/>
      <point x="649" y="470" type="qcurve" smooth="yes"/>
      <point x="649" y="398"/>
      <point x="583" y="295"/>
      <point x="460" y="240"/>
      <point x="374" y="240" type="qcurve" smooth="yes"/>
      <point x="148" y="240" type="line"/>
      <point x="157" y="249" type="line"/>
      <point x="157" y="0" type="line"/>
    </contour>
    <contour>
      <point x="157" y="251" type="line"/>
      <point x="148" y="259" type="line"/>
      <point x="376" y="259" type="line" smooth="yes"/>
      <point x="499" y="259"/>
      <point x="629" y="370"/>
      <point x="629" y="470" type="qcurve" smooth="yes"/>
      <point x="629" y="571"/>
      <point x="499" y="681"/>
      <point x="376" y="681" type="qcurve" smooth="yes"/>
      <point x="148" y="681" type="line"/>
      <point x="157" y="689" type="line"/>
    </contour>
    <contour>
      <point x="640" y="126" type="line"/>
      <point x="625" y="113" type="line"/>
      <point x="360" y="457" type="line"/>
      <point x="375" y="470" type="line"/>
    </contour>
  </outline>
</glyph>
<glyph name="uni048F" format="2">
  <advance width="691"/>
  <unicode hex="048F"/>
  <outline>
    <contour>
      <point x="369" y="-3" type="qcurve" smooth="yes"/>
      <point x="298" y="-3"/>
      <point x="186" y="64"/>
      <point x="121" y="182"/>
      <point x="121" y="258" type="qcurve" smooth="yes"/>
      <point x="121" y="335"/>
      <point x="186" y="453"/>
      <point x="298" y="520"/>
      <point x="369" y="520" type="qcurve" smooth="yes"/>
      <point x="440" y="520"/>
      <point x="554" y="453"/>
      <point x="620" y="335"/>
      <point x="620" y="258" type="qcurve" smooth="yes"/>
      <point x="620" y="182"/>
      <point x="554" y="64"/>
      <point x="440" y="-3"/>
    </contour>
    <contour>
      <point x="118" y="-194" type="line"/>
      <point x="118" y="517" type="line"/>
      <point x="138" y="517" type="line"/>
      <point x="138" y="327" type="line"/>
      <point x="128" y="257" type="line"/>
      <point x="138" y="187" type="line"/>
      <point x="138" y="-194" type="line"/>
    </contour>
    <contour>
      <point x="369" y="16" type="qcurve" smooth="yes"/>
      <point x="435" y="16"/>
      <point x="540" y="77"/>
      <point x="600" y="187"/>
      <point x="600" y="258" type="qcurve" smooth="yes"/>
      <point x="600" y="330"/>
      <point x="539" y="439"/>
      <point x="435" y="501"/>
      <point x="369" y="501" type="qcurve" smooth="yes"/>
      <point x="303" y="501"/>
      <point x="198" y="439"/>
      <point x="138" y="330"/>
      <point x="138" y="258" type="qcurve" smooth="yes"/>
      <point x="138" y="187"/>
      <point x="198" y="77"/>
      <point x="303" y="16"/>
    </contour>
    <contour>
      <point x="600" y="-49" type="line"/>
      <point x="585" y="-60" type="line"/>
      <point x="414" y="161" type="line"/>
      <point x="429" y="172" type="line"/>
    </contour>
  </outline>
</glyph>
<glyph name="uni0492" format="2">
  <advance width="589"/>
  <unicode hex="0492"/>
  <anchor x="370" y="700" name="t.uni0308"/>
  <outline>
    <contour>
      <point x="46" y="319" type="line"/>
      <point x="46" y="338" type="line"/>
      <point x="494" y="338" type="line"/>
      <point x="494" y="319" type="line"/>
    </contour>
    <contour>
      <point x="156" y="0" type="line"/>
      <point x="156" y="700" type="line"/>
      <point x="572" y="700" type="line"/>
      <point x="572" y="681" type="line"/>
      <point x="167" y="681" type="line"/>
      <point x="176" y="690" type="line"/>
      <point x="176" y="0" type="line"/>
    </contour>
  </outline>
</glyph>
<glyph name="uni0493" format="2">
  <advance width="475"/>
  <unicode hex="0493"/>
  <anchor x="345" y="560" name="t.uni0308"/>
  <outline>
    <contour>
      <point x="51" y="232" type="line"/>
      <point x="51" y="251" type="line"/>
      <point x="390" y="251" type="line"/>
      <point x="390" y="232" type="line"/>
    </contour>
    <contour>
      <point x="130" y="0" type="line"/>
      <point x="130" y="517" type="line"/>
      <point x="466" y="517" type="line"/>
      <point x="466" y="498" type="line"/>
      <point x="142" y="498" type="line"/>
      <point x="150" y="506" type="line"/>
      <point x="150" y="0" type="line"/>
    </contour>
  </outline>
</glyph>
<glyph name="uni0495" format="2">
  <advance width="573"/>
  <unicode hex="0495"/>
  <outline>
    <contour>
      <point x="117" y="0" type="line"/>
      <point x="117" y="517" type="line"/>
      <point x="437" y="517" type="line"/>
      <point x="437" y="498" type="line"/>
      <point x="129" y="498" type="line"/>
      <point x="137" y="506" type="line"/>
      <point x="137" y="0" type="line"/>
    </contour>
    <contour>
      <point x="242" y="-192" type="qcurve"/>
      <point x="247" y="-174" type="line"/>
      <point x="326" y="-187"/>
      <point x="447" y="-143"/>
      <point x="516" y="-36"/>
      <point x="516" y="43" type="qcurve" smooth="yes"/>
      <point x="516" y="111"/>
      <point x="467" y="202"/>
      <point x="384" y="250"/>
      <point x="284" y="257"/>
      <point x="180" y="222"/>
      <point x="134" y="185" type="qcurve"/>
      <point x="134" y="208" type="line"/>
      <point x="185" y="246"/>
      <point x="296" y="277"/>
      <point x="401" y="266"/>
      <point x="486" y="211"/>
      <point x="536" y="113"/>
      <point x="536" y="43" type="qcurve" smooth="yes"/>
      <point x="536" y="-20"/>
      <point x="493" y="-118"/>
      <point x="414" y="-180"/>
      <point x="306" y="-203"/>
    </contour>
  </outline>
</glyph>
<glyph name="uni04A1" format="2">
  <advance width="597"/>
  <unicode hex="04A1"/>
  <anchor x="495" y="562" name="t.uni0308"/>
  <anchor x="495" y="0" name="b.uni0324_3"/>
  <outline>
    <contour>
      <point x="-4" y="498" type="line"/>
      <point x="-4" y="517" type="line"/>
      <point x="186" y="517" type="line"/>
      <point x="186" y="498" type="line"/>
    </contour>
    <contour>
      <point x="553" y="0" type="line"/>
      <point x="316" y="263" type="line"/>
      <point x="334" y="271" type="line"/>
      <point x="577" y="0" type="line"/>
    </contour>
    <contour>
      <point x="166" y="0" type="line"/>
      <point x="166" y="517" type="line"/>
      <point x="186" y="517" type="line"/>
      <point x="186" y="0" type="line"/>
    </contour>
    <contour>
      <point x="179" y="254" type="line"/>
      <point x="179" y="272" type="line"/>
      <point x="336" y="272" type="line"/>
      <point x="336" y="254" type="line"/>
    </contour>
    <contour>
      <point x="334" y="257" type="line"/>
      <point x="316" y="263" type="line"/>
      <point x="537" y="517" type="line"/>
      <point x="561" y="517" type="line"/>
    </contour>
  </outline>
</glyph>
<glyph name="uni04A6" format="2">
  <advance width="1221"/>
  <unicode hex="04A6"/>
  <outline>
    <contour>
      <point x="856" y="-124" type="qcurve"/>
      <point x="861" y="-106" type="line"/>
      <point x="920" y="-119"/>
      <point x="1023" y="-94"/>
      <point x="1103" y="-24"/>
      <point x="1148" y="80"/>
      <point x="1148" y="144" type="qcurve" smooth="yes"/>
      <point x="1148" y="214"/>
      <point x="1093" y="316"/>
      <point x="1000" y="375"/>
      <point x="881" y="387"/>
      <point x="751" y="346"/>
      <point x="689" y="297" type="qcurve"/>
      <point x="689" y="321" type="line"/>
      <point x="755" y="370"/>
      <point x="891" y="407"/>
      <point x="1015" y="391"/>
      <point x="1112" y="326"/>
      <point x="1168" y="218"/>
      <point x="1168" y="145" type="qcurve" smooth="yes"/>
      <point x="1168" y="76"/>
      <point x="1118" y="-37"/>
      <point x="1032" y="-112"/>
      <point x="919" y="-139"/>
    </contour>
    <contour>
      <point x="137" y="0" type="line"/>
      <point x="137" y="700" type="line"/>
      <point x="696" y="700" type="line"/>
      <point x="696" y="0" type="line"/>
      <point x="676" y="0" type="line"/>
      <point x="676" y="690" type="line"/>
      <point x="685" y="681" type="line"/>
      <point x="148" y="681" type="line"/>
      <point x="157" y="690" type="line"/>
      <point x="157" y="0" type="line"/>
    </contour>
  </outline>
</glyph>
<glyph name="uni04A7" format="2">
  <advance width="955"/>
  <unicode hex="04A7"/>
  <outline>
    <contour>
      <point x="117" y="0" type="line"/>
      <point x="117" y="517" type="line"/>
      <point x="530" y="517" type="line"/>
      <point x="530" y="0" type="line"/>
      <point x="510" y="0" type="line"/>
      <point x="510" y="506" type="line"/>
      <point x="518" y="498" type="line"/>
      <point x="129" y="498" type="line"/>
      <point x="137" y="506" type="line"/>
      <point x="137" y="0" type="line"/>
    </contour>
    <contour>
      <point x="630" y="-192" type="qcurve"/>
      <point x="635" y="-174" type="line"/>
      <point x="714" y="-187"/>
      <point x="835" y="-143"/>
      <point x="904" y="-36"/>
      <point x="904" y="43" type="qcurve" smooth="yes"/>
      <point x="904" y="111"/>
      <point x="855" y="202"/>
      <point x="772" y="250"/>
      <point x="672" y="257"/>
      <point x="568" y="222"/>
      <point x="522" y="185" type="qcurve"/>
      <point x="522" y="208" type="line"/>
      <point x="573" y="246"/>
      <point x="684" y="277"/>
      <point x="789" y="266"/>
      <point x="874" y="211"/>
      <point x="924" y="113"/>
      <point x="924" y="43" type="qcurve" smooth="yes"/>
      <point x="924" y="-20"/>
      <point x="881" y="-118"/>
      <point x="802" y="-180"/>
      <point x="694" y="-203"/>
    </contour>
  </outline>
</glyph>
<glyph name="uni04B4" format="2">
  <advance width="952"/>
  <unicode hex="04B4"/>
  <anchor x="364" y="700" name="t.uni0308"/>
  <anchor x="364" y="295" name="t.uni0307_1"/>
  <anchor x="364" y="0" name="b.uni0324_3"/>
  <outline>
    <contour>
      <point x="268" y="0" type="line"/>
      <point x="268" y="690" type="line"/>
      <point x="277" y="681" type="line"/>
      <point x="8" y="681" type="line"/>
      <point x="8" y="700" type="line"/>
      <point x="538" y="700" type="line"/>
      <point x="538" y="681" type="line"/>
      <point x="279" y="681" type="line"/>
      <point x="288" y="690" type="line"/>
      <point x="288" y="0" type="line"/>
    </contour>
    <contour>
      <point x="268" y="0" type="line"/>
      <point x="268" y="700" type="line"/>
      <point x="288" y="700" type="line"/>
      <point x="288" y="19" type="line"/>
      <point x="778" y="19" type="line"/>
      <point x="778" y="700" type="line"/>
      <point x="798" y="700" type="line"/>
      <point x="798" y="0" type="line"/>
    </contour>
    <contour>
      <point x="895" y="-175" type="line"/>
      <point x="895" y="9" type="line"/>
      <point x="904" y="0" type="line"/>
      <point x="778" y="0" type="line"/>
      <point x="778" y="19" type="line"/>
      <point x="915" y="19" type="line"/>
      <point x="915" y="-175" type="line"/>
    </contour>
  </outline>
</glyph>
<glyph name="uni04BA" format="2">
  <advance width="720"/>
  <unicode hex="04BA"/>
  <outline>
    <contour>
      <point x="630" y="0" type="line"/>
      <point x="630" y="238" type="line" smooth="yes"/>
      <point x="630" y="326"/>
      <point x="513" y="426"/>
      <point x="409" y="426" type="qcurve" smooth="yes"/>
      <point x="351" y="426"/>
      <point x="217" y="392"/>
      <point x="147" y="360" type="qcurve"/>
      <point x="149" y="381" type="line"/>
      <point x="215" y="413"/>
      <point x="348" y="445"/>
      <point x="408" y="445" type="qcurve" smooth="yes"/>
      <point x="521" y="445"/>
      <point x="650" y="335"/>
      <point x="650" y="238" type="qcurve" smooth="yes"/>
      <point x="650" y="0" type="line"/>
    </contour>
    <contour>
      <point x="137" y="0" type="line"/>
      <point x="137" y="700" type="line"/>
      <point x="157" y="700" type="line"/>
      <point x="157" y="0" type="line"/>
    </contour>
  </outline>
</glyph>
<glyph name="uni04BD" format="2">
  <advance width="713"/>
  <unicode hex="04BD"/>
  <anchor x="603" y="560" name="t.uni0308"/>
  <anchor x="597" y="0" name="b.uni0324_3"/>
  <outline>
    <contour>
      <point x="168" y="259" type="line"/>
      <point x="140" y="259" type="line" smooth="yes"/>
      <point x="86" y="259"/>
      <point x="29" y="309"/>
      <point x="27" y="387"/>
      <point x="53" y="428" type="qcurve"/>
      <point x="72" y="418" type="line"/>
      <point x="48" y="386"/>
      <point x="48" y="321"/>
      <point x="94" y="278"/>
      <point x="140" y="278" type="qcurve" smooth="yes"/>
      <point x="168" y="278" type="line"/>
    </contour>
    <contour>
      <point x="429" y="-3" type="qcurve" smooth="yes"/>
      <point x="352" y="-3"/>
      <point x="231" y="64"/>
      <point x="161" y="183"/>
      <point x="161" y="259" type="qcurve" smooth="yes"/>
      <point x="161" y="336"/>
      <point x="226" y="453"/>
      <point x="339" y="520"/>
      <point x="410" y="520" type="qcurve" smooth="yes"/>
      <point x="481" y="520"/>
      <point x="593" y="455"/>
      <point x="659" y="339"/>
      <point x="659" y="264" type="qcurve"/>
      <point x="659" y="263"/>
      <point x="659" y="261"/>
      <point x="659" y="259" type="qcurve"/>
      <point x="173" y="259" type="line"/>
      <point x="173" y="278" type="line"/>
      <point x="648" y="278" type="line"/>
      <point x="640" y="263" type="line"/>
      <point x="640" y="331"/>
      <point x="580" y="439"/>
      <point x="476" y="501"/>
      <point x="410" y="501" type="qcurve" smooth="yes"/>
      <point x="344" y="501"/>
      <point x="241" y="439"/>
      <point x="181" y="331"/>
      <point x="181" y="263" type="qcurve" smooth="yes"/>
      <point x="181" y="259" type="line" smooth="yes"/>
      <point x="181" y="188"/>
      <point x="246" y="78"/>
      <point x="358" y="16"/>
      <point x="429" y="16" type="qcurve" smooth="yes"/>
      <point x="484" y="16"/>
      <point x="581" y="56"/>
      <point x="613" y="96" type="qcurve"/>
      <point x="627" y="82" type="line"/>
      <point x="592" y="40"/>
      <point x="488" y="-3"/>
    </contour>
  </outline>
</glyph>
<glyph name="uni04C0" format="2">
  <advance width="294"/>
  <unicode hex="04C0"/>
  <anchor x="194" y="700" name="t.uni0308"/>
  <anchor x="194" y="0" name="b.uni0324_3"/>
  <anchor x="359" y="0" name="m.uni0328_4"/>
  <outline>
    <contour>
      <point x="137" y="0" type="line"/>
      <point x="137" y="700" type="line"/>
      <point x="157" y="700" type="line"/>
      <point x="157" y="0" type="line"/>
    </contour>
  </outline>
</glyph>
<glyph name="uni04C8" format="2">
  <advance width="673"/>
  <unicode hex="04C8"/>
  <outline>
    <contour>
      <point x="434" y="-197" type="qcurve" smooth="yes"/>
      <point x="404" y="-197"/>
      <point x="348" y="-179"/>
      <point x="330" y="-160" type="qcurve"/>
      <point x="344" y="-146" type="line"/>
      <point x="378" y="-178"/>
      <point x="433" y="-178" type="qcurve" smooth="yes"/>
      <point x="483" y="-178"/>
      <point x="536" y="-120"/>
      <point x="536" y="-65" type="qcurve" smooth="yes"/>
      <point x="536" y="252" type="line"/>
      <point x="137" y="252" type="line"/>
      <point x="137" y="0" type="line"/>
      <point x="117" y="0" type="line"/>
      <point x="117" y="517" type="line"/>
      <point x="137" y="517" type="line"/>
      <point x="137" y="270" type="line"/>
      <point x="536" y="270" type="line"/>
      <point x="536" y="517" type="line"/>
      <point x="556" y="517" type="line"/>
      <point x="556" y="-70" type="line" smooth="yes"/>
      <point x="556" y="-127"/>
      <point x="493" y="-197"/>
    </contour>
  </outline>
</glyph>
<glyph name="uni04CB" format="2">
  <advance width="720"/>
  <unicode hex="04CB"/>
  <outline>
    <contour>
      <point x="312" y="255" type="qcurve" smooth="yes"/>
      <point x="199" y="255"/>
      <point x="70" y="365"/>
      <point x="70" y="462" type="qcurve" smooth="yes"/>
      <point x="70" y="700" type="line"/>
      <point x="90" y="700" type="line"/>
      <point x="90" y="462" type="line" smooth="yes"/>
      <point x="90" y="374"/>
      <point x="208" y="274"/>
      <point x="311" y="274" type="qcurve" smooth="yes"/>
      <point x="370" y="274"/>
      <point x="503" y="308"/>
      <point x="573" y="340" type="qcurve"/>
      <point x="571" y="319" type="line"/>
      <point x="505" y="288"/>
      <point x="372" y="255"/>
    </contour>
    <contour>
      <point x="446" y="-165" type="line"/>
      <point x="446" y="19" type="line"/>
      <point x="583" y="19" type="line"/>
      <point x="583" y="0" type="line"/>
      <point x="457" y="0" type="line"/>
      <point x="466" y="9" type="line"/>
      <point x="466" y="-165" type="line"/>
    </contour>
    <contour>
      <point x="563" y="0" type="line"/>
      <point x="563" y="700" type="line"/>
      <point x="583" y="700" type="line"/>
      <point x="583" y="0" type="line"/>
    </contour>
  </outline>
</glyph>
<glyph name="uni04CC" format="2">
  <advance width="578"/>
  <unicode hex="04CC"/>
  <outline>
    <contour>
      <point x="244" y="187" type="qcurve" smooth="yes"/>
      <point x="160" y="187"/>
      <point x="54" y="265"/>
      <point x="54" y="342" type="qcurve" smooth="yes"/>
      <point x="54" y="517" type="line"/>
      <point x="74" y="517" type="line"/>
      <point x="74" y="342" type="line" smooth="yes"/>
      <point x="74" y="276"/>
      <point x="167" y="205"/>
      <point x="244" y="205" type="qcurve" smooth="yes"/>
      <point x="334" y="205"/>
      <point x="445" y="253" type="qcurve"/>
      <point x="444" y="233" type="line"/>
      <point x="391" y="210"/>
      <point x="288" y="187"/>
    </contour>
    <contour>
      <point x="350" y="-121" type="line"/>
      <point x="350" y="18" type="line"/>
      <point x="461" y="18" type="line"/>
      <point x="461" y="0" type="line"/>
      <point x="362" y="0" type="line"/>
      <point x="370" y="8" type="line"/>
      <point x="370" y="-121" type="line"/>
    </contour>
    <contour>
      <point x="441" y="0" type="line"/>
      <point x="441" y="517" type="line"/>
      <point x="461" y="517" type="line"/>
      <point x="461" y="0" type="line"/>
    </contour>
  </outline>
</glyph>
<glyph name="uni04D8" format="2">
  <advance width="826"/>
  <unicode hex="04D8"/>
  <anchor x="409" y="700" name="t.uni0308"/>
  <outline>
    <contour>
      <point x="401" y="-3" type="qcurve" smooth="yes"/>
      <point x="326" y="-3"/>
      <point x="198" y="50"/>
      <point x="102" y="146"/>
      <point x="49" y="274"/>
      <point x="49" y="350" type="qcurve" smooth="yes"/>
      <point x="49" y="354"/>
      <point x="49" y="362"/>
      <point x="49" y="366" type="qcurve"/>
      <point x="746" y="366" type="line"/>
      <point x="746" y="347" type="line"/>
      <point x="60" y="347" type="line"/>
      <point x="69" y="350" type="line"/>
      <point x="69" y="278"/>
      <point x="119" y="157"/>
      <point x="210" y="66"/>
      <point x="331" y="16"/>
      <point x="401" y="16" type="qcurve" smooth="yes"/>
      <point x="472" y="16"/>
      <point x="593" y="66"/>
      <point x="685" y="157"/>
      <point x="736" y="280"/>
      <point x="736" y="352" type="qcurve" smooth="yes"/>
      <point x="736" y="427"/>
      <point x="682" y="550"/>
      <point x="587" y="637"/>
      <point x="466" y="684"/>
      <point x="398" y="684" type="qcurve" smooth="yes"/>
      <point x="334" y="684"/>
      <point x="204" y="639"/>
      <point x="144" y="592" type="qcurve"/>
      <point x="130" y="607" type="line"/>
      <point x="194" y="657"/>
      <point x="331" y="703"/>
      <point x="398" y="703" type="qcurve" smooth="yes"/>
      <point x="470" y="703"/>
      <point x="599" y="654"/>
      <point x="699" y="562"/>
      <point x="756" y="433"/>
      <point x="756" y="353" type="qcurve" smooth="yes"/>
      <point x="756" y="276"/>
      <point x="702" y="146"/>
      <point x="605" y="50"/>
      <point x="476" y="-3"/>
    </contour>
  </outline>
</glyph>
<glyph name="uni04FA" format="2">
  <advance width="590"/>
  <unicode hex="04FA"/>
  <anchor x="371" y="700" name="t.uni0308"/>
  <outline>
    <contour>
      <point x="156" y="0" type="line"/>
      <point x="156" y="700" type="line"/>
      <point x="572" y="700" type="line"/>
      <point x="572" y="681" type="line"/>
      <point x="176" y="681" type="line"/>
      <point x="176" y="0" type="line"/>
    </contour>
    <contour>
      <point x="171" y="-197" type="qcurve" smooth="yes"/>
      <point x="141" y="-197"/>
      <point x="85" y="-179"/>
      <point x="67" y="-160" type="qcurve"/>
      <point x="81" y="-146" type="line"/>
      <point x="115" y="-178"/>
      <point x="170" y="-178" type="qcurve" smooth="yes"/>
      <point x="220" y="-178"/>
      <point x="273" y="-120"/>
      <point x="273" y="-65" type="qcurve" smooth="yes"/>
      <point x="273" y="8" type="line"/>
      <point x="281" y="0" type="line"/>
      <point x="156" y="0" type="line"/>
      <point x="156" y="19" type="line"/>
      <point x="293" y="19" type="line"/>
      <point x="293" y="-70" type="line" smooth="yes"/>
      <point x="293" y="-108"/>
      <point x="265" y="-165"/>
      <point x="211" y="-197"/>
    </contour>
    <contour>
      <point x="46" y="319" type="line"/>
      <point x="46" y="338" type="line"/>
      <point x="494" y="338" type="line"/>
      <point x="494" y="319" type="line"/>
    </contour>
  </outline>
</glyph>
<glyph name="uni04FB" format="2">
  <advance width="451"/>
  <unicode hex="04FB"/>
  <outline>
    <contour>
      <point x="131" y="0" type="line"/>
      <point x="131" y="517" type="line"/>
      <point x="427" y="517" type="line"/>
      <point x="427" y="498" type="line"/>
      <point x="151" y="498" type="line"/>
      <point x="151" y="0" type="line"/>
    </contour>
    <contour>
      <point x="116" y="-197" type="qcurve" smooth="yes"/>
      <point x="86" y="-197"/>
      <point x="30" y="-179"/>
      <point x="12" y="-160" type="qcurve"/>
      <point x="26" y="-146" type="line"/>
      <point x="43" y="-162"/>
      <point x="88" y="-178"/>
      <point x="115" y="-178" type="qcurve" smooth="yes"/>
      <point x="165" y="-178"/>
      <point x="218" y="-120"/>
      <point x="218" y="-65" type="qcurve" smooth="yes"/>
      <point x="218" y="8" type="line"/>
      <point x="226" y="0" type="line"/>
      <point x="131" y="0" type="line"/>
      <point x="131" y="18" type="line"/>
      <point x="238" y="18" type="line"/>
      <point x="238" y="-70" type="line" smooth="yes"/>
      <point x="238" y="-108"/>
      <point x="210" y="-165"/>
      <point x="156" y="-197"/>
    </contour>
    <contour>
      <point x="52" y="232" type="line"/>
      <point x="52" y="251" type="line"/>
      <point x="391" y="251" type="line"/>
      <point x="391" y="232" type="line"/>
    </contour>
  </outline>
</glyph>
<glyph name="uni04FC" format="2">
  <advance width="610"/>
  <unicode hex="04FC"/>
  <outline>
    <contour>
      <point x="34" y="0" type="line"/>
      <point x="295" y="362" type="line"/>
      <point x="53" y="700" type="line"/>
      <point x="77" y="700" type="line"/>
      <point x="307" y="379" type="line"/>
      <point x="538" y="700" type="line"/>
      <point x="562" y="700" type="line"/>
      <point x="317" y="359" type="line"/>
      <point x="309" y="348" type="line"/>
      <point x="58" y="0" type="line"/>
    </contour>
    <contour>
      <point x="452" y="-197" type="qcurve" smooth="yes"/>
      <point x="427" y="-197"/>
      <point x="377" y="-182"/>
      <point x="352" y="-168" type="qcurve"/>
      <point x="362" y="-150" type="line"/>
      <point x="409" y="-177"/>
      <point x="452" y="-177" type="qcurve" smooth="yes"/>
      <point x="499" y="-177"/>
      <point x="555" y="-118"/>
      <point x="555" y="-65" type="qcurve" smooth="yes"/>
      <point x="555" y="-24"/>
      <point x="508" y="75"/>
      <point x="433" y="184"/>
      <point x="344" y="298"/>
      <point x="302" y="353" type="qcurve"/>
      <point x="315" y="367" type="line"/>
      <point x="359" y="309"/>
      <point x="450" y="192"/>
      <point x="528" y="80"/>
      <point x="575" y="-22"/>
      <point x="575" y="-65" type="qcurve" smooth="yes"/>
      <point x="575" y="-106"/>
      <point x="544" y="-165"/>
      <point x="489" y="-197"/>
    </contour>
  </outline>
</glyph>
<glyph name="uni0512" format="2">
  <advance width="778"/>
  <unicode hex="0512"/>
  <outline>
    <contour>
      <point x="414" y="-160" type="qcurve"/>
      <point x="428" y="-146" type="line"/>
      <point x="457" y="-168"/>
      <point x="523" y="-182"/>
      <point x="582" y="-164"/>
      <point x="620" y="-115"/>
      <point x="620" y="-75" type="qcurve" smooth="yes"/>
      <point x="620" y="681" type="line"/>
      <point x="224" y="681" type="line"/>
      <point x="212" y="389" type="line" smooth="yes"/>
      <point x="208" y="283"/>
      <point x="185" y="132"/>
      <point x="146" y="39"/>
      <point x="88" y="-5"/>
      <point x="49" y="-5" type="qcurve" smooth="yes"/>
      <point x="39" y="-5"/>
      <point x="20" y="-3"/>
      <point x="8" y="0" type="qcurve"/>
      <point x="12" y="19" type="line"/>
      <point x="31" y="15"/>
      <point x="47" y="15" type="qcurve" smooth="yes"/>
      <point x="94" y="15"/>
      <point x="154" y="88"/>
      <point x="187" y="252"/>
      <point x="192" y="390" type="qcurve" smooth="yes"/>
      <point x="204" y="700" type="line"/>
      <point x="640" y="700" type="line"/>
      <point x="640" y="-80" type="line" smooth="yes"/>
      <point x="640" y="-126"/>
      <point x="593" y="-182"/>
      <point x="522" y="-202"/>
      <point x="444" y="-186"/>
    </contour>
  </outline>
</glyph>
<glyph name="uni0513" format="2">
  <advance width="613"/>
  <unicode hex="0513"/>
  <outline>
    <contour>
      <point x="374" y="-197" type="qcurve" smooth="yes"/>
      <point x="344" y="-197"/>
      <point x="288" y="-179"/>
      <point x="270" y="-160" type="qcurve"/>
      <point x="284" y="-146" type="line"/>
      <point x="318" y="-178"/>
      <point x="373" y="-178" type="qcurve" smooth="yes"/>
      <point x="423" y="-178"/>
      <point x="476" y="-120"/>
      <point x="476" y="-65" type="qcurve" smooth="yes"/>
      <point x="476" y="506" type="line"/>
      <point x="484" y="498" type="line"/>
      <point x="168" y="498" type="line"/>
      <point x="176" y="506" type="line"/>
      <point x="167" y="344" type="line" smooth="yes"/>
      <point x="163" y="277"/>
      <point x="150" y="152"/>
      <point x="124" y="53"/>
      <point x="76" y="-4"/>
      <point x="38" y="-4" type="qcurve" smooth="yes"/>
      <point x="30" y="-4"/>
      <point x="14" y="-1"/>
      <point x="5" y="1" type="qcurve"/>
      <point x="9" y="19" type="line"/>
      <point x="15" y="18"/>
      <point x="29" y="15"/>
      <point x="34" y="15" type="qcurve" smooth="yes"/>
      <point x="68" y="15"/>
      <point x="110" y="71"/>
      <point x="133" y="166"/>
      <point x="144" y="285"/>
      <point x="147" y="348" type="qcurve" smooth="yes"/>
      <point x="156" y="517" type="line"/>
      <point x="496" y="517" type="line"/>
      <point x="496" y="-70" type="line" smooth="yes"/>
      <point x="496" y="-127"/>
      <point x="433" y="-197"/>
    </contour>
  </outline>
</glyph>
<glyph name="uni0527" format="2">
  <advance width="676"/>
  <unicode hex="0527"/>
  <outline>
    <contour>
      <point x="541" y="0" type="line"/>
      <point x="541" y="305" type="line" smooth="yes"/>
      <point x="541" y="401"/>
      <point x="443" y="501"/>
      <point x="355" y="501" type="qcurve" smooth="yes"/>
      <point x="287" y="501"/>
      <point x="189" y="446"/>
      <point x="137" y="347"/>
      <point x="137" y="281" type="qcurve"/>
      <point x="122" y="287" type="line"/>
      <point x="122" y="356"/>
      <point x="178" y="461"/>
      <point x="282" y="520"/>
      <point x="354" y="520" type="qcurve" smooth="yes"/>
      <point x="418" y="520"/>
      <point x="510" y="471"/>
      <point x="561" y="375"/>
      <point x="561" y="305" type="qcurve" smooth="yes"/>
      <point x="561" y="0" type="line"/>
    </contour>
    <contour>
      <point x="117" y="0" type="line"/>
      <point x="117" y="742" type="line"/>
      <point x="137" y="742" type="line"/>
      <point x="137" y="0" type="line"/>
    </contour>
    <contour>
      <point x="618" y="-121" type="line"/>
      <point x="618" y="8" type="line"/>
      <point x="626" y="0" type="line"/>
      <point x="541" y="0" type="line"/>
      <point x="541" y="18" type="line"/>
      <point x="638" y="18" type="line"/>
      <point x="638" y="-121" type="line"/>
    </contour>
  </outline>
</glyph>
<glyph name="quoteleft" format="2">
  <advance width="182"/>
  <unicode hex="2018"/>
  <outline>
    <contour>
      <point x="120" y="742" type="line"/>
      <point x="89" y="594" type="line"/>
      <point x="89" y="605" type="line"/>
      <point x="101" y="605"/>
      <point x="117" y="590"/>
      <point x="117" y="579" type="qcurve" smooth="yes"/>
      <point x="117" y="569"/>
      <point x="102" y="553"/>
      <point x="91" y="553" type="qcurve" smooth="yes"/>
      <point x="79" y="553"/>
      <point x="65" y="570"/>
      <point x="65" y="579" type="qcurve" smooth="yes"/>
      <point x="65" y="585"/>
      <point x="66" y="593"/>
      <point x="68" y="603"/>
      <point x="69" y="608" type="qcurve"/>
      <point x="102" y="742" type="line"/>
    </contour>
  </outline>
</glyph>
<glyph name="quotesinglbase" format="2">
  <advance width="182"/>
  <unicode hex="201A"/>
  <outline>
    <contour>
      <point x="62" y="-140" type="line"/>
      <point x="93" y="8" type="line"/>
      <point x="93" y="-3" type="line"/>
      <point x="81" y="-3"/>
      <point x="65" y="13"/>
      <point x="65" y="23" type="qcurve" smooth="yes"/>
      <point x="65" y="34"/>
      <point x="80" y="49"/>
      <point x="91" y="49" type="qcurve" smooth="yes"/>
      <point x="103" y="49"/>
      <point x="117" y="32"/>
      <point x="117" y="23" type="qcurve" smooth="yes"/>
      <point x="117" y="18"/>
      <point x="116" y="8"/>
      <point x="114" y="0"/>
      <point x="113" y="-6" type="qcurve"/>
      <point x="80" y="-140" type="line"/>
    </contour>
  </outline>
</glyph>
<glyph name="perthousand" format="2">
  <advance width="1149"/>
  <unicode hex="2030"/>
  <outline>
    <contour>
      <point x="150" y="0" type="line"/>
      <point x="628" y="700" type="line"/>
      <point x="650" y="700" type="line"/>
      <point x="172" y="0" type="line"/>
    </contour>
    <contour>
      <point x="199" y="327" type="qcurve" smooth="yes"/>
      <point x="156" y="327"/>
      <point x="88" y="373"/>
      <point x="50" y="458"/>
      <point x="50" y="515" type="qcurve" smooth="yes"/>
      <point x="50" y="572"/>
      <point x="88" y="657"/>
      <point x="156" y="703"/>
      <point x="199" y="703" type="qcurve" smooth="yes"/>
      <point x="243" y="703"/>
      <point x="310" y="657"/>
      <point x="348" y="572"/>
      <point x="348" y="515" type="qcurve" smooth="yes"/>
      <point x="348" y="458"/>
      <point x="310" y="373"/>
      <point x="243" y="327"/>
    </contour>
    <contour>
      <point x="199" y="346" type="qcurve" smooth="yes"/>
      <point x="256" y="346"/>
      <point x="328" y="436"/>
      <point x="328" y="515" type="qcurve" smooth="yes"/>
      <point x="328" y="594"/>
      <point x="256" y="684"/>
      <point x="199" y="684" type="qcurve" smooth="yes"/>
      <point x="142" y="684"/>
      <point x="70" y="594"/>
      <point x="70" y="515" type="qcurve" smooth="yes"/>
      <point x="70" y="436"/>
      <point x="142" y="346"/>
    </contour>
    <contour>
      <point x="601" y="-3" type="qcurve" smooth="yes"/>
      <point x="558" y="-3"/>
      <point x="490" y="43"/>
      <point x="452" y="128"/>
      <point x="452" y="185" type="qcurve" smooth="yes"/>
      <point x="452" y="242"/>
      <point x="490" y="327"/>
      <point x="558" y="373"/>
      <point x="601" y="373" type="qcurve" smooth="yes"/>
      <point x="645" y="373"/>
      <point x="712" y="327"/>
      <point x="750" y="242"/>
      <point x="750" y="185" type="qcurve" smooth="yes"/>
      <point x="750" y="128"/>
      <point x="712" y="43"/>
      <point x="645" y="-3"/>
    </contour>
    <contour>
      <point x="601" y="16" type="qcurve" smooth="yes"/>
      <point x="658" y="16"/>
      <point x="730" y="106"/>
      <point x="730" y="185" type="qcurve" smooth="yes"/>
      <point x="730" y="264"/>
      <point x="658" y="354"/>
      <point x="601" y="354" type="qcurve" smooth="yes"/>
      <point x="544" y="354"/>
      <point x="472" y="264"/>
      <point x="472" y="185" type="qcurve" smooth="yes"/>
      <point x="472" y="106"/>
      <point x="544" y="16"/>
    </contour>
    <contour>
      <point x="950" y="-3" type="qcurve" smooth="yes"/>
      <point x="907" y="-3"/>
      <point x="839" y="43"/>
      <point x="801" y="128"/>
      <point x="801" y="185" type="qcurve" smooth="yes"/>
      <point x="801" y="242"/>
      <point x="839" y="327"/>
      <point x="907" y="373"/>
      <point x="950" y="373" type="qcurve" smooth="yes"/>
      <point x="994" y="373"/>
      <point x="1061" y="327"/>
      <point x="1099" y="242"/>
      <point x="1099" y="185" type="qcurve" smooth="yes"/>
      <point x="1099" y="128"/>
      <point x="1061" y="43"/>
      <point x="994" y="-3"/>
    </contour>
    <contour>
      <point x="950" y="16" type="qcurve" smooth="yes"/>
      <point x="1007" y="16"/>
      <point x="1079" y="106"/>
      <point x="1079" y="185" type="qcurve" smooth="yes"/>
      <point x="1079" y="264"/>
      <point x="1007" y="354"/>
      <point x="950" y="354" type="qcurve" smooth="yes"/>
      <point x="893" y="354"/>
      <point x="821" y="264"/>
      <point x="821" y="185" type="qcurve" smooth="yes"/>
      <point x="821" y="106"/>
      <point x="893" y="16"/>
    </contour>
  </outline>
</glyph>
<glyph name="franc" format="2">
  <advance width="636"/>
  <unicode hex="20A3"/>
  <outline>
    <contour>
      <point x="30" y="157" type="line"/>
      <point x="30" y="175" type="line"/>
      <point x="390" y="175" type="line"/>
      <point x="390" y="157" type="line"/>
    </contour>
    <contour>
      <point x="155" y="345" type="line"/>
      <point x="546" y="345" type="line"/>
      <point x="546" y="326" type="line"/>
      <point x="155" y="326" type="line"/>
    </contour>
    <contour>
      <point x="160" y="0" type="line"/>
      <point x="140" y="0" type="line"/>
      <point x="140" y="700" type="line"/>
      <point x="591" y="700" type="line"/>
      <point x="591" y="681" type="line"/>
      <point x="160" y="681" type="line"/>
    </contour>
  </outline>
</glyph>
<glyph name="lira" format="2">
  <advance width="618"/>
  <unicode hex="20A4"/>
  <outline>
    <contour>
      <point x="30" y="0" type="line"/>
      <point x="30" y="19" type="line"/>
      <point x="590" y="19" type="line"/>
      <point x="590" y="0" type="line"/>
    </contour>
    <contour>
      <point x="150" y="10" type="line"/>
      <point x="150" y="482" type="line" smooth="yes"/>
      <point x="150" y="548"/>
      <point x="203" y="647"/>
      <point x="312" y="703"/>
      <point x="395" y="703" type="qcurve" smooth="yes"/>
      <point x="455" y="703"/>
      <point x="560" y="674"/>
      <point x="600" y="642" type="qcurve"/>
      <point x="587" y="626" type="line"/>
      <point x="548" y="657"/>
      <point x="451" y="684"/>
      <point x="395" y="684" type="qcurve" smooth="yes"/>
      <point x="279" y="684"/>
      <point x="170" y="575"/>
      <point x="170" y="479" type="qcurve" smooth="yes"/>
      <point x="170" y="10" type="line"/>
    </contour>
    <contour>
      <point x="30" y="272" type="line"/>
      <point x="30" y="290" type="line"/>
      <point x="469" y="290" type="line"/>
      <point x="469" y="272" type="line"/>
    </contour>
    <contour>
      <point x="30" y="410" type="line"/>
      <point x="30" y="428" type="line"/>
      <point x="469" y="428" type="line"/>
      <point x="469" y="410" type="line"/>
    </contour>
  </outline>
</glyph>
<glyph name="uni20B4" format="2">
  <advance width="827"/>
  <unicode hex="20B4"/>
  <outline>
    <contour>
      <point x="413" y="-3" type="qcurve" smooth="yes"/>
      <point x="330" y="-3"/>
      <point x="224" y="46"/>
      <point x="174" y="126"/>
      <point x="174" y="172" type="qcurve" smooth="yes"/>
      <point x="174" y="209"/>
      <point x="198" y="262"/>
      <point x="218" y="281" type="qcurve"/>
      <point x="249" y="281" type="line"/>
      <point x="233" y="269"/>
      <point x="208" y="238"/>
      <point x="194" y="198"/>
      <point x="194" y="172" type="qcurve" smooth="yes"/>
      <point x="194" y="129"/>
      <point x="241" y="58"/>
      <point x="338" y="16"/>
      <point x="414" y="16" type="qcurve" smooth="yes"/>
      <point x="488" y="16"/>
      <point x="612" y="70"/>
      <point x="645" y="109" type="qcurve"/>
      <point x="659" y="96" type="line"/>
      <point x="624" y="53"/>
      <point x="490" y="-3"/>
    </contour>
    <contour>
      <point x="116" y="272" type="line"/>
      <point x="116" y="290" type="line"/>
      <point x="706" y="290" type="line"/>
      <point x="706" y="272" type="line"/>
    </contour>
    <contour>
      <point x="116" y="410" type="line"/>
      <point x="116" y="428" type="line"/>
      <point x="706" y="428" type="line"/>
      <point x="706" y="410" type="line"/>
    </contour>
    <contour>
      <point x="567" y="419" type="line"/>
      <point x="583" y="431"/>
      <point x="606" y="462"/>
      <point x="619" y="501"/>
      <point x="619" y="526" type="qcurve" smooth="yes"/>
      <point x="619" y="570"/>
      <point x="573" y="641"/>
      <point x="478" y="684"/>
      <point x="404" y="684" type="qcurve" smooth="yes"/>
      <point x="357" y="684"/>
      <point x="255" y="654"/>
      <point x="213" y="623" type="qcurve"/>
      <point x="202" y="639" type="line"/>
      <point x="240" y="668"/>
      <point x="349" y="703"/>
      <point x="405" y="703" type="qcurve" smooth="yes"/>
      <point x="487" y="703"/>
      <point x="590" y="653"/>
      <point x="639" y="573"/>
      <point x="639" y="527" type="qcurve" smooth="yes"/>
      <point x="639" y="491"/>
      <point x="617" y="438"/>
      <point x="598" y="419" type="qcurve"/>
    </contour>
  </outline>
</glyph>
<glyph name="uni20BA" format="2">
  <advance width="662"/>
  <unicode hex="20BA"/>
  <outline>
    <contour>
      <point x="150" y="0" type="line"/>
      <point x="150" y="699" type="line"/>
      <point x="170" y="699" type="line"/>
      <point x="170" y="20" type="line"/>
      <point x="235" y="20" type="line" smooth="yes"/>
      <point x="413" y="20"/>
      <point x="593" y="191"/>
      <point x="593" y="349" type="qcurve"/>
      <point x="612" y="349" type="line"/>
      <point x="612" y="237"/>
      <point x="528" y="81"/>
      <point x="360" y="0"/>
      <point x="235" y="0" type="qcurve" smooth="yes"/>
    </contour>
    <contour>
      <point x="30" y="236" type="line"/>
      <point x="30" y="256" type="line"/>
      <point x="469" y="484" type="line"/>
      <point x="469" y="464" type="line"/>
    </contour>
    <contour>
      <point x="30" y="376" type="line"/>
      <point x="30" y="396" type="line"/>
      <point x="469" y="624" type="line"/>
      <point x="469" y="604" type="line"/>
    </contour>
  </outline>
</glyph>
<glyph name="uni212B" format="2">
  <advance width="688"/>
  <unicode hex="212B"/>
  <anchor x="429" y="1021" name="t.uni0308"/>
  <anchor x="429" y="0" name="b.uni0324_3"/>
  <anchor x="889" y="0" name="m.uni0328_4"/>
  <outline>
    <contour>
      <point x="9" y="0" type="line"/>
      <point x="334" y="700" type="line"/>
      <point x="354" y="700" type="line"/>
      <point x="679" y="0" type="line"/>
      <point x="656" y="0" type="line"/>
      <point x="339" y="684" type="line"/>
      <point x="349" y="684" type="line"/>
      <point x="32" y="0" type="line"/>
    </contour>
    <contour>
      <point x="116" y="211" type="line"/>
      <point x="126" y="230" type="line"/>
      <point x="561" y="230" type="line"/>
      <point x="571" y="211" type="line"/>
    </contour>
    <contour>
      <point x="343" y="780" type="qcurve" smooth="yes"/>
      <point x="316" y="780"/>
      <point x="275" y="805"/>
      <point x="251" y="846"/>
      <point x="251" y="870" type="qcurve" smooth="yes"/>
      <point x="251" y="895"/>
      <point x="275" y="937"/>
      <point x="317" y="963"/>
      <point x="343" y="963" type="qcurve" smooth="yes"/>
      <point x="370" y="963"/>
      <point x="412" y="937"/>
      <point x="436" y="895"/>
      <point x="436" y="870" type="qcurve" smooth="yes"/>
      <point x="436" y="846"/>
      <point x="412" y="805"/>
      <point x="370" y="780"/>
    </contour>
    <contour>
      <point x="343" y="799" type="qcurve" smooth="yes"/>
      <point x="375" y="799"/>
      <point x="416" y="841"/>
      <point x="416" y="870" type="qcurve" smooth="yes"/>
      <point x="416" y="900"/>
      <point x="375" y="944"/>
      <point x="343" y="944" type="qcurve" smooth="yes"/>
      <point x="312" y="944"/>
      <point x="271" y="901"/>
      <point x="271" y="870" type="qcurve" smooth="yes"/>
      <point x="271" y="840"/>
      <point x="311" y="799"/>
    </contour>
  </outline>
</glyph>
<glyph name="estimated" format="2">
  <advance width="902"/>
  <unicode hex="212E"/>
  <outline>
    <contour>
      <point x="451" y="-3" type="qcurve" smooth="yes"/>
      <point x="370" y="-3"/>
      <point x="228" y="52"/>
      <point x="120" y="149"/>
      <point x="59" y="276"/>
      <point x="59" y="349" type="qcurve" smooth="yes"/>
      <point x="59" y="423"/>
      <point x="120" y="551"/>
      <point x="228" y="648"/>
      <point x="370" y="703"/>
      <point x="451" y="703" type="qcurve" smooth="yes"/>
      <point x="532" y="703"/>
      <point x="675" y="648"/>
      <point x="782" y="551"/>
      <point x="843" y="423"/>
      <point x="843" y="349" type="qcurve" smooth="yes"/>
      <point x="843" y="341" type="line"/>
      <point x="208" y="341" type="line" smooth="yes"/>
      <point x="202" y="341"/>
      <point x="202" y="337" type="qcurve" smooth="yes"/>
      <point x="202" y="145" type="line" smooth="yes"/>
      <point x="202" y="138"/>
      <point x="208" y="127"/>
      <point x="211" y="122" type="qcurve"/>
      <point x="252" y="70"/>
      <point x="382" y="18"/>
      <point x="452" y="18" type="qcurve" smooth="yes"/>
      <point x="528" y="18"/>
      <point x="659" y="82"/>
      <point x="704" y="134" type="qcurve"/>
      <point x="761" y="134" type="line"/>
      <point x="709" y="73"/>
      <point x="545" y="-3"/>
    </contour>
    <contour>
      <point x="208" y="360" type="qcurve" smooth="yes"/>
      <point x="695" y="360" type="line" smooth="yes"/>
      <point x="701" y="360"/>
      <point x="701" y="366" type="qcurve" smooth="yes"/>
      <point x="701" y="559" type="line" smooth="yes"/>
      <point x="701" y="573"/>
      <point x="690" y="582" type="qcurve"/>
      <point x="644" y="628"/>
      <point x="522" y="682"/>
      <point x="452" y="682" type="qcurve" smooth="yes"/>
      <point x="382" y="682"/>
      <point x="259" y="626"/>
      <point x="212" y="579" type="qcurve" smooth="yes"/>
      <point x="208" y="575"/>
      <point x="202" y="563"/>
      <point x="202" y="555" type="qcurve" smooth="yes"/>
      <point x="202" y="366" type="line" smooth="yes"/>
      <point x="202" y="360"/>
    </contour>
  </outline>
</glyph>
<glyph name="emptyset" format="2">
  <advance width="560"/>
  <unicode hex="2205"/>
  <outline>
    <contour>
      <point x="64" y="103" type="line"/>
      <point x="50" y="117" type="line"/>
      <point x="496" y="533" type="line"/>
      <point x="510" y="519" type="line"/>
    </contour>
    <contour>
      <point x="280" y="127" type="qcurve" smooth="yes"/>
      <point x="227" y="127"/>
      <point x="139" y="179"/>
      <point x="87" y="267"/>
      <point x="87" y="320" type="qcurve" smooth="yes"/>
      <point x="87" y="374"/>
      <point x="139" y="461"/>
      <point x="227" y="513"/>
      <point x="280" y="513" type="qcurve" smooth="yes"/>
      <point x="333" y="513"/>
      <point x="421" y="461"/>
      <point x="473" y="374"/>
      <point x="473" y="320" type="qcurve" smooth="yes"/>
      <point x="473" y="267"/>
      <point x="421" y="179"/>
      <point x="333" y="127"/>
    </contour>
    <contour>
      <point x="280" y="147" type="qcurve" smooth="yes"/>
      <point x="328" y="147"/>
      <point x="406" y="194"/>
      <point x="453" y="273"/>
      <point x="453" y="320" type="qcurve" smooth="yes"/>
      <point x="453" y="368"/>
      <point x="406" y="446"/>
      <point x="328" y="493"/>
      <point x="280" y="493" type="qcurve" smooth="yes"/>
      <point x="232" y="493"/>
      <point x="154" y="446"/>
      <point x="107" y="368"/>
      <point x="107" y="320" type="qcurve" smooth="yes"/>
      <point x="107" y="273"/>
      <point x="154" y="194"/>
      <point x="232" y="147"/>
    </contour>
  </outline>
</glyph>
<glyph name="radical" format="2">
  <advance width="782"/>
  <unicode hex="221A"/>
  <outline>
    <contour>
      <point x="749" y="742" type="line"/>
      <point x="772" y="742" type="line"/>
      <point x="434" y="-194" type="line"/>
      <point x="414" y="-194" type="line"/>
      <point x="204" y="340" type="line"/>
      <point x="75" y="340" type="line"/>
      <point x="75" y="359" type="line"/>
      <point x="219" y="359" type="line"/>
      <point x="428" y="-179" type="line"/>
      <point x="420" y="-179" type="line"/>
    </contour>
  </outline>
</glyph>
<glyph name="integral" format="2">
  <advance width="356"/>
  <unicode hex="222B"/>
  <outline>
    <contour>
      <point x="66" y="-197" type="qcurve" smooth="yes"/>
      <point x="36" y="-197"/>
      <point x="-20" y="-179"/>
      <point x="-38" y="-160" type="qcurve"/>
      <point x="-24" y="-146" type="line"/>
      <point x="10" y="-178"/>
      <point x="65" y="-178" type="qcurve" smooth="yes"/>
      <point x="115" y="-178"/>
      <point x="168" y="-120"/>
      <point x="168" y="-65" type="qcurve" smooth="yes"/>
      <point x="168" y="618" type="line" smooth="yes"/>
      <point x="168" y="675"/>
      <point x="231" y="745"/>
      <point x="290" y="745" type="qcurve" smooth="yes"/>
      <point x="320" y="745"/>
      <point x="376" y="727"/>
      <point x="394" y="708" type="qcurve"/>
      <point x="380" y="694" type="line"/>
      <point x="364" y="710"/>
      <point x="318" y="726"/>
      <point x="291" y="726" type="qcurve" smooth="yes"/>
      <point x="241" y="726"/>
      <point x="188" y="668"/>
      <point x="188" y="613" type="qcurve" smooth="yes"/>
      <point x="188" y="-70" type="line" smooth="yes"/>
      <point x="188" y="-127"/>
      <point x="125" y="-197"/>
    </contour>
  </outline>
</glyph>
<glyph name="notequal" format="2">
  <advance width="560"/>
  <unicode hex="2260"/>
  <outline>
    <contour>
      <point x="125" y="100" type="line"/>
      <point x="413" y="600" type="line"/>
      <point x="435" y="600" type="line"/>
      <point x="147" y="100" type="line"/>
    </contour>
    <contour>
      <point x="75" y="231" type="line"/>
      <point x="75" y="250" type="line"/>
      <point x="485" y="250" type="line"/>
      <point x="485" y="231" type="line"/>
    </contour>
    <contour>
      <point x="75" y="450" type="line"/>
      <point x="75" y="469" type="line"/>
      <point x="485" y="469" type="line"/>
      <point x="485" y="450" type="line"/>
    </contour>
  </outline>
</glyph>
<glyph name="lessequal" format="2">
  <advance width="560"/>
  <unicode hex="2264"/>
  <outline>
    <contour>
      <point x="485" y="168" type="line"/>
      <point x="75" y="339" type="line"/>
      <point x="75" y="361" type="line"/>
      <point x="485" y="532" type="line"/>
      <point x="485" y="510" type="line"/>
      <point x="88" y="346" type="line"/>
      <point x="88" y="354" type="line"/>
      <point x="485" y="190" type="line"/>
    </contour>
    <contour>
      <point x="75" y="0" type="line"/>
      <point x="75" y="19" type="line"/>
      <point x="485" y="19" type="line"/>
      <point x="485" y="0" type="line"/>
    </contour>
  </outline>
</glyph>
<glyph name="E.ss01" format="2">
  <advance width="614"/>
  <anchor x="392" y="700" name="t.uni0308"/>
  <anchor x="392" y="0" name="b.uni0324_3"/>
  <anchor x="681" y="0" name="m.uni0328_4"/>
  <outline>
    <contour>
      <point x="324" y="-3" type="qcurve" smooth="yes"/>
      <point x="238" y="-3"/>
      <point x="123" y="46"/>
      <point x="65" y="130"/>
      <point x="65" y="184" type="qcurve" smooth="yes"/>
      <point x="65" y="243"/>
      <point x="126" y="322"/>
      <point x="231" y="362"/>
      <point x="296" y="362" type="qcurve"/>
      <point x="300" y="349" type="line"/>
      <point x="235" y="349"/>
      <point x="143" y="391"/>
      <point x="95" y="469"/>
      <point x="95" y="521" type="qcurve" smooth="yes"/>
      <point x="95" y="571"/>
      <point x="150" y="654"/>
      <point x="259" y="703"/>
      <point x="339" y="703" type="qcurve" smooth="yes"/>
      <point x="401" y="703"/>
      <point x="516" y="672"/>
      <point x="556" y="643" type="qcurve"/>
      <point x="546" y="627" type="line"/>
      <point x="502" y="655"/>
      <point x="398" y="684"/>
      <point x="340" y="684" type="qcurve" smooth="yes"/>
      <point x="228" y="684"/>
      <point x="115" y="590"/>
      <point x="115" y="520" type="qcurve" smooth="yes"/>
      <point x="115" y="446"/>
      <point x="217" y="365"/>
      <point x="305" y="365" type="qcurve" smooth="yes"/>
      <point x="469" y="365" type="line"/>
      <point x="469" y="346" type="line"/>
      <point x="306" y="346" type="line" smooth="yes"/>
      <point x="242" y="346"/>
      <point x="142" y="311"/>
      <point x="85" y="240"/>
      <point x="85" y="185" type="qcurve" smooth="yes"/>
      <point x="85" y="110"/>
      <point x="204" y="16"/>
      <point x="325" y="16" type="qcurve" smooth="yes"/>
      <point x="406" y="16"/>
      <point x="537" y="63"/>
      <point x="575" y="105" type="qcurve"/>
      <point x="590" y="92" type="line"/>
      <point x="550" y="47"/>
      <point x="411" y="-3"/>
    </contour>
  </outline>
</glyph>
<glyph name="Eng.ss01" format="2">
  <advance width="800"/>
  <outline>
    <contour>
      <point x="404" y="703" type="qcurve" smooth="yes"/>
      <point x="529" y="703"/>
      <point x="673" y="559"/>
      <point x="673" y="422" type="qcurve" smooth="yes"/>
      <point x="673" y="0" type="line" smooth="yes"/>
      <point x="673" y="-98"/>
      <point x="587" y="-197"/>
      <point x="501" y="-197" type="qcurve" smooth="yes"/>
      <point x="448" y="-197"/>
      <point x="355" y="-144"/>
      <point x="327" y="-98" type="qcurve"/>
      <point x="341" y="-86" type="line"/>
      <point x="370" y="-130"/>
      <point x="453" y="-178"/>
      <point x="502" y="-178" type="qcurve" smooth="yes"/>
      <point x="653" y="-178"/>
      <point x="653" y="2" type="qcurve" smooth="yes"/>
      <point x="653" y="421" type="line" smooth="yes"/>
      <point x="653" y="551"/>
      <point x="522" y="684"/>
      <point x="403" y="684" type="qcurve" smooth="yes"/>
      <point x="284" y="684"/>
      <point x="153" y="545"/>
      <point x="153" y="401" type="qcurve" smooth="yes"/>
      <point x="153" y="0" type="line"/>
      <point x="133" y="0" type="line"/>
      <point x="133" y="700" type="line"/>
      <point x="153" y="700" type="line"/>
      <point x="153" y="524" type="line"/>
      <point x="151" y="527" type="line"/>
      <point x="177" y="616"/>
      <point x="309" y="703"/>
    </contour>
  </outline>
</glyph>
<glyph name="I.ss01" format="2">
  <advance width="422"/>
  <anchor x="279" y="700" name="t.uni0308"/>
  <anchor x="279" y="0" name="b.uni0324_3"/>
  <anchor x="444" y="0" name="m.uni0328_4"/>
  <outline>
    <contour>
      <point x="201" y="10" type="line"/>
      <point x="201" y="690" type="line"/>
      <point x="221" y="690" type="line"/>
      <point x="221" y="10" type="line"/>
    </contour>
    <contour>
      <point x="47" y="0" type="line"/>
      <point x="47" y="19" type="line"/>
      <point x="375" y="19" type="line"/>
      <point x="375" y="0" type="line"/>
    </contour>
    <contour>
      <point x="47" y="681" type="line"/>
      <point x="47" y="700" type="line"/>
      <point x="375" y="700" type="line"/>
      <point x="375" y="681" type="line"/>
    </contour>
  </outline>
</glyph>
<glyph name="IJ.ss01" format="2">
  <advance width="714"/>
  <anchor x="170" y="700" name="t.uni0308"/>
  <outline>
    <contour>
      <point x="327" y="-103" type="qcurve" smooth="yes"/>
      <point x="267" y="-103"/>
      <point x="161" y="-66"/>
      <point x="120" y="-38" type="qcurve"/>
      <point x="132" y="-22" type="line"/>
      <point x="172" y="-51"/>
      <point x="272" y="-84"/>
      <point x="328" y="-84" type="qcurve" smooth="yes"/>
      <point x="439" y="-84"/>
      <point x="567" y="54"/>
      <point x="567" y="194" type="qcurve" smooth="yes"/>
      <point x="567" y="700" type="line"/>
      <point x="587" y="700" type="line"/>
      <point x="587" y="193" type="line" smooth="yes"/>
      <point x="587" y="94"/>
      <point x="522" y="-37"/>
      <point x="406" y="-103"/>
    </contour>
    <contour>
      <point x="127" y="190" type="line"/>
      <point x="127" y="700" type="line"/>
      <point x="147" y="700" type="line"/>
      <point x="147" y="190" type="line"/>
    </contour>
  </outline>
</glyph>
<glyph name="Iacute_J.loclNLD" format="2">
  <advance width="714"/>
  <outline>
    <contour>
      <point x="327" y="-3" type="qcurve" smooth="yes"/>
      <point x="267" y="-3"/>
      <point x="161" y="34"/>
      <point x="120" y="62" type="qcurve"/>
      <point x="132" y="78" type="line"/>
      <point x="172" y="49"/>
      <point x="272" y="16"/>
      <point x="328" y="16" type="qcurve" smooth="yes"/>
      <point x="439" y="16"/>
      <point x="567" y="154"/>
      <point x="567" y="294" type="qcurve" smooth="yes"/>
      <point x="567" y="700" type="line"/>
      <point x="587" y="700" type="line"/>
      <point x="587" y="293" type="line" smooth="yes"/>
      <point x="587" y="194"/>
      <point x="522" y="63"/>
      <point x="406" y="-3"/>
    </contour>
    <contour>
      <point x="127" y="290" type="line"/>
      <point x="127" y="700" type="line"/>
      <point x="147" y="700" type="line"/>
      <point x="147" y="290" type="line"/>
    </contour>
    <contour>
      <point x="122" y="757" type="line"/>
      <point x="262" y="867" type="line"/>
      <point x="302" y="867" type="line"/>
      <point x="152" y="757" type="line"/>
    </contour>
    <contour>
      <point x="564" y="757" type="line"/>
      <point x="704" y="867" type="line"/>
      <point x="744" y="867" type="line"/>
      <point x="594" y="757" type="line"/>
    </contour>
  </outline>
</glyph>
<glyph name="Q.ss01.BRACKET.170" format="2">
  <advance width="836"/>
  <outline>
    <contour>
      <point x="408" y="-135" type="line"/>
      <point x="408" y="1" type="line"/>
      <point x="428" y="1" type="line"/>
      <point x="428" y="-135" type="line"/>
    </contour>
    <contour>
      <point x="418" y="-3" type="qcurve" smooth="yes"/>
      <point x="341" y="-3"/>
      <point x="210" y="50"/>
      <point x="113" y="146"/>
      <point x="59" y="274"/>
      <point x="59" y="350" type="qcurve" smooth="yes"/>
      <point x="59" y="426"/>
      <point x="113" y="554"/>
      <point x="210" y="650"/>
      <point x="341" y="703"/>
      <point x="418" y="703" type="qcurve" smooth="yes"/>
      <point x="495" y="703"/>
      <point x="626" y="650"/>
      <point x="723" y="554"/>
      <point x="777" y="426"/>
      <point x="777" y="350" type="qcurve" smooth="yes"/>
      <point x="777" y="274"/>
      <point x="723" y="146"/>
      <point x="626" y="50"/>
      <point x="495" y="-3"/>
    </contour>
    <contour>
      <point x="418" y="16" type="qcurve" smooth="yes"/>
      <point x="490" y="16"/>
      <point x="614" y="67"/>
      <point x="706" y="158"/>
      <point x="757" y="279"/>
      <point x="757" y="350" type="qcurve" smooth="yes"/>
      <point x="757" y="421"/>
      <point x="706" y="542"/>
      <point x="614" y="633"/>
      <point x="490" y="684"/>
      <point x="418" y="684" type="qcurve" smooth="yes"/>
      <point x="346" y="684"/>
      <point x="222" y="633"/>
      <point x="130" y="542"/>
      <point x="79" y="421"/>
      <point x="79" y="350" type="qcurve" smooth="yes"/>
      <point x="79" y="279"/>
      <point x="130" y="158"/>
      <point x="222" y="67"/>
      <point x="346" y="16"/>
    </contour>
  </outline>
</glyph>
<glyph name="T_h" format="2">
  <advance width="1148"/>
  <outline>
    <contour>
      <point x="264" y="0" type="line"/>
      <point x="264" y="681" type="line"/>
      <point x="4" y="681" type="line"/>
      <point x="4" y="700" type="line"/>
      <point x="604" y="700" type="line"/>
      <point x="604" y="681" type="line"/>
      <point x="284" y="681" type="line"/>
      <point x="284" y="0" type="line"/>
    </contour>
    <contour>
      <point x="832" y="520" type="qcurve" smooth="yes"/>
      <point x="896" y="520"/>
      <point x="988" y="471"/>
      <point x="1039" y="375"/>
      <point x="1039" y="305" type="qcurve" smooth="yes"/>
      <point x="1039" y="0" type="line"/>
      <point x="1019" y="0" type="line"/>
      <point x="1019" y="305" type="line" smooth="yes"/>
      <point x="1019" y="401"/>
      <point x="921" y="501"/>
      <point x="833" y="501" type="qcurve" smooth="yes"/>
      <point x="765" y="501"/>
      <point x="667" y="446"/>
      <point x="615" y="347"/>
      <point x="615" y="281" type="qcurve" smooth="yes"/>
      <point x="615" y="0" type="line"/>
      <point x="595" y="0" type="line"/>
      <point x="595" y="700" type="line"/>
      <point x="615" y="700" type="line"/>
      <point x="615" y="370" type="line"/>
      <point x="613" y="373" type="line"/>
      <point x="636" y="441"/>
      <point x="748" y="520"/>
    </contour>
  </outline>
</glyph>
<glyph name="W.ss01" format="2">
  <advance width="1210"/>
  <anchor x="598" y="700" name="t.uni0308"/>
  <anchor x="600" y="0" name="b.uni0324_3"/>
  <outline>
    <contour>
      <point x="372" y="-3" type="qcurve" smooth="yes"/>
      <point x="260" y="-3"/>
      <point x="127" y="130"/>
      <point x="127" y="267" type="qcurve" smooth="yes"/>
      <point x="127" y="700" type="line"/>
      <point x="147" y="700" type="line"/>
      <point x="147" y="268" type="line" smooth="yes"/>
      <point x="147" y="138"/>
      <point x="266" y="16"/>
      <point x="372" y="16" type="qcurve" smooth="yes"/>
      <point x="476" y="16"/>
      <point x="595" y="138"/>
      <point x="595" y="268" type="qcurve" smooth="yes"/>
      <point x="595" y="700" type="line"/>
      <point x="615" y="700" type="line"/>
      <point x="615" y="268" type="line" smooth="yes"/>
      <point x="615" y="138"/>
      <point x="733" y="16"/>
      <point x="838" y="16" type="qcurve" smooth="yes"/>
      <point x="943" y="16"/>
      <point x="1063" y="138"/>
      <point x="1063" y="268" type="qcurve" smooth="yes"/>
      <point x="1063" y="700" type="line"/>
      <point x="1083" y="700" type="line"/>
      <point x="1083" y="267" type="line" smooth="yes"/>
      <point x="1083" y="130"/>
      <point x="950" y="-3"/>
      <point x="838" y="-3" type="qcurve" smooth="yes"/>
      <point x="744" y="-3"/>
      <point x="621" y="92"/>
      <point x="604" y="190" type="qcurve"/>
      <point x="606" y="190" type="line"/>
      <point x="589" y="92"/>
      <point x="466" y="-3"/>
    </contour>
  </outline>
</glyph>
<glyph name="Z.ss01" format="2">
  <advance width="649"/>
  <anchor x="374" y="700" name="t.uni0308"/>
  <anchor x="369" y="0" name="b.uni0324_3"/>
  <outline>
    <contour>
      <point x="55" y="0" type="line"/>
      <point x="55" y="15" type="line"/>
      <point x="567" y="688" type="line"/>
      <point x="568" y="681" type="line"/>
      <point x="55" y="681" type="line"/>
      <point x="55" y="700" type="line"/>
      <point x="590" y="700" type="line"/>
      <point x="590" y="685" type="line"/>
      <point x="78" y="12" type="line"/>
      <point x="77" y="19" type="line"/>
      <point x="605" y="19" type="line"/>
      <point x="605" y="0" type="line"/>
    </contour>
    <contour>
      <point x="121" y="346" type="line"/>
      <point x="121" y="365" type="line"/>
      <point x="330" y="365" type="line"/>
      <point x="337" y="365" type="line"/>
      <point x="521" y="365" type="line"/>
      <point x="521" y="346" type="line"/>
      <point x="323" y="346" type="line"/>
      <point x="316" y="346" type="line"/>
    </contour>
  </outline>
</glyph>
<glyph name="a.sc" format="2">
  <advance width="563"/>
  <anchor x="382" y="593" name="t.uni0308"/>
  <anchor x="382" y="0" name="b.uni0324_3"/>
  <anchor x="793" y="0" name="m.uni0328_4"/>
  <outline>
    <contour>
      <point x="9" y="0" type="line"/>
      <point x="271" y="559" type="line"/>
      <point x="291" y="559" type="line"/>
      <point x="554" y="0" type="line"/>
      <point x="531" y="0" type="line"/>
      <point x="277" y="544" type="line"/>
      <point x="286" y="544" type="line"/>
      <point x="31" y="0" type="line"/>
    </contour>
    <contour>
      <point x="100" y="169" type="line"/>
      <point x="109" y="188" type="line"/>
      <point x="453" y="188" type="line"/>
      <point x="462" y="169" type="line"/>
    </contour>
  </outline>
</glyph>
<glyph name="ae.sc.ss01" format="2">
  <advance width="895"/>
  <anchor x="498" y="593" name="t.uni0308"/>
  <anchor x="498" y="0" name="b.uni0324_3"/>
  <outline>
    <contour>
      <point x="462" y="0" type="line"/>
      <point x="462" y="559" type="line"/>
      <point x="830" y="559" type="line"/>
      <point x="830" y="540" type="line"/>
      <point x="482" y="540" type="line"/>
      <point x="482" y="293" type="line"/>
      <point x="793" y="293" type="line"/>
      <point x="793" y="275" type="line"/>
      <point x="482" y="275" type="line"/>
      <point x="482" y="18" type="line"/>
      <point x="842" y="18" type="line"/>
      <point x="842" y="0" type="line"/>
    </contour>
    <contour>
      <point x="123" y="190" type="line"/>
      <point x="123" y="209" type="line"/>
      <point x="472" y="209" type="line"/>
      <point x="472" y="190" type="line"/>
    </contour>
    <contour>
      <point x="109" y="0" type="line"/>
      <point x="109" y="323" type="line" smooth="yes"/>
      <point x="109" y="435"/>
      <point x="222" y="559"/>
      <point x="325" y="559" type="qcurve" smooth="yes"/>
      <point x="472" y="559" type="line"/>
      <point x="472" y="540" type="line"/>
      <point x="325" y="540" type="line" smooth="yes"/>
      <point x="231" y="540"/>
      <point x="129" y="427"/>
      <point x="129" y="323" type="qcurve" smooth="yes"/>
      <point x="129" y="0" type="line"/>
    </contour>
  </outline>
</glyph>
<glyph name="ae.ss01" format="2">
  <advance width="982"/>
  <anchor x="473" y="562" name="t.uni0308"/>
  <outline>
    <contour>
      <point x="248" y="-3" type="qcurve" smooth="yes"/>
      <point x="161" y="-3"/>
      <point x="65" y="77"/>
      <point x="65" y="142" type="qcurve" smooth="yes"/>
      <point x="65" y="179"/>
      <point x="100" y="241"/>
      <point x="180" y="280"/>
      <point x="249" y="280" type="qcurve" smooth="yes"/>
      <point x="451" y="280" type="line"/>
      <point x="451" y="261" type="line"/>
      <point x="248" y="261" type="line" smooth="yes"/>
      <point x="160" y="261"/>
      <point x="85" y="194"/>
      <point x="85" y="143" type="qcurve" smooth="yes"/>
      <point x="85" y="85"/>
      <point x="171" y="16"/>
      <point x="248" y="16" type="qcurve" smooth="yes"/>
      <point x="335" y="16"/>
      <point x="445" y="112"/>
      <point x="445" y="202" type="qcurve" smooth="yes"/>
      <point x="445" y="338" type="line" smooth="yes"/>
      <point x="445" y="419"/>
      <point x="361" y="501"/>
      <point x="281" y="501" type="qcurve" smooth="yes"/>
      <point x="223" y="501"/>
      <point x="127" y="461"/>
      <point x="93" y="429" type="qcurve"/>
      <point x="79" y="443" type="line"/>
      <point x="116" y="478"/>
      <point x="222" y="520"/>
      <point x="280" y="520" type="qcurve" smooth="yes"/>
      <point x="367" y="520"/>
      <point x="460" y="436"/>
      <point x="465" y="350" type="qcurve"/>
      <point x="462" y="359" type="line"/>
      <point x="488" y="432"/>
      <point x="612" y="520"/>
      <point x="696" y="520" type="qcurve" smooth="yes"/>
      <point x="763" y="520"/>
      <point x="864" y="457"/>
      <point x="924" y="352"/>
      <point x="928" y="289" type="qcurve"/>
      <point x="464" y="198" type="line"/>
      <point x="457" y="216" type="line"/>
      <point x="917" y="306" type="line"/>
      <point x="908" y="292" type="line"/>
      <point x="904" y="346"/>
      <point x="851" y="441"/>
      <point x="759" y="501"/>
      <point x="696" y="501" type="qcurve" smooth="yes"/>
      <point x="628" y="501"/>
      <point x="524" y="439"/>
      <point x="465" y="331"/>
      <point x="465" y="263" type="qcurve" smooth="yes"/>
      <point x="465" y="259" type="line" smooth="yes"/>
      <point x="465" y="188"/>
      <point x="529" y="78"/>
      <point x="639" y="16"/>
      <point x="709" y="16" type="qcurve" smooth="yes"/>
      <point x="762" y="16"/>
      <point x="851" y="56"/>
      <point x="883" y="96" type="qcurve"/>
      <point x="897" y="82" type="line"/>
      <point x="826" y="-3"/>
      <point x="709" y="-3" type="qcurve" smooth="yes"/>
      <point x="652" y="-3"/>
      <point x="548" y="40"/>
      <point x="471" y="125"/>
      <point x="453" y="189" type="qcurve"/>
      <point x="466" y="187" type="line"/>
      <point x="461" y="120"/>
      <point x="399" y="37"/>
      <point x="304" y="-3"/>
    </contour>
  </outline>
</glyph>
<glyph name="ampersand.sc" format="2">
  <advance width="515"/>
  <outline>
    <contour>
      <point x="222" y="-3" type="qcurve" smooth="yes"/>
      <point x="170" y="-3"/>
      <point x="90" y="31"/>
      <point x="45" y="94"/>
      <point x="45" y="135" type="qcurve" smooth="yes"/>
      <point x="45" y="182"/>
      <point x="112" y="264"/>
      <point x="200" y="315" type="qcurve" smooth="yes"/>
      <point x="254" y="346"/>
      <point x="315" y="392"/>
      <point x="341" y="435"/>
      <point x="341" y="461" type="qcurve" smooth="yes"/>
      <point x="341" y="499"/>
      <point x="291" y="544"/>
      <point x="244" y="544" type="qcurve" smooth="yes"/>
      <point x="194" y="544"/>
      <point x="139" y="494"/>
      <point x="139" y="453" type="qcurve" smooth="yes"/>
      <point x="139" y="425"/>
      <point x="166" y="372"/>
      <point x="209" y="327" type="qcurve" smooth="yes"/>
      <point x="511" y="4" type="line"/>
      <point x="496" y="-8" type="line"/>
      <point x="191" y="318" type="line" smooth="yes"/>
      <point x="148" y="364"/>
      <point x="120" y="421"/>
      <point x="120" y="453" type="qcurve" smooth="yes"/>
      <point x="120" y="486"/>
      <point x="150" y="535"/>
      <point x="206" y="562"/>
      <point x="244" y="562" type="qcurve" smooth="yes"/>
      <point x="297" y="562"/>
      <point x="360" y="508"/>
      <point x="360" y="461" type="qcurve" smooth="yes"/>
      <point x="360" y="433"/>
      <point x="333" y="385"/>
      <point x="268" y="334"/>
      <point x="212" y="301" type="qcurve" smooth="yes"/>
      <point x="155" y="268"/>
      <point x="91" y="214"/>
      <point x="65" y="164"/>
      <point x="65" y="135" type="qcurve" smooth="yes"/>
      <point x="65" y="80"/>
      <point x="152" y="14"/>
      <point x="222" y="14" type="qcurve" smooth="yes"/>
      <point x="282" y="14"/>
      <point x="375" y="62"/>
      <point x="438" y="160"/>
      <point x="452" y="234" type="qcurve"/>
      <point x="468" y="230" type="line"/>
      <point x="453" y="151"/>
      <point x="385" y="47"/>
      <point x="286" y="-3"/>
    </contour>
  </outline>
</glyph>
<glyph name="b.sc" format="2">
  <advance width="626"/>
  <anchor x="347" y="593" name="t.uni0308"/>
  <anchor x="347" y="0" name="b.uni0324_3"/>
  <outline>
    <contour>
      <point x="122" y="0" type="line"/>
      <point x="122" y="559" type="line"/>
      <point x="348" y="559" type="line" smooth="yes"/>
      <point x="436" y="559"/>
      <point x="539" y="488"/>
      <point x="539" y="418" type="qcurve" smooth="yes"/>
      <point x="539" y="348"/>
      <point x="439" y="278"/>
      <point x="360" y="278" type="qcurve"/>
      <point x="373" y="290" type="line"/>
      <point x="471" y="290"/>
      <point x="570" y="217"/>
      <point x="570" y="146" type="qcurve" smooth="yes"/>
      <point x="570" y="76"/>
      <point x="468" y="0"/>
      <point x="364" y="0" type="qcurve" smooth="yes"/>
    </contour>
    <contour>
      <point x="142" y="19" type="line"/>
      <point x="367" y="19" type="line" smooth="yes"/>
      <point x="456" y="19"/>
      <point x="550" y="81"/>
      <point x="550" y="147" type="qcurve" smooth="yes"/>
      <point x="550" y="214"/>
      <point x="456" y="274"/>
      <point x="367" y="274" type="qcurve" smooth="yes"/>
      <point x="137" y="274" type="line"/>
      <point x="137" y="293" type="line"/>
      <point x="351" y="293" type="line" smooth="yes"/>
      <point x="431" y="293"/>
      <point x="519" y="356"/>
      <point x="519" y="417" type="qcurve" smooth="yes"/>
      <point x="519" y="478"/>
      <point x="431" y="540"/>
      <point x="351" y="540" type="qcurve" smooth="yes"/>
      <point x="142" y="540" type="line"/>
    </contour>
  </outline>
</glyph>
<glyph name="d.sc" format="2">
  <advance width="693"/>
  <anchor x="306" y="593" name="t.uni0308"/>
  <anchor x="195" y="300" name="t.uni0307_1"/>
  <anchor x="306" y="0" name="b.uni0324_3"/>
  <outline>
    <contour>
      <point x="122" y="0" type="line"/>
      <point x="122" y="559" type="line"/>
      <point x="338" y="559" type="line" smooth="yes"/>
      <point x="432" y="559"/>
      <point x="565" y="487"/>
      <point x="637" y="361"/>
      <point x="637" y="280" type="qcurve" smooth="yes"/>
      <point x="637" y="199"/>
      <point x="565" y="72"/>
      <point x="432" y="0"/>
      <point x="338" y="0" type="qcurve" smooth="yes"/>
    </contour>
    <contour>
      <point x="142" y="19" type="line"/>
      <point x="336" y="19" type="line" smooth="yes"/>
      <point x="426" y="19"/>
      <point x="552" y="87"/>
      <point x="617" y="205"/>
      <point x="617" y="280" type="qcurve" smooth="yes"/>
      <point x="617" y="355"/>
      <point x="552" y="473"/>
      <point x="426" y="540"/>
      <point x="336" y="540" type="qcurve" smooth="yes"/>
      <point x="142" y="540" type="line"/>
    </contour>
  </outline>
</glyph>
<glyph name="descTailcy.case" format="2">
  <advance width="138"/>
  <outline>
    <contour>
      <point x="40" y="-165" type="line"/>
      <point x="93" y="9" type="line"/>
      <point x="107" y="0" type="line"/>
      <point x="0" y="0" type="line"/>
      <point x="0" y="19" type="line"/>
      <point x="118" y="19" type="line"/>
      <point x="58" y="-165" type="line"/>
    </contour>
  </outline>
</glyph>
<glyph name="descendercy.case" format="2">
  <advance width="300"/>
  <outline>
    <contour>
      <point x="166" y="-165" type="line"/>
      <point x="166" y="9" type="line"/>
      <point x="175" y="0" type="line"/>
      <point x="49" y="0" type="line"/>
      <point x="49" y="19" type="line"/>
      <point x="186" y="19" type="line"/>
      <point x="186" y="-165" type="line"/>
    </contour>
  </outline>
</glyph>
<glyph name="descendercy.case.short" format="2">
  <advance width="272"/>
  <outline>
    <contour>
      <point x="138" y="-165" type="line"/>
      <point x="138" y="9" type="line"/>
      <point x="147" y="0" type="line"/>
      <point x="69" y="0" type="line"/>
      <point x="69" y="19" type="line"/>
      <point x="158" y="19" type="line"/>
      <point x="158" y="-165" type="line"/>
    </contour>
  </outline>
</glyph>
<glyph name="e.sc.ss01" format="2">
  <advance width="519"/>
  <anchor x="345" y="593" name="t.uni0308"/>
  <anchor x="345" y="0" name="b.uni0324_3"/>
  <anchor x="600" y="0" name="m.uni0328_4"/>
  <outline>
    <contour>
      <point x="483" y="72" type="line"/>
      <point x="451" y="37"/>
      <point x="338" y="-3"/>
      <point x="267" y="-3" type="qcurve" smooth="yes"/>
      <point x="162" y="-3"/>
      <point x="56" y="83"/>
      <point x="56" y="147" type="qcurve" smooth="yes"/>
      <point x="56" y="194"/>
      <point x="105" y="258"/>
      <point x="190" y="290"/>
      <point x="243" y="290" type="qcurve"/>
      <point x="246" y="278" type="line"/>
      <point x="194" y="278"/>
      <point x="119" y="312"/>
      <point x="80" y="374"/>
      <point x="80" y="416" type="qcurve" smooth="yes"/>
      <point x="80" y="456"/>
      <point x="125" y="522"/>
      <point x="214" y="562"/>
      <point x="279" y="562" type="qcurve" smooth="yes"/>
      <point x="329" y="562"/>
      <point x="423" y="537"/>
      <point x="456" y="514" type="qcurve"/>
      <point x="447" y="498" type="line"/>
      <point x="411" y="520"/>
      <point x="327" y="543"/>
      <point x="280" y="543" type="qcurve" smooth="yes"/>
      <point x="190" y="543"/>
      <point x="100" y="469"/>
      <point x="100" y="415" type="qcurve" smooth="yes"/>
      <point x="100" y="357"/>
      <point x="181" y="293"/>
      <point x="252" y="293" type="qcurve" smooth="yes"/>
      <point x="385" y="293" type="line"/>
      <point x="385" y="275" type="line"/>
      <point x="252" y="275" type="line" smooth="yes"/>
      <point x="175" y="275"/>
      <point x="76" y="214"/>
      <point x="76" y="149" type="qcurve" smooth="yes"/>
      <point x="76" y="90"/>
      <point x="171" y="16"/>
      <point x="268" y="16" type="qcurve" smooth="yes"/>
      <point x="312" y="16"/>
      <point x="388" y="33"/>
      <point x="450" y="65"/>
      <point x="470" y="87" type="qcurve"/>
    </contour>
  </outline>
</glyph>
